<?xml version="1.0" encoding="utf-8"?>
<!-- Generator: Adobe Illustrator 24.1.2, SVG Export Plug-In . SVG Version: 6.00 Build 0)  -->
<svg version="1.1" id="_x30_856a1da-3393-4f60-9d09-641e026e226c"
	 xmlns="http://www.w3.org/2000/svg" xmlns:xlink="http://www.w3.org/1999/xlink" x="0px" y="0px" viewBox="0 0 708.8 778.9"
	 style="enable-background:new 0 0 708.8 778.9;" xml:space="preserve">
<style type="text/css">
	.st0{fill:#3B477B;}
	.st1{fill:#2BA358;}
	.st2{opacity:8.000000e-02;enable-background:new    ;}
	.st3{opacity:8.000000e-02;}
	.st4{fill:#FFFFFF;}
	.st5{opacity:8.000000e-02;fill:#FFFFFF;enable-background:new    ;}
</style>
<ellipse class="st0" cx="157.7" cy="455.1" rx="56.3" ry="8.9"/>
<rect x="148.8" y="128.5" class="st0" width="17.8" height="326.7"/>
<circle class="st0" cx="157.7" cy="137.4" r="22.6"/>
<path class="st1" d="M207.8,158c0,0-8.9,19.2-15.8,59l-39.1-43.2c0,0,10.5-4.2,21.7-9C185.1,160.3,196.4,158,207.8,158L207.8,158z"
	/>
<path class="st2" d="M207.8,158c0,0-8.9,19.2-15.8,59l-39.1-43.2c0,0,10.5-4.2,21.7-9C185.1,160.3,196.4,158,207.8,158L207.8,158z"
	/>
<path class="st1" d="M109,158c0,0,12.4,36.4,13,50.8v17.2H194v-17.8c-8.8-11.1-18.7-21.3-29.6-30.4C148.7,164.9,129.1,158,109,158
	L109,158z"/>
<path class="st1" d="M122,225.9c0,0-18.5,22-19.9,48s11.7,103.6,11.7,103.6s43.9,15.8,87.8,0c0,0,13.7-79.6,12.4-105
	s-27.8-58.7-27.8-58.7L122,225.9z"/>
<path class="st2" d="M167,206.4c0,0,8.9-0.7,14.4,2.1s12.7,3,12.7,3"/>
<path class="st2" d="M167,210.4c0,0,8.9-0.7,14.4,2.1s12.7,3,12.7,3"/>
<path class="st2" d="M167,216c0,0,8.9-0.7,14.4,2.1s12.7,3,12.7,3"/>
<path class="st2" d="M125.8,226.3c0,0-5.5,14.4-4.8,16.5s-5.5,14.4-5.5,14.4"/>
<path class="st2" d="M129.9,235.2c0,0-5.5,14.4-4.8,16.5s-5.5,14.4-5.5,14.4"/>
<path class="st2" d="M191.6,226.3c0,0,5.5,14.4,4.8,16.5s5.5,14.4,5.5,14.4"/>
<path class="st2" d="M187.5,235.2c0,0,5.5,14.4,4.8,16.5s5.5,14.4,5.5,14.4"/>
<ellipse class="st0" cx="372.5" cy="498.4" rx="56.3" ry="8.9"/>
<rect x="363.6" y="171.7" class="st0" width="17.8" height="326.7"/>
<circle class="st0" cx="372.5" cy="180.6" r="22.6"/>
<path class="st1" d="M337.8,285.3l-81.7,113.2l22.6,8.9c0,0-4.1,4.1-1.4,6.2c0,0,9.6,8.9,35,10.3c0,0,7.5-10.3,22.7,3.4
	s33.6,2.8,33.6,2.8s13.7-11.6,29.5-0.6s35.7-5.5,35.7-5.5s10.3-15.1,32.2-9.6s22-15.1,22-15.1l-83-116.7L337.8,285.3z"/>
<g class="st3">
	<path class="st4" d="M467.7,414.6c6,1.2,10.2,0.4,13.2-1.4C476.5,412.8,472,413.2,467.7,414.6z"/>
	<path class="st4" d="M298,413.6c-2.7-2.1,1.4-6.2,1.4-6.2l-22.7-8.9l61.1-113.2l-81.6,113.2l22.6,8.9c0,0-4.1,4.1-1.4,6.2
		c0,0,9.6,8.9,35,10.3c0.9-1,1.9-1.9,3.1-2.5C303.1,418.3,298,413.6,298,413.6z"/>
	<path class="st4" d="M355.7,427.3c-15.1-13.7-22.7-3.4-22.7-3.4c-0.8,0-1.7-0.1-2.5-0.2c1.6,1.1,3.1,2.3,4.6,3.6
		c10.2,9.2,21.9,7.3,28.5,5C360.6,431.1,358,429.5,355.7,427.3z"/>
	<path class="st4" d="M418.8,429.4c-10-7-19.2-4.8-24.6-2.3c1.4,0.7,2.7,1.4,4,2.3c7.7,5.4,16.4,4.2,23.2,1.6
		C420.6,430.6,419.7,430,418.8,429.4z"/>
</g>
<path class="st1" d="M412,294.5h-76.9c0,0-4.8-58.3-11.7-67.2c2.8-1.2,5.7-2.3,8.7-3.2c4.6-1.4,9.3-2.6,14-3.5
	c16.3-3.1,33-3.3,49.4-0.5c4.8,0.8,9.5,1.9,14.1,3.3c3.7,1.1,7.4,2.3,11.2,3.8C426.5,229.5,407.1,282.2,412,294.5z"/>
<path class="st5" d="M355.5,294.5h-10.2c-0.1-12.9-9.6-54.6-13.3-70.4c4.6-1.4,9.3-2.6,14-3.5C346.8,237.2,353.7,282.3,355.5,294.5z
	"/>
<path class="st5" d="M409.6,223.4c-3.5,15.2-13.3,58-13.4,71.1H386c1.9-12.3,8.8-58.1,9.5-74.4C400.3,221,405,222.1,409.6,223.4z"/>
<ellipse class="st0" cx="585.9" cy="457.2" rx="56.3" ry="8.9"/>
<rect x="577" y="130.5" class="st0" width="17.8" height="326.7"/>
<circle class="st0" cx="585.9" cy="139.4" r="22.7"/>
<path class="st1" d="M625.2,247.6c-0.7-2.2-1.3-4.3-1.9-6.2V216l8.2-35c-19.2-28.1-46,0-46,0c-29.5-26.1-44.6,0-44.6,0
	c2.1,4.8,6.9,35,6.9,35v29c-10.9,22.9-14.2,48.3-12.7,73.8l5.1,87.4c0,0,49.4,19.2,90.6,0l4.1-73.3
	C636.6,304.1,633.3,275.3,625.2,247.6z"/>
<g class="st3">
	<path d="M596.2,181.7c0,0,9.7-10.2,21.7-12.2c-10.9-3.5-21.7,3-27.5,7.6C592.4,178.4,594.4,180,596.2,181.7z"/>
	<path d="M550.9,406.8l-5.1-87.4c-1.5-25.5,1.8-50.9,12.7-73.8v-29c0,0-4.8-30.2-6.9-35c0,0,5.5-9.5,16.4-11.3
		c-17.7-4.9-26.7,10.6-26.7,10.6c2.1,4.8,6.9,35,6.9,35v29c-10.9,22.9-14.2,48.3-12.7,73.8l5.1,87.4c14.5,5.1,29.7,8,45,8.5
		C573.8,413.4,562.2,410.7,550.9,406.8z"/>
</g>
<g class="st3">
	<path d="M575.6,181c1.5-1.5,3.2-3,4.9-4.3c-10-7.2-18.1-8.2-24.3-6.7C561.8,171.2,568.2,174.4,575.6,181z"/>
	<path d="M625.6,247.6c-0.7-2.2-1.3-4.3-1.9-6.2V216l8.2-35c-8.1-11.9-17.5-13.7-25.8-11.9c5.3,1.3,10.6,4.8,15.5,11.9l-8.2,35v25.5
		c0.6,1.9,1.3,4,1.9,6.2c8.1,27.6,11.4,56.4,9.7,85.2l-4.1,73.3c-12,5.6-24.7,7.9-36.7,8.4c14.8,0.6,31.5-1.2,47-8.4l4.2-73.2
		C637,304.1,633.7,275.2,625.6,247.6z"/>
</g>
</svg>
