<svg id="_8fc77738-ee79-4216-bfe1-e1f5c470859a" data-name="8fc77738-ee79-4216-bfe1-e1f5c470859a" xmlns="http://www.w3.org/2000/svg" xmlns:xlink="http://www.w3.org/1999/xlink" viewBox="0 0 1254.09 986.79"><defs><style>.cls-1{fill:#dda2a6;}.cls-2{fill:#e99a40;opacity:0.37;}.cls-15,.cls-18,.cls-2,.cls-20,.cls-27,.cls-3,.cls-33,.cls-38,.cls-39,.cls-43,.cls-45,.cls-51,.cls-69,.cls-8,.cls-83,.cls-86{isolation:isolate;}.cls-13,.cls-15,.cls-3,.cls-38,.cls-39,.cls-61,.cls-75{fill:#289a40;}.cls-20,.cls-3,.cls-34,.cls-69{opacity:0.1;}.cls-4{fill:#f3f4f5;stroke:#000;}.cls-16,.cls-4,.cls-6,.cls-70,.cls-77{stroke-miterlimit:10;}.cls-4,.cls-6{stroke-width:0.5px;}.cls-5{fill:#e4e4e4;}.cls-16,.cls-6,.cls-77{fill:none;}.cls-6{stroke:#b8b9ba;}.cls-7{fill:#b8b9ba;}.cls-8{fill:#202121;}.cls-11,.cls-12,.cls-25,.cls-33,.cls-57,.cls-60,.cls-76,.cls-8{opacity:0.5;}.cls-27,.cls-43,.cls-51,.cls-9{fill:#fff;}.cls-10,.cls-11{fill:#f6f7f9;}.cls-14,.cls-15{opacity:0.2;}.cls-16,.cls-70{stroke:#289a40;}.cls-17{fill:#3acc6c;}.cls-18,.cls-19,.cls-21{fill:#000056;}.cls-18,.cls-59,.cls-63,.cls-64{opacity:0.7;}.cls-19{opacity:0.85;}.cls-22{fill:#556cac;opacity:0.82;}.cls-23,.cls-24,.cls-26,.cls-55,.cls-59,.cls-78{fill:#ffc835;}.cls-23{opacity:0.56;}.cls-24,.cls-56{opacity:0.78;}.cls-25{font-size:21.14px;}.cls-25,.cls-26,.cls-57,.cls-59,.cls-60,.cls-76,.cls-78{font-family:CenturyGothic, Century Gothic;}.cls-26{font-size:53.01px;}.cls-27{opacity:0.4;}.cls-28{opacity:0.7;}.cls-29{fill:url(#linear-gradient);}.cls-30{fill:#eee;}.cls-31{fill:url(#linear-gradient-2);}.cls-32,.cls-62{fill:#535461;}.cls-33,.cls-36,.cls-63{fill:#26b53b;}.cls-35{fill:url(#linear-gradient-3);}.cls-37{fill:#e0e0e0;}.cls-38,.cls-67,.cls-73{opacity:0.15;}.cls-39{opacity:0.1;}.cls-40{fill:url(#linear-gradient-4);}.cls-41{fill:#ecb4b6;}.cls-42{fill:#c17174;}.cls-43{opacity:0.25;}.cls-44{fill:#ff748e;}.cls-45,.cls-48{fill:#eaccc0;}.cls-46{fill:#5e5a6b;}.cls-47{fill:#464353;}.cls-49{fill:#9f9eff;}.cls-50{fill:#b77b7f;}.cls-51{opacity:0.3;}.cls-52{fill:#dce0ed;}.cls-53,.cls-54{fill:#65617d;}.cls-53{opacity:0.38;}.cls-54{opacity:0.29;}.cls-56{fill:#ffa710;}.cls-57{font-size:43.1px;}.cls-58{fill:#f29e03;}.cls-59{font-size:84.91px;}.cls-60{font-size:26.15px;}.cls-61{opacity:0.22;}.cls-62{opacity:0.66;}.cls-64{fill:#3f3d56;}.cls-65{fill:url(#linear-gradient-5);}.cls-66,.cls-71{opacity:0.14;}.cls-68,.cls-69,.cls-70,.cls-71,.cls-72,.cls-73{fill:#86a3a6;}.cls-72{opacity:0.2;}.cls-74,.cls-75{opacity:0.72;}.cls-74{fill:url(#linear-gradient-6);}.cls-76{font-size:3.56px;}.cls-77{stroke:#353535;stroke-opacity:0.73;}.cls-78{font-size:12.2px;}.cls-79{fill:url(#linear-gradient-7);}.cls-80{fill:#d8bbb5;}.cls-81{fill:url(#linear-gradient-8);}.cls-82{fill:#6c63ff;}.cls-83,.cls-86{opacity:0.2;}.cls-84{fill:url(#linear-gradient-9);}.cls-85{fill:#ffcc80;}.cls-86{fill:#a5bf99;}</style><linearGradient id="linear-gradient" x1="235.07" y1="578.3" x2="235.07" y2="720.92" gradientTransform="matrix(1, 0, 0, -1, -44.93, 1362.45)" gradientUnits="userSpaceOnUse"><stop offset="0" stop-color="gray" stop-opacity="0.25"/><stop offset="0.54" stop-color="gray" stop-opacity="0.12"/><stop offset="1" stop-color="gray" stop-opacity="0.1"/></linearGradient><linearGradient id="linear-gradient-2" x1="235.49" y1="579.9" x2="235.49" y2="727.33" xlink:href="#linear-gradient"/><linearGradient id="linear-gradient-3" x1="237.68" y1="713.63" x2="237.68" y2="774.66" xlink:href="#linear-gradient"/><linearGradient id="linear-gradient-4" x1="1009.4" y1="533.64" x2="1009.4" y2="1004.63" gradientTransform="translate(2248.18 1346.84) rotate(180) scale(1.11 1.04)" xlink:href="#linear-gradient"/><linearGradient id="linear-gradient-5" x1="-72.87" y1="441.38" x2="-72.87" y2="485.45" gradientTransform="matrix(-4.15, 0, 0, 3.89, 873.29, -1682.79)" gradientUnits="userSpaceOnUse"><stop offset="0" stop-color="#6b809c"/><stop offset="0.7" stop-color="#5068b0"/><stop offset="1" stop-color="#5068b0"/></linearGradient><linearGradient id="linear-gradient-6" x1="936.57" y1="1224.04" x2="936.57" y2="1236.94" gradientTransform="translate(2210.24 1371.25) rotate(180) scale(1.11 1.04)" xlink:href="#linear-gradient"/><linearGradient id="linear-gradient-7" x1="734.14" y1="389.95" x2="734.14" y2="475.28" xlink:href="#linear-gradient"/><linearGradient id="linear-gradient-8" x1="821.49" y1="423.82" x2="999.91" y2="423.82" gradientTransform="matrix(1, 0, 0, -1, -185.78, 1296.98)" xlink:href="#linear-gradient"/><linearGradient id="linear-gradient-9" x1="758.6" y1="514.77" x2="758.6" y2="546.86" xlink:href="#linear-gradient"/></defs><polygon class="cls-1" points="926.73 677.25 910.36 700.51 925.57 715.06 941.14 693.33 926.73 677.25"/><ellipse class="cls-2" cx="579.56" cy="411.2" rx="235.46" ry="25.29"/><ellipse class="cls-3" cx="180.29" cy="791.24" rx="180.29" ry="18.89"/><path class="cls-4" d="M811.38,387.18c0,21.2-10.4,32-30.84,32H675.67c-20.44,0-30.84-10.8-30.84-32V124.77c0-21.2,10.4-32,30.84-32H780.54c20.44,0,30.84,10.8,30.84,32Z" transform="translate(-44.93 -17.84)"/><ellipse class="cls-5" cx="683.68" cy="378.94" rx="12.34" ry="12.8"/><path class="cls-6" d="M732.55,398.67a2.15,2.15,0,0,1-2.11,2.19H726.8a2.15,2.15,0,0,1-2.11-2.19v-3.78a2.16,2.16,0,0,1,2.11-2.2h3.64a2.16,2.16,0,0,1,2.11,2.2Z" transform="translate(-44.93 -17.84)"/><path class="cls-7" d="M747.64,116.77a3.67,3.67,0,0,1-3.6,3.73H712.17a3.66,3.66,0,0,1-3.59-3.73h0a3.66,3.66,0,0,1,3.59-3.73H744a3.67,3.67,0,0,1,3.6,3.73Z" transform="translate(-44.93 -17.84)"/><rect class="cls-8" x="607.61" y="115.73" width="150.3" height="13.07"/><ellipse class="cls-9" cx="735.41" cy="121.87" rx="3.21" ry="3.33"/><ellipse class="cls-9" cx="615.31" cy="121.87" rx="3.21" ry="3.33"/><ellipse class="cls-9" cx="750.07" cy="121.87" rx="3.21" ry="3.33"/><rect class="cls-10" x="607.61" y="128.8" width="151.61" height="214.25"/><rect class="cls-11" x="608.16" y="126.83" width="150.5" height="11.1"/><g class="cls-12"><rect class="cls-13" x="634.57" y="151.26" width="97.13" height="4.07"/></g><rect class="cls-13" x="718.8" y="151.26" width="12.91" height="4.07"/><g class="cls-14"><rect class="cls-15" x="684.5" y="173.66" width="61.13" height="46.9"/></g><path class="cls-16" d="M700,324.64" transform="translate(-44.93 -17.84)"/><path class="cls-17" d="M792.87,236.56a5.25,5.25,0,1,1-5.25-5.6h0A5.44,5.44,0,0,1,792.87,236.56Zm-5.84,3,3.89-4.15a.38.38,0,0,0,0-.51l-.48-.52a.32.32,0,0,0-.47,0h0l-3.17,3.4-1.47-1.58a.33.33,0,0,0-.48,0l-.48.51a.38.38,0,0,0,0,.51h0l2.19,2.35a.33.33,0,0,0,.48,0h0Z" transform="translate(-44.93 -17.84)"/><text class="cls-12" x="-44.93" y="-17.84"/><path class="cls-13" d="M743.84,199.65s-.57-1.59,3.32-1.19,15.06,1.76,19.9.56,7.71-1.57,7.42,0-8.36,5.14-8.36,5.14l-10.46,1.18L748,204l-4.14-2.69Z" transform="translate(-44.93 -17.84)"/><path class="cls-18" d="M774.49,199c-.29,1.58-8.36,5.14-8.36,5.14l-10.46,1.18L748,204l-4.14-2.69,0-1.66a.76.76,0,0,1,.22-.77c.36-.34,1.19-.61,3.1-.42,3.89.4,15.06,1.76,19.9.56,3.93-1,6.57-1.4,7.25-.69A.75.75,0,0,1,774.49,199Z" transform="translate(-44.93 -17.84)"/><path class="cls-19" d="M780.7,223a43.44,43.44,0,0,0-18.55,9,3.74,3.74,0,0,0-1.48-1.93,5,5,0,0,0-1.5-.69c-.48-.13-.95.19-1.37.65a8.57,8.57,0,0,0-1.22,2c-7.35-5.54-18.51-9.08-18.51-9.08v-1.1a6.25,6.25,0,0,1,.08-.78c0-.3.08-.56.14-.89,1-5.28,4.69-17.35,4.69-17.35h4.23l8.2,1.87,9.22-.62,9.29-2.12,1.21-.28c2,1.73,4.29,13.85,5.18,19,.12.65.21,1.19.27,1.59S780.7,223,780.7,223Z" transform="translate(-44.93 -17.84)"/><path class="cls-13" d="M739.6,220.7c.24-5.07,3.92-16.06,4.54-17.89H743s-4,12.81-4.77,17.81v0l-.06.39c0,.29-.06.56-.07.78v1.1s11.15,3.54,18.5,9.07a8.76,8.76,0,0,1,1.23-2C755,227.22,744.34,222.65,739.6,220.7Z" transform="translate(-44.93 -17.84)"/><path class="cls-13" d="M780.58,222.25c0-.17-.06-.38-.1-.6s-.1-.62-.17-1h0c-.89-5.16-3.17-17.28-5.18-19l-1.21.28c.74,2.15,5.45,16.23,5.05,19-7.88,1.73-15.88,7.36-18.29,9.15a3.74,3.74,0,0,1,1.48,1.93,43.38,43.38,0,0,1,18.55-9S780.66,222.72,780.58,222.25Z" transform="translate(-44.93 -17.84)"/><path class="cls-20" d="M739.89,220.38c.24-5.07,3.92-16.06,4.54-17.88h-1.16s-4,12.8-4.77,17.8v0q0,.21-.06.39c0,.3-.06.56-.07.78v1.11s11.15,3.53,18.5,9.07a8.51,8.51,0,0,1,1.22-2C755.28,226.91,744.63,222.33,739.89,220.38Z" transform="translate(-44.93 -17.84)"/><path class="cls-21" d="M739.6,220.7c.24-5.07,3.92-16.06,4.54-17.89H743s-4,12.81-4.77,17.81v0l-.06.39c0,.29-.06.56-.07.78v1.1s11.15,3.54,18.5,9.07a8.76,8.76,0,0,1,1.23-2C755,227.22,744.34,222.65,739.6,220.7Z" transform="translate(-44.93 -17.84)"/><path class="cls-20" d="M780.3,221.94l-.11-.61c-.05-.29-.1-.62-.16-1h0c-.9-5.16-3.18-17.27-5.19-19l-1.2.28c.73,2.16,5.45,16.24,5.05,19-7.89,1.73-15.88,7.35-18.3,9.14a3.71,3.71,0,0,1,1.48,1.94,43.15,43.15,0,0,1,18.55-9S780.37,222.41,780.3,221.94Z" transform="translate(-44.93 -17.84)"/><path class="cls-21" d="M780.58,222.25c0-.17-.06-.38-.1-.6s-.1-.62-.17-1h0c-.89-5.16-3.17-17.28-5.18-19l-1.21.28c.74,2.15,5.45,16.23,5.05,19-7.88,1.73-15.88,7.36-18.29,9.15a3.74,3.74,0,0,1,1.48,1.93,43.38,43.38,0,0,1,18.55-9S780.66,222.72,780.58,222.25Z" transform="translate(-44.93 -17.84)"/><path class="cls-20" d="M742.34,209.07s7.32,5.05,9-2.35l1.63.48s.53,8.2-11.14,3.52Z" transform="translate(-44.93 -17.84)"/><path class="cls-21" d="M742.34,208.44s7.32,5.05,9-2.35l1.63.48s.53,8.2-11.14,3.52Z" transform="translate(-44.93 -17.84)"/><path class="cls-20" d="M765.37,207s.94,6,11,3.12l-.36-1.14s-6.84,3.11-9.32-2.3Z" transform="translate(-44.93 -17.84)"/><path class="cls-21" d="M765.37,206.33s.94,6,11,3.11L776,208.3s-6.84,3.12-9.32-2.29Z" transform="translate(-44.93 -17.84)"/><path class="cls-20" d="M758.69,206.88V219.5h1.78s2.46-1,2.4-6.64a39.28,39.28,0,0,0-.43-7.2Z" transform="translate(-44.93 -17.84)"/><path class="cls-21" d="M758.4,206.57v12.62h1.78s2.46-1,2.41-6.65a39.73,39.73,0,0,0-.44-7.2Z" transform="translate(-44.93 -17.84)"/><path class="cls-20" d="M775.12,202.3c-.73,1.48-7.31,3.91-8.47,4.33l-.18.06s-.42.12-1.11.28c-2.12.48-6.85,1.38-10.41.6l-1.6-.35-1.26-.3c-4.1-1-8.34-2.31-9.1-3.46,0,0,.21-3.77.9-3.67s8.4,3.67,8.4,3.67h.11l1.28.17c2.51.3,7.78.78,10.62,0l.39-.13.67-.26c3.65-1.42,9.12-4,9.12-4A2.83,2.83,0,0,1,775.12,202.3Z" transform="translate(-44.93 -17.84)"/><path class="cls-20" d="M774.49,199c-.29,1.58-8.36,5.14-8.36,5.14l-10.46,1.18L748,204l-4.14-2.69,0-1.66a.76.76,0,0,1,.22-.77c1.38.46,8.2,3.61,8.2,3.61l.11,0,1.29.17c2.5.3,7.78.78,10.62-.05l.38-.14c.22-.07.44-.16.67-.25,3.3-1.29,8.09-3.49,9-3.9A.76.76,0,0,1,774.49,199Z" transform="translate(-44.93 -17.84)"/><path class="cls-21" d="M775.12,201.66c-.73,1.48-7.31,3.91-8.47,4.33l-.18.07-1.11.27c-2.12.48-6.85,1.38-10.41.59l-1.6-.34-1.26-.3c-4.1-1-8.34-2.31-9.1-3.46,0,0,.21-3.77.9-3.66s8.4,3.66,8.4,3.66h.11c.2,0,.65.1,1.28.17,2.51.3,7.78.78,10.62-.05l.39-.13.67-.26c3.65-1.42,9.12-4,9.12-4A2.84,2.84,0,0,1,775.12,201.66Z" transform="translate(-44.93 -17.84)"/><ellipse class="cls-20" cx="715.01" cy="187.82" rx="1.15" ry="1.27"/><ellipse class="cls-22" cx="715.01" cy="187.5" rx="1.15" ry="1.27"/><path class="cls-20" d="M754,203l-.32,3.57-1.26-.3.32-3.44C752.87,202.85,753.33,202.92,754,203Z" transform="translate(-44.93 -17.84)"/><path class="cls-22" d="M753.67,203l-.31,3.57-1.26-.3.31-3.44C752.59,202.85,753,202.92,753.67,203Z" transform="translate(-44.93 -17.84)"/><path class="cls-20" d="M766.36,206l-.17.07s-.41.11-1.11.27L764,202.94l.39-.13c.21-.08.44-.16.67-.26Z" transform="translate(-44.93 -17.84)"/><path class="cls-22" d="M766.66,206l-.18.07-1.11.27-1.08-3.39.38-.13c.22-.08.44-.16.67-.26Z" transform="translate(-44.93 -17.84)"/><path class="cls-23" d="M687,250.47l84.56,5c2.89.17,5.11,2.94,5,6.19l-2.55,54.57c-.15,3.25-2.62,5.75-5.51,5.58l-84.55-5c-2.89-.17-5.11-2.95-5-6.2l2.56-54.57C681.61,252.8,684.07,250.3,687,250.47Z" transform="translate(-44.93 -17.84)"/><polygon class="cls-24" points="636.41 248.24 731.06 253.03 730.58 265.2 635.93 260.41 636.41 248.24"/><text class="cls-25" transform="matrix(0.89, 0.03, -0.03, 1, 663.29, 285.58)">180,-</text><text class="cls-26" transform="matrix(0.86, 0.03, -0.03, 1, 626.62, 224.67)">+</text><rect class="cls-27" x="157.7" y="569.74" width="56.71" height="13.23"/><rect class="cls-27" x="107.98" y="564.64" width="56.71" height="13.23"/><rect class="cls-27" x="107.98" y="590.55" width="56.71" height="13.23"/><rect class="cls-27" x="107.98" y="616.46" width="56.71" height="13.23"/><rect class="cls-27" x="107.98" y="642.37" width="56.71" height="13.23"/><g class="cls-28"><rect class="cls-29" x="65.08" y="641.53" width="250.13" height="142.62"/></g><rect class="cls-30" x="69.36" y="643.11" width="243.21" height="139.42"/><g class="cls-28"><polygon class="cls-31" points="281.81 782.54 99.3 782.54 99.3 636.46 191.35 635.12 281.81 636.46 281.81 782.54"/></g><polygon class="cls-9" points="279.78 782.54 102.15 782.54 102.15 636.46 190.97 595.13 279.78 636.46 279.78 782.54"/><rect class="cls-32" x="168.56" y="733.49" width="44.82" height="49.05"/><rect class="cls-33" x="149.82" y="658.32" width="82.29" height="33.59"/><rect class="cls-32" x="144.93" y="688.97" width="92.07" height="5.87"/><g class="cls-34"><rect x="149.82" y="658.32" width="82.29" height="13.32"/></g><g class="cls-28"><polygon class="cls-35" points="291.71 648.82 191.22 597.96 93.95 648.78 86.32 642.53 191.1 587.79 299.19 642.49 291.71 648.82"/></g><polygon class="cls-36" points="291.71 649.35 191.22 598.49 93.95 649.31 86.32 643.06 191.1 588.31 299.19 643.03 291.71 649.35"/><ellipse class="cls-37" cx="206.86" cy="758.02" rx="3.25" ry="2.13"/><path class="cls-38" d="M1248.62,210.86a99.44,99.44,0,0,0-12.68-22.54c-4.78-6.24-10.53-11.7-17.16-15.24a35.86,35.86,0,0,0-17.67-4.29c-5,11.4-8.67,22.62-9.77,30.78-1.25,9.15.39,14.18.41,21.57s-2.25,19.09-8.52,31.81a82.56,82.56,0,0,1-18.59,25.12c-4.37,3.84-9.45,8-14,17a48,48,0,0,0-4.29,12.18c.05.34.1.69.17,1a7.18,7.18,0,0,0,2.46,4.43c1.68,1.26,4,1.36,6.29.88a27.89,27.89,0,0,0,3.86-1.13q6.41-4.17,12.62-8.63c7.21-5.13,14.34-10.33,21.18-15.88s13.32-11.19,19.84-16.91c12.79-11.24,25.51-22.61,39.44-32.69,1.3-.94,2.62-1.87,3.93-2.8A134.82,134.82,0,0,0,1248.62,210.86Z" transform="translate(-44.93 -17.84)"/><path class="cls-38" d="M1147.38,151.48c9.1-7.7,10.24-20.12,7.63-31.82s-8.53-23.24-12.26-34.91A96.19,96.19,0,0,1,1138,55.46c0-13.79,4.2-28.24,18.09-34.69,15.48-7.18,40.76-.61,52.16,13.56,5.81,7.2,8,15.42,12.28,23.1s12,15.67,21.94,17.36c9.23,1.57,17.08-2.8,22.32-8,4.06-4,8.58-9,15.72-8,6.91,1,11.6,7.17,14,12.59,7.87,17.69,5.21,36.67-7,49.75-4.34,4.66-9.81,8.61-13.39,13.72-9.4,13.43-4.22,31.75-3.66,48.35a79.6,79.6,0,0,1-8.94,39.79c-3.82,7.29-9.1,14.28-17.7,18.06-6.19,2.72-13.68,3.59-21.07,4.34q-11.8,1.17-23.74,2a64.89,64.89,0,0,1-14.6-.12c-9-1.37-17.41-6.1-24.41-11.53-16.65-12.89-27.18-30.6-28.2-47.43s7.51-32.45,22.79-41.85" transform="translate(-44.93 -17.84)"/><path class="cls-13" d="M1067.59,561.54s1.46-3.65-8.41-2.74-38.2,4.06-50.45,1.3-19.55-3.64-18.83,0S1011.1,572,1011.1,572l26.51,2.74,19.56-3.11,10.5-6.21Z" transform="translate(-44.93 -17.84)"/><path class="cls-18" d="M989.88,560.1c.74,3.64,21.2,11.86,21.2,11.86l26.51,2.74,19.55-3.1,10.49-6.21-.07-3.84a1.59,1.59,0,0,0-.56-1.77c-.9-.8-3-1.42-7.84-1-9.88.91-38.2,4.05-50.46,1.29-10-2.24-16.68-3.24-18.39-1.6A1.59,1.59,0,0,0,989.88,560.1Z" transform="translate(-44.93 -17.84)"/><path class="cls-19" d="M974.13,615.46a114.54,114.54,0,0,1,47,20.83,8.76,8.76,0,0,1,3.75-4.45,13.29,13.29,0,0,1,3.81-1.6c1.22-.31,2.4.43,3.48,1.5a19.93,19.93,0,0,1,3.09,4.58c18.65-12.79,46.92-21,46.92-21v-2.56a13.3,13.3,0,0,0-.18-1.8c-.1-.69-.22-1.3-.37-2-2.4-12.2-11.88-40.09-11.88-40.09h-10.73l-20.79,4.32-23.39-1.43-23.56-4.9-3-.64c-5.1,4-10.88,32-13.15,43.9-.29,1.51-.51,2.76-.68,3.68S974.13,615.46,974.13,615.46Z" transform="translate(-44.93 -17.84)"/><path class="cls-13" d="M1078.34,610.18c-.61-11.72-9.92-37.11-11.5-41.32h2.94s10,29.59,12.08,41.13a.14.14,0,0,1,0,.09c.06.31.11.62.15.9.1.69.16,1.3.19,1.8v2.56s-28.28,8.17-46.92,21a19.45,19.45,0,0,0-3.1-4.58C1039.31,625.24,1066.33,614.69,1078.34,610.18Z" transform="translate(-44.93 -17.84)"/><path class="cls-13" d="M974.43,613.77c.07-.4.16-.88.26-1.39q.18-1,.42-2.28h0c2.27-11.93,8-39.93,13.15-43.9l3,.64c-1.85,5-13.81,37.51-12.79,43.86,20,4,40.25,17,46.38,21.14a8.71,8.71,0,0,0-3.75,4.45,114.58,114.58,0,0,0-47-20.83S974.23,614.85,974.43,613.77Z" transform="translate(-44.93 -17.84)"/><path class="cls-20" d="M1077.61,609.44c-.61-11.71-9.93-37.1-11.5-41.31h2.94s10,29.59,12.08,41.13v.08c.06.32.11.63.15.92.09.68.16,1.29.18,1.8v2.55s-28.27,8.17-46.92,21a19.37,19.37,0,0,0-3.08-4.58C1038.58,624.53,1065.6,614,1077.61,609.44Z" transform="translate(-44.93 -17.84)"/><path class="cls-21" d="M1078.34,610.18c-.61-11.72-9.92-37.11-11.5-41.32h2.94s10,29.59,12.08,41.13a.14.14,0,0,1,0,.09c.06.31.11.62.15.9.1.69.16,1.3.19,1.8v2.56s-28.28,8.17-46.92,21a19.45,19.45,0,0,0-3.1-4.58C1039.31,625.24,1066.33,614.69,1078.34,610.18Z" transform="translate(-44.93 -17.84)"/><path class="cls-20" d="M975.16,613l.25-1.4c.13-.67.27-1.42.43-2.28h0c2.26-11.92,8-39.92,13.14-43.9l3,.65c-1.85,5-13.81,37.51-12.79,43.86,20,4,40.26,17,46.38,21.13a8.73,8.73,0,0,0-3.75,4.46,114.41,114.41,0,0,0-47-20.83S975,614.13,975.16,613Z" transform="translate(-44.93 -17.84)"/><path class="cls-21" d="M974.43,613.77c.07-.4.16-.88.26-1.39q.18-1,.42-2.28h0c2.27-11.93,8-39.93,13.15-43.9l3,.64c-1.85,5-13.81,37.51-12.79,43.86,20,4,40.25,17,46.38,21.14a8.71,8.71,0,0,0-3.75,4.45,114.58,114.58,0,0,0-47-20.83S974.23,614.85,974.43,613.77Z" transform="translate(-44.93 -17.84)"/><path class="cls-20" d="M1071.39,583.32s-18.55,11.67-22.88-5.43l-4.13,1.11s-1.36,18.94,28.25,8.13Z" transform="translate(-44.93 -17.84)"/><path class="cls-21" d="M1071.39,581.85s-18.55,11.68-22.88-5.42l-4.13,1.1s-1.36,19,28.25,8.14Z" transform="translate(-44.93 -17.84)"/><path class="cls-20" d="M1013,578.45s-2.4,14-27.83,7.19l.9-2.64s17.36,7.2,23.65-5.3Z" transform="translate(-44.93 -17.84)"/><path class="cls-21" d="M1013,577s-2.4,14-27.83,7.2l.9-2.64s17.36,7.2,23.65-5.3Z" transform="translate(-44.93 -17.84)"/><path class="cls-20" d="M1029.94,578.26v29.16h-4.51s-6.24-2.25-6.1-15.36,1.1-16.63,1.1-16.63Z" transform="translate(-44.93 -17.84)"/><path class="cls-21" d="M1030.66,577.53v29.16h-4.51s-6.23-2.25-6.09-15.35,1.1-16.64,1.1-16.64Z" transform="translate(-44.93 -17.84)"/><path class="cls-20" d="M988.28,567.67c1.84,3.42,18.54,9,21.49,10l.45.14s1,.27,2.82.64c5.37,1.12,17.35,3.2,26.39,1.38,1.31-.26,2.67-.54,4-.8l3.2-.7c10.4-2.31,21.15-5.33,23.07-8,0,0-.52-8.7-2.28-8.46s-21.3,8.46-21.3,8.46l-.28,0-3.25.39c-6.35.69-19.73,1.8-26.93-.13-.34-.1-.66-.19-1-.3-.54-.19-1.11-.38-1.69-.6-9.26-3.27-23.13-9.14-23.13-9.14S986.25,563.9,988.28,567.67Z" transform="translate(-44.93 -17.84)"/><path class="cls-20" d="M989.88,560.1c.74,3.64,21.2,11.86,21.2,11.86l26.51,2.74,19.55-3.1,10.49-6.21-.07-3.84a1.59,1.59,0,0,0-.56-1.77c-3.48,1.06-20.79,8.34-20.79,8.34l-.28,0c-.5.07-1.65.21-3.25.39-6.35.7-19.73,1.8-26.93-.12l-1-.31c-.54-.17-1.11-.37-1.69-.59-8.37-3-20.52-8-22.77-9A1.61,1.61,0,0,0,989.88,560.1Z" transform="translate(-44.93 -17.84)"/><path class="cls-21" d="M988.28,566.2c1.84,3.42,18.54,9,21.49,10l.45.15s1,.26,2.82.63c5.37,1.12,17.35,3.2,26.39,1.38,1.31-.26,2.67-.54,4-.8l3.2-.7c10.4-2.31,21.15-5.33,23.07-8,0,0-.52-8.7-2.28-8.46s-21.3,8.46-21.3,8.46l-.28,0c-.5.06-1.65.21-3.25.39-6.35.69-19.73,1.8-26.93-.13-.34-.1-.66-.19-1-.3-.54-.18-1.11-.38-1.69-.6-9.26-3.27-23.13-9.14-23.13-9.14S986.25,562.45,988.28,566.2Z" transform="translate(-44.93 -17.84)"/><circle class="cls-20" cx="981.84" cy="557.59" r="2.93"/><circle class="cls-22" cx="981.84" cy="556.86" r="2.93"/><path class="cls-20" d="M1041.94,569.27l.8,8.25,3.2-.7-.8-8C1044.69,569,1043.54,569.11,1041.94,569.27Z" transform="translate(-44.93 -17.84)"/><path class="cls-22" d="M1042.66,569.27l.8,8.25,3.2-.7-.8-8C1045.42,569,1044.26,569.11,1042.66,569.27Z" transform="translate(-44.93 -17.84)"/><path class="cls-20" d="M1010.48,576.2l.45.15s1.05.26,2.82.63l2.73-7.83c-.35-.09-.67-.19-1-.3l-1.69-.59Z" transform="translate(-44.93 -17.84)"/><path class="cls-22" d="M1009.74,576.2l.45.15s1.06.26,2.83.63l2.72-7.83c-.34-.09-.66-.19-1-.3-.55-.18-1.12-.38-1.7-.59Z" transform="translate(-44.93 -17.84)"/><ellipse class="cls-39" cx="1086.06" cy="755.17" rx="144.76" ry="28.32"/><ellipse class="cls-3" cx="676.79" cy="968.38" rx="178.03" ry="18.41"/><path class="cls-40" d="M1018.38,403.88l-.06-.07.1-.08h0l.58-.38-.12.09a1.9,1.9,0,0,1,2.52.55l.23.33h0l13,18.65,2.26,3.32c6.83-2.06,17.94,6.6,23.56,11.58.35.3.68.59,1,.87.45-1,.71-1.64.71-1.64.28,3,11.05,7.63,13.57,9.29a9.07,9.07,0,0,0,3.75,1.26c-.36-11.6,8.61-23.8,8.61-23.8l21.91-27.9a24.56,24.56,0,0,0-2.24-14.8c-.18-.36-.36-.73-.56-1.07H1107a24.51,24.51,0,0,1,1.38,7.29c-.06,1.89-1.81,11-4.27,10.67a1.35,1.35,0,0,1-1.26-.6c-2-2.28-2.13-6.17-2-9.76a19.72,19.72,0,0,0,.35,3.15c-.16-3,.18-6.15.18-8.4,0-.9,0-1.78-.06-2.68h-.27v0h-.28a29.47,29.47,0,0,1-13.38-6.21,7.21,7.21,0,0,1-5-2.36,4.93,4.93,0,0,0,1,4.57c-2.93-.14-5.41-2.42-6.54-5.1a17.83,17.83,0,0,1-.84-8.54,58.52,58.52,0,0,0,.63-8.67,31.18,31.18,0,0,1-.25-4.73,8.74,8.74,0,0,1,.25-1.43h-.08a2.12,2.12,0,0,1-1.53-.59c-1.21-.94-1.61-2.78-1.92-4.19a35.73,35.73,0,0,1-1.13-9.93c.07,1,.19,2,.34,3.05-.26-3.84.27-7.57,2.81-10.36,1.75-1.91,4.19-3,6.54-4.15a4.9,4.9,0,0,0,2.13-1.52,6.25,6.25,0,0,0,.66-2.65c.82-5.61,6.1-9.52,11.36-11.73,6.76-2.95,14.93-4.21,21.38-.71,3.2,1.7,5.65,4.35,8.53,6.52,3.61,2.74,7.76,4.66,11.61,7.05s7.47,5.42,9.36,9.54c2.82,6.4.7,13.66.35,20.6-.57,10.94,3.93,22.41,12.85,28.81a11.58,11.58,0,0,1,2.83,2.44,3.06,3.06,0,0,1,.23,3.49c-.46.6-1.18.94-1.68,1.51-1,1.15-.82,2.91-.42,4.38a27.41,27.41,0,0,0,7.46,12.65c-.16,1.14-1.55,1.58-2.69,1.75a61.89,61.89,0,0,1-9.12.67h-1.31c.14.35.28.72.43,1.12,1.66,4.35,3.8,11.05,3.09,15.15-1.07,6.46-4.48,36-2.8,41.21s-2.71,42.78-2.71,42.78-.58,2.91-1.6,7.24c2.64,6.21,5.64,13.1,7.15,15.86,3,5.54,1.53,33.81-8.91,46.38,0,0-4.26,6.1-3.2,8.31s-.19,6.11-.19,6.11l-1.65,36.58a92.9,92.9,0,0,0,.77,11.18c4.45,5.52,11.32,13.56,14.55,14.87,5,2,42.31,47.31,42.31,47.31s-.3.55-.89,1.43l1.07,1.22,7.16,8.3.56.65c1.35-.26,10.29-1.88,17.39-2.39h.7v-.13a26.64,26.64,0,0,1,7.46.2,2.43,2.43,0,0,1,1.24.64c2.42,3,3.72,49.53,3.72,49.53s-2.58,23.31-10.66,24.61a4,4,0,0,1-1.28.24h-.35a11.14,11.14,0,0,1-9.6-6,9.43,9.43,0,0,1-.8-2.13s.94-4.15-1.58-9.88-7.22-15.81-7.22-15.81-8.53-9-7-13.33c-.23-.35-.51-.73-.81-1.17-3.2-4.57-9.68-13.58-14.93-19.6a14.44,14.44,0,0,0-1.06-1.15,26.29,26.29,0,0,1-6,1.71s-8-3.13-11-10.15c-1.27-3-6.25-8.28-11.55-13.37l.17,1.35.18,44.54a32.45,32.45,0,0,1-5.48,3v1.06a145,145,0,0,0,1.15,19l.16,1c.67-.47,1.24-.63,1.6-.27,1.65,1.66,2.67,12.29,2.77,17.19v.49c.26,4.88,3,12-5.34,12.35-6.27.27-33.3.68-47.76.89a32.11,32.11,0,0,1-21.33-7.57c-4.6-3.93-7.38-8.62-1.12-12.06a13,13,0,0,1,1.24-.62l13.86-2.14,23.69-12.09s.13-7.32,3-6.11a8.19,8.19,0,0,1,2.4.95c.14-.26.29-.55.43-.85a27.25,27.25,0,0,0,2.92-12.33,9.4,9.4,0,0,0,0-1.18,23.36,23.36,0,0,1-2-2s.19-16.64-1.68-19.77-7.65-34.94-7.65-34.94-.18-5.91-3.91-9.42-2.42-13.67-2.42-13.67-5.23-2.78-6.9-11.83-7.09-28.8-7.09-28.8-11.19-29.2-10.45-47.67-1.07-28.09-1.07-28.09L1084,498.9v-.66c-.92.71-1.55,1.28-1.55,1.28v-.47l-.54.47s-1.19-19.48-.79-27.2c-6.52-2.22-16.46-5.87-17.06-7.73-.83-2.76-12-11.5-12-11.5a1.81,1.81,0,0,0,.68-.26c-.35-.16-.71-.35-1.06-.55-7.34-3.93-21-15.41-18.68-22.41L1018,408.44A3.65,3.65,0,0,1,1018.38,403.88Z" transform="translate(-44.93 -17.84)"/><path class="cls-41" d="M1053.11,455.65a10,10,0,0,0,3.57,1.36c4.66.13,8.54-12.49,8.54-12.49s-1.33-1.34-3.44-3.2c-6.25-5.56-19.35-15.82-25.5-10.08C1029.35,437.65,1045,451.31,1053.11,455.65Z" transform="translate(-44.93 -17.84)"/><path class="cls-41" d="M1124,756.66l17.2,18.57s15.91.19,12.79-8.59a32.77,32.77,0,0,1-1.32-5.85,144.18,144.18,0,0,1-1.12-18.8c0-4.12.07-7,.07-7s-25-11-22.49.46a22,22,0,0,1,.51,4.35,27.29,27.29,0,0,1-2.86,12.22A28,28,0,0,1,1124,756.66Z" transform="translate(-44.93 -17.84)"/><path class="cls-20" d="M1124,756.66l17.2,18.57s15.91.19,12.79-8.59a32.77,32.77,0,0,1-1.32-5.85c-2.27,1.76-5.53,6.94-5.53,6.94s-11,3.21-14-6.4c-1.69-5.33-4.36-8-6.4-9.32A29,29,0,0,1,1124,756.66Z" transform="translate(-44.93 -17.84)"/><path class="cls-42" d="M1084.05,784.63A31.22,31.22,0,0,0,1105,792.1c14.19-.2,40.69-.62,46.84-.87,8.24-.36,5.51-7.4,5.24-12.24v-.48c-.1-4.85-1.07-15.37-2.71-17s-7.26,7.32-7.26,7.32-11,3.2-14-6.4-9.15-10.53-9.15-10.53c-2.79-1.21-2.93,6-2.93,6l-23.22,12L1084.18,772c-.44.21-.83.41-1.21.61C1076.81,776.1,1079.54,780.73,1084.05,784.63Z" transform="translate(-44.93 -17.84)"/><circle class="cls-43" cx="1082.03" cy="747.32" r="1"/><circle class="cls-43" cx="1072.61" cy="752" r="1"/><circle class="cls-43" cx="1067.76" cy="754.16" r="1"/><circle class="cls-43" cx="1057.71" cy="758.02" r="1"/><circle class="cls-43" cx="1062.83" cy="756.38" r="1"/><path class="cls-42" d="M1084.05,784.63A31.22,31.22,0,0,0,1105,792.1c14.19-.2,40.69-.62,46.84-.87,8.24-.36,5.51-7.4,5.24-12.24l-51.69,3.2s-21.17-3.2-22.4-9.52C1076.81,776.1,1079.54,780.73,1084.05,784.63Z" transform="translate(-44.93 -17.84)"/><path class="cls-43" d="M1084.05,784.63A31.22,31.22,0,0,0,1105,792.1c14.19-.2,40.69-.62,46.84-.87,8.24-.36,5.51-7.4,5.24-12.24l-51.69,3.2s-21.17-3.2-22.4-9.52C1076.81,776.1,1079.54,780.73,1084.05,784.63Z" transform="translate(-44.93 -17.84)"/><path class="cls-41" d="M1180.27,710a36,36,0,0,1,5.19,5.21c5.13,5.95,11.47,14.94,14.62,19.4,1.21,1.75,2,2.85,2,2.85l6.87-1s7.4-11.34,7.3-11.61-5.86-12.45-5.86-12.45l-2.23-2.61-7-8.22-3.2-3.71S1174.08,705.52,1180.27,710Z" transform="translate(-44.93 -17.84)"/><path class="cls-20" d="M1200.08,734.63c1.21,1.75,2,2.85,2,2.85l6.87-1s7.4-11.34,7.3-11.61-5.86-12.47-5.86-12.47l-2.23-2.61-.73.14h-1.75c6.14,6.4-.44,20.48-.44,20.48S1202.35,730.66,1200.08,734.63Z" transform="translate(-44.93 -17.84)"/><path class="cls-42" d="M1207.75,749s4.57,9.88,7,15.55,1.55,9.79,1.55,9.79a10.07,10.07,0,0,0,.78,2.13,10.76,10.76,0,0,0,9.36,5.93h.45c8.34-.21,11-24.43,11-24.43s-1.28-46.1-3.66-49.08a2.34,2.34,0,0,0-1.21-.64,25.44,25.44,0,0,0-7.34-.2c-7.54.54-17.24,2.4-17.24,2.4h-1.74c6.14,6.4-.44,20.5-.44,20.5s-2.94.26-5.22,4.38S1207.75,749,1207.75,749Z" transform="translate(-44.93 -17.84)"/><circle class="cls-43" cx="1172.88" cy="717.41" r="1"/><circle class="cls-43" cx="1173.39" cy="725.4" r="1"/><path class="cls-42" d="M1217.8,776.24a10.8,10.8,0,0,0,9.37,5.93h.43c8.34-.21,11-24.43,11-24.43s-1.28-46.1-3.66-49.08a2.28,2.28,0,0,0-1.2-.64,25.51,25.51,0,0,0-7.35-.2c.14,8.29.53,34.48,0,37.08S1221.13,769.29,1217.8,776.24Z" transform="translate(-44.93 -17.84)"/><path class="cls-43" d="M1217.8,776.24a10.8,10.8,0,0,0,9.37,5.93h.43c8.34-.21,11-24.43,11-24.43s-1.28-46.1-3.66-49.08a2.28,2.28,0,0,0-1.2-.64,25.51,25.51,0,0,0-7.35-.2c.14,8.29.53,34.48,0,37.08S1221.13,769.29,1217.8,776.24Z" transform="translate(-44.93 -17.84)"/><path class="cls-42" d="M1227.61,782.19c8.34-.21,11-24.43,11-24.43s-1.28-46.1-3.66-49.08a2.35,2.35,0,0,0-1.2-.64c-1.75,2.6-3.29,8.37-1.9,21,2.6,24-.54,25.53-.54,25.53S1227.4,775,1227.61,782.19Z" transform="translate(-44.93 -17.84)"/><path class="cls-20" d="M1227.61,782.19c8.34-.21,11-24.43,11-24.43s-1.28-46.1-3.66-49.08a2.35,2.35,0,0,0-1.2-.64c-1.75,2.6-3.29,8.37-1.9,21,2.6,24-.54,25.53-.54,25.53S1227.4,775,1227.61,782.19Z" transform="translate(-44.93 -17.84)"/><path class="cls-20" d="M1053.11,455.65a10,10,0,0,0,3.57,1.36c4.66.13,8.54-12.49,8.54-12.49s-1.33-1.34-3.44-3.2C1060.26,444.74,1056.06,453.94,1053.11,455.65Z" transform="translate(-44.93 -17.84)"/><path class="cls-44" d="M1083,451.11s-3.83.27-6.3-1.37-13-6.18-13.31-9.2c0,0-6.3,15.37-9.87,15.92,0,0,11,8.64,11.79,11.39s22.23,9.47,22.23,9.47Z" transform="translate(-44.93 -17.84)"/><path class="cls-45" d="M1083,451.11s-3.83.27-6.3-1.37-13-6.18-13.31-9.2c0,0-6.3,15.37-9.87,15.92,0,0,11,8.64,11.79,11.39s22.23,9.47,22.23,9.47Z" transform="translate(-44.93 -17.84)"/><path class="cls-20" d="M1180.27,710a36,36,0,0,1,5.19,5.21c8.27-3.47,13.61-10.55,15.63-13.66l-3.2-3.71S1174.08,705.52,1180.27,710Z" transform="translate(-44.93 -17.84)"/><path class="cls-46" d="M1141.14,632.2s13.41,17.94,18.32,20S1200.93,699,1200.93,699s-7.86,14.46-22.31,16.83c0,0-7.86-3.11-10.79-10.06s-26-26.61-26-26.61Z" transform="translate(-44.93 -17.84)"/><path class="cls-20" d="M1141.14,632.2s13.41,17.94,18.32,20S1200.93,699,1200.93,699s-7.86,14.46-22.31,16.83c0,0-7.86-3.11-10.79-10.06s-26-26.61-26-26.61Z" transform="translate(-44.93 -17.84)"/><path class="cls-20" d="M1181.78,692.22a59.32,59.32,0,0,1-12.21,0C1162.35,691.52,1167.79,695.92,1181.78,692.22Z" transform="translate(-44.93 -17.84)"/><path class="cls-20" d="M1185.07,696.88s-9.59,5.48-13.31,2.74S1175.34,702.27,1185.07,696.88Z" transform="translate(-44.93 -17.84)"/><path class="cls-20" d="M1129.06,735.44a22,22,0,0,1,.52,4.35c7.41,6.73,16.33,4.65,21.91,2.2,0-4.12.07-7,.07-7S1126.5,724,1129.06,735.44Z" transform="translate(-44.93 -17.84)"/><path class="cls-46" d="M1084.63,496.76l.26,5.06,2.28,42.51s1.84,9.52,1.07,27.81,10.28,47.26,10.28,47.26,5.33,19.58,7,28.54,6.77,11.74,6.77,11.74-1.28,10.06,2.37,13.54,3.84,9.32,3.84,9.32,5.68,31.48,7.47,34.59,1.65,19.58,1.65,19.58c11.88,14.08,29.25,1.28,29.25,1.28l-.18-44.1s-4.94-40.61-8.59-46.29-3.66-21.22-3.66-21.22L1146,590.1s1.3-3.84.18-6,3.13-8.22,3.13-8.22c10.24-12.45,11.73-40.45,8.73-45.88s-11.86-27.44-11.86-27.44L1134,495.38l-22.11.65Z" transform="translate(-44.93 -17.84)"/><path class="cls-20" d="M1136.65,712.38s-2.89,10-5.22,11.12S1136.65,712.38,1136.65,712.38Z" transform="translate(-44.93 -17.84)"/><path class="cls-20" d="M1132.67,679s-7.47,5.91-10.67,5.9S1132.67,679,1132.67,679Z" transform="translate(-44.93 -17.84)"/><path class="cls-41" d="M1087.55,431.35v12.07l8-3.43,8-3.43,17.3-17s13.68-8.89,21-17c4.19-4.62,6.29-9,2.61-11.29a22.54,22.54,0,0,1-4.79-4.19A78.88,78.88,0,0,1,1130,373c-.11-.21-.23-.41-.34-.61-3.56-6.54-5.92-12.12-5.92-12.12s-10,3.2-16.46,7.77c-.52.36-1,.73-1.48,1.12-3.6,2.94-5.39,6.4-2.07,9.77a24.4,24.4,0,0,1,2.35,2.82h0a22,22,0,0,1,1.48,2.3c.19.36.38.72.55,1.07a24.6,24.6,0,0,1,2.2,14.65Z" transform="translate(-44.93 -17.84)"/><path class="cls-47" d="M1089,345.2c-.42.73-1,1.35-1.38,2.08a10.2,10.2,0,0,0-.61,5.13,29.13,29.13,0,0,1-.53,8.17c-.56,2.41-1.62,4.74-1.7,7.21-.12,3.49,1.69,6.72,3.44,9.74a7,7,0,0,1-5-2.34,4.89,4.89,0,0,0,.91,4.52c-2.86-.14-5.33-2.4-6.39-5a17.54,17.54,0,0,1-.83-8.53,57.54,57.54,0,0,0,.62-8.59,32,32,0,0,1-.24-4.69c.26-3.1,2.13-5.8,4-8.32l3.71-5.1a2.63,2.63,0,0,1,1.07-1C1089.58,337,1090,343.43,1089,345.2Z" transform="translate(-44.93 -17.84)"/><path class="cls-20" d="M1103.69,378.93a24.48,24.48,0,0,1,2.36,2.82h0a20.39,20.39,0,0,1,1.47,2.3c.19.36.39.72.56,1.07a28.78,28.78,0,0,0,21.55-11.65c.12-.16.23-.32.34-.49l-.34-.61c-3.56-6.54-5.92-12.12-5.92-12.12s-10,3.2-16.47,7.76c-.52.37-1,.74-1.48,1.12C1102.21,372.1,1100.42,375.51,1103.69,378.93Z" transform="translate(-44.93 -17.84)"/><path class="cls-41" d="M1077.69,355.28a28.76,28.76,0,0,0,28.81,28.8h1.06a28.8,28.8,0,1,0-29.86-28.8Z" transform="translate(-44.93 -17.84)"/><path class="cls-20" d="M1102.72,426.5s-14.5,8.19-10.79,1.28l18.93-28h0l-21.49,27.62s-13.71,18.85-6.22,31.84c0,0,1.07,10.79-.18,13.35s.36,29.88.36,29.88,5.13-4.76,7.88-3.85,22.08,2.52,22.08,2.52Z" transform="translate(-44.93 -17.84)"/><path class="cls-20" d="M1084.63,496.76l.26,5.06c1.74-1.26,4.16-2.67,5.77-2.14,2.74.92,22.12,2.57,22.12,2.57l-.89-6.3Z" transform="translate(-44.93 -17.84)"/><path class="cls-48" d="M1102.18,426.5s-14.52,8.19-10.79,1.28l18.93-28h0l-21.49,27.62s-13.72,18.85-6.22,31.84c0,0,1.07,10.79-.18,13.35s.36,29.88.36,29.88,5.12-4.76,7.86-3.85,22.13,2.57,22.13,2.57Z" transform="translate(-44.93 -17.84)"/><path class="cls-20" d="M1094.43,440.53c.84,8.8,4.45,19.27,4.45,19.27s2.56,26,5.88,33.71,1.83,18.29,3.66,37.87c.66,7,2.93,11.9,6,15.16,5,5.34,12.22,6.5,17.9,6.17l1.34-.11c9.15-.91,17.93-45,17.93-45s4.2-37.51,2.56-42.68,1.62-34.36,2.72-40.76c.7-4.07-1.4-10.67-3-15-.95-2.49-1.73-4.26-1.73-4.26s-3.11-9.88-8.23-15a7.57,7.57,0,0,0-5.43-2.29,13.55,13.55,0,0,0-6.77,2.14,1.25,1.25,0,0,0-.24.16s-33.29,34-36.4,41.89C1094.18,434,1094.1,437.14,1094.43,440.53Z" transform="translate(-44.93 -17.84)"/><path class="cls-48" d="M1095.51,440c.86,8.79,4.47,19.26,4.47,19.26s2.56,26,5.86,33.67,1.82,18.3,3.65,37.87c.67,7.05,2.94,11.89,6,15.16,5,5.34,12.22,6.49,17.89,6.17l1.35-.11c9.15-.91,17.92-45,17.92-45s4.21-37.5,2.56-42.62,1.65-34.4,2.74-40.81c.71-4.06-1.39-10.67-3-15-1-2.5-1.73-4.22-1.73-4.22s-3.12-9.88-8.23-15a7.47,7.47,0,0,0-5.43-2.27,13.35,13.35,0,0,0-6.77,2.13l-.24.15s-33.29,34-36.4,41.9C1095.28,433.45,1095.16,436.6,1095.51,440Z" transform="translate(-44.93 -17.84)"/><path class="cls-20" d="M1132.81,573.93s7.55,6.72,10.15,6.4S1132.81,573.93,1132.81,573.93Z" transform="translate(-44.93 -17.84)"/><path class="cls-20" d="M1130.8,580.38s8,3.7,10.34,4.27S1133.87,579.43,1130.8,580.38Z" transform="translate(-44.93 -17.84)"/><path class="cls-20" d="M1100,479.38s-11.79.14-13.57,3.84S1096.23,477.86,1100,479.38Z" transform="translate(-44.93 -17.84)"/><path class="cls-20" d="M1101.68,485.82s-9.06,1.92-11.8,4.12S1101.68,485.82,1101.68,485.82Z" transform="translate(-44.93 -17.84)"/><path class="cls-20" d="M1116.9,463.46s1.06,37.18,5.14,42S1116.9,463.46,1116.9,463.46Z" transform="translate(-44.93 -17.84)"/><path class="cls-20" d="M1055.84,547.89s-11.63,31.58-25.45,25,11.69-37,11.69-37Z" transform="translate(-44.93 -17.84)"/><path class="cls-41" d="M1057.59,547.12s-10.31,32-24.37,26,10.09-37.45,10.09-37.45Z" transform="translate(-44.93 -17.84)"/><path class="cls-20" d="M1077.87,352.1a11,11,0,0,0,1.07-2c2-4.2,7.2-2.13,11-.14l2,2.62a15.86,15.86,0,0,1,2.32,3.57,28,28,0,0,1,1,3.2c.52,1.86,1.29,3.63,2,5.44a63.28,63.28,0,0,1,4,18.82,28.74,28.74,0,0,0,5.23.47h.13V384c-.2-.72-.36-1.46-.51-2.19h0a38,38,0,0,1-.28-12.59v-.28c.14-.93.32-1.87.39-2.8.35.64.69,1.3,1.07,2,2.29,4.26,4.7,8.53,9,10.4a18.55,18.55,0,0,0,5.49,1.24,30.73,30.73,0,0,1,6.87,1.14,4.34,4.34,0,0,1,2,1.2,6,6,0,0,1,1,3,24.75,24.75,0,0,0,1.06,4.17,36.53,36.53,0,0,0,9,13.36l1,1a18.58,18.58,0,0,0,5.93,4.11,18.14,18.14,0,0,0,6.28.94c-.94-2.5-1.72-4.22-1.72-4.22s-3.12-9.88-8.24-15a7.43,7.43,0,0,0-5.42-2.27,80.22,80.22,0,0,1-9.88-14.69,28.8,28.8,0,1,0-51.8-20.27Z" transform="translate(-44.93 -17.84)"/><path class="cls-47" d="M1076,329.62c1.71-1.9,4.11-3,6.4-4.11a4.83,4.83,0,0,0,2.08-1.52,6.35,6.35,0,0,0,.64-2.61c.8-5.57,6-9.42,11.13-11.68,6.64-2.92,14.6-4.16,21-.71,3.09,1.69,5.53,4.32,8.33,6.47,3.54,2.71,7.61,4.61,11.39,7s7.38,5.33,9.17,9.45c2.77,6.29.69,13.52.34,20.39-.54,10.84,3.86,22.16,12.61,28.57a11,11,0,0,1,2.77,2.42,3,3,0,0,1,.22,3.45c-.44.59-1.16.94-1.64,1.49-1,1.14-.8,2.88-.41,4.35a27.31,27.31,0,0,0,7.32,12.52c-.15,1.13-1.51,1.57-2.63,1.74a59.7,59.7,0,0,1-9,.65,15,15,0,0,1-12.51-5.05c-5.33-5-9.84-11.27-11-18.49a6.13,6.13,0,0,0-1-3,4.52,4.52,0,0,0-2-1.2c-4-1.37-8.53-.7-12.36-2.38-5-2.13-7.46-7.47-10.07-12.36-.09.93-.26,1.87-.41,2.81a37.91,37.91,0,0,0,.75,15.07c.71,2.78,1.75,5.55,1.67,8.42,0,2.14-2.22,13.29-5.06,10s-1.81-10.73-1.81-14.86a63.48,63.48,0,0,0-4.19-22.68c-.68-1.8-1.46-3.58-2-5.44a30.13,30.13,0,0,0-1-3.2,16.49,16.49,0,0,0-2.33-3.57l-2-2.62c-3.8-2-9-4.06-11,.14-.77,1.61-1.18,3.39-3.2,1.83-1.18-.93-1.56-2.76-1.87-4.14C1073.1,340.87,1072.05,334,1076,329.62Z" transform="translate(-44.93 -17.84)"/><path class="cls-20" d="M1116.44,419.5c10.53-16.68,36.44-6.42,32.69,12.94a2.57,2.57,0,0,1-.08.4c-2.66,13-20.23,39.8-20.23,39.8s-11.2,18.32-16.51,23.49-20.45,20.08-22.11,23-12.51,11.15-14.88,10.84-6.9,5.3-8,6.14-10.82,14.47-10.82,14.47-17.25-11.45-15.92-14.49,13.66-14.51,13.66-14.51,6.44-3.88,9.49-8.24,6.74-5,8.08-8.46,4.17-3.93,5.36-6,5.81-6.78,5.81-6.78,4.39-.64,5.55-3.77,9.21-6.08,9.14-8.87,2.53-8.05,2.53-8.05,11.58-23.73,14-30.55,1.73-20.55,1.73-20.55Z" transform="translate(-44.93 -17.84)"/><path class="cls-20" d="M1055,519.93c1.29,7.22,6.67,12.13,11.59,15,1.92-1.73,4.41-3.77,5.89-3.49,2.36.45,13.67-7.23,15.47-10s17.77-16.8,23.37-21.67,17.81-22.51,17.81-22.51,19.07-25.77,22.45-38.61a1,1,0,0,0,.09-.38c4.87-19.1-20.45-30.82-31.9-14.77l-.5.76s-.07,13.73-2.88,20.42-15.76,29.7-15.76,29.7-2.9,5.1-3,7.89-8.28,5.3-9.62,8.35-5.76,3.45-5.76,3.45-4.88,4.45-6.19,6.45-4.14,2.31-5.69,5.67-5.29,3.75-8.59,7.92A29.58,29.58,0,0,1,1055,519.93Z" transform="translate(-44.93 -17.84)"/><path class="cls-48" d="M1118.78,420.21c10.74-16.53,36.51-5.93,32.51,13.38l-.09.39c-2.84,13-20.76,39.53-20.76,39.53s-11.44,18.16-16.82,23.26-20.73,19.81-22.42,22.65-12.66,11-15,10.65-7,5.21-8.1,6-11,14.3-11,14.3-17.1-11.67-15.73-14.68,13.84-14.33,13.84-14.33,6.51-3.8,9.62-8.12,6.84-4.86,8.24-8.29,4.23-3.87,5.45-5.92,5.9-6.7,5.9-6.7,4.39-.58,5.6-3.69,9.29-6,9.25-8.76,2.64-8,2.64-8,11.9-23.58,14.45-30.37,2-20.52,2-20.52A4.49,4.49,0,0,1,1118.78,420.21Z" transform="translate(-44.93 -17.84)"/><path class="cls-20" d="M1149.68,480.48c-.55-.56-11-12.08-14.26-8S1149.68,480.48,1149.68,480.48Z" transform="translate(-44.93 -17.84)"/><path class="cls-20" d="M1148.72,489.4c-.41-.42-10.42-.82-12.89-6.4S1148.72,489.4,1148.72,489.4Z" transform="translate(-44.93 -17.84)"/><g class="cls-34"><path d="M1160.13,388.21a2.74,2.74,0,0,0-.54,1,4.26,4.26,0,0,1,.54-3.73c.49-.57,1.2-.9,1.65-1.49l.09-.15a2.83,2.83,0,0,1-.09,2.89C1161.28,387.31,1160.62,387.66,1160.13,388.21Z" transform="translate(-44.93 -17.84)"/><path d="M1146.17,352.67v-3.11c.19-3.74.88-7.57,1.07-11.31.22,4.59-.8,9.4-1.07,14.05C1146.17,352.41,1146.18,352.52,1146.17,352.67Z" transform="translate(-44.93 -17.84)"/><path d="M1103.43,398.49c2.53,3,4.53-5.6,5-9a13.12,13.12,0,0,1,.09,1.77c-.06,2.14-2.22,13.29-5.06,10-1.93-2.26-2.14-6.12-2-9.67C1101.56,394.28,1102,396.8,1103.43,398.49Z" transform="translate(-44.93 -17.84)"/><path d="M1106.07,367.79a35,35,0,0,0-.39,4.33,37.25,37.25,0,0,1,.39-7.08c.14-.93.32-1.87.41-2.81,2.63,4.93,5.07,10.2,10.06,12.37,3.88,1.67,8.39,1,12.36,2.38a4.24,4.24,0,0,1,2,1.2,6,6,0,0,1,1,3c1.22,7.21,5.74,13.48,11.06,18.49a15,15,0,0,0,12.51,5.05,62.21,62.21,0,0,0,8.94-.65,6.33,6.33,0,0,0,1.34-.36c.42.47.85.92,1.3,1.36-.15,1.13-1.52,1.57-2.64,1.74a59.47,59.47,0,0,1-8.94.65,15,15,0,0,1-12.51-5.05c-5.33-5-9.84-11.27-11.06-18.49a6,6,0,0,0-1-3,4.38,4.38,0,0,0-2-1.2c-4-1.37-8.53-.69-12.36-2.38-5-2.13-7.46-7.47-10.06-12.36C1106.39,365.91,1106.21,366.85,1106.07,367.79Z" transform="translate(-44.93 -17.84)"/><path d="M1074.06,343.94c.31,1.39.7,3.21,1.88,4.14,2,1.56,2.41-.21,3.2-1.82,2-4.2,7.2-2.13,11-.14l2,2.62a16.17,16.17,0,0,1,2.31,3.57,25.09,25.09,0,0,1,1,3.2c.53,1.86,1.3,3.63,2,5.43a63.64,63.64,0,0,1,4.18,22.67v1.13a63.73,63.73,0,0,0-4.17-21.05c-.69-1.8-1.46-3.58-2-5.44a26.1,26.1,0,0,0-1-3.2,16.17,16.17,0,0,0-2.31-3.57l-2-2.62c-3.8-2-9-4.06-11,.14-.77,1.61-1.18,3.39-3.19,1.83-1.19-.93-1.58-2.76-1.89-4.14a35.89,35.89,0,0,1-1.07-9.84A45.78,45.78,0,0,0,1074.06,343.94Z" transform="translate(-44.93 -17.84)"/></g><path class="cls-47" d="M1049.11,447.82l-.56.38a2.26,2.26,0,0,0,.63-3.13l0-.07-25.42-36.85a2.26,2.26,0,0,0-3.13-.59l0,0,.57-.4a3.64,3.64,0,0,0-.93,5.06l23.86,34.64A3.64,3.64,0,0,0,1049.11,447.82Z" transform="translate(-44.93 -17.84)"/><path class="cls-49" d="M1020.86,407.32l-.43.3h0l28,40.64h0l.43-.29a1.86,1.86,0,0,0,.48-2.59l-25.88-37.58a1.86,1.86,0,0,0-2.58-.47Z" transform="translate(-44.93 -17.84)"/><rect class="cls-47" x="1024.95" y="412.49" width="0.46" height="4.02" rx="0.18" transform="matrix(0.82, -0.57, 0.57, 0.82, -99.1, 637.08)"/><rect class="cls-27" x="115.51" y="571.65" width="84.55" height="19.33"/><rect class="cls-27" x="49.48" y="598.51" width="38.74" height="14.67"/><rect class="cls-27" x="49.48" y="627.24" width="38.74" height="14.67"/><rect class="cls-27" x="49.48" y="655.97" width="38.74" height="14.67"/><polygon class="cls-1" points="336.68 751.83 325.48 762.17 288.67 761.57 298.79 751.83 336.68 751.83"/><polygon class="cls-50" points="336.43 787.2 336.43 751.83 325.23 762.17 325.23 796.77 336.43 787.2"/><polygon class="cls-1" points="288.67 761.57 288.67 796.77 325.48 796.77 325.48 762.17 288.67 761.57"/><polygon class="cls-51" points="288.67 761.57 288.67 796.77 325.48 796.77 325.48 762.17 288.67 761.57"/><polygon class="cls-52" points="322.49 771.86 295.11 767.46 291.54 784.29 319.73 789.13 322.49 771.86"/><polygon class="cls-13" points="316.51 774.43 298.1 771.72 297.64 773.97 316.05 776.89 316.51 774.43"/><polygon class="cls-13" points="314.83 779.75 298.17 778.78 297.44 780.47 314.83 781.44 314.83 779.75"/><polygon class="cls-53" points="331.9 770.39 331.4 756.47 328.52 759.13 329.03 773.08 331.9 770.39"/><polygon class="cls-54" points="295.09 755.4 330.46 755.84 331.65 756.47 328.77 759.13 327.78 758.58 292.74 757.65 295.09 755.4"/><polygon class="cls-1" points="948.34 686.89 954.09 713.48 979.97 714.04 974.85 689.03 948.34 686.89"/><polygon class="cls-50" points="910.28 745.91 910.28 700.47 926.44 713.75 926.44 758.21 910.28 745.91"/><polygon class="cls-1" points="979.57 712.98 979.57 758.21 926.44 758.21 926.44 713.75 979.57 712.98"/><polygon class="cls-51" points="979.57 712.98 979.57 758.21 926.44 758.21 926.44 713.75 979.57 712.98"/><polygon class="cls-52" points="930.76 726.2 970.27 720.55 975.42 742.17 934.74 748.4 930.76 726.2"/><polygon class="cls-13" points="938.56 731.25 965.12 727.77 965.79 730.66 939.23 734.41 938.56 731.25"/><polygon class="cls-13" points="945.87 737.42 960.98 735.6 961.64 738.8 945.87 740.65 945.87 737.42"/><path class="cls-55" d="M449,285.41l169.11,10.2c5.78.35,10.22,6,9.91,12.63l-5.1,111.28c-.31,6.63-5.24,11.72-11,11.37l-169.11-10.2c-5.77-.35-10.21-6-9.91-12.63L438,296.78C438.25,290.15,443.18,285.06,449,285.41Z" transform="translate(-44.93 -17.84)"/><polygon class="cls-56" points="392.79 299.38 582.1 309.16 581.13 333.98 391.82 324.2 392.79 299.38"/><text class="cls-12" x="-44.93" y="-17.84"/><text class="cls-57" transform="matrix(0.87, 0.03, -0.03, 1, 446.5, 375.43)">180,-</text><path class="cls-58" d="M904.28,910.51l1.14-3.43,9.2-27.67.82-2.43c.23-.68,1-.83,1.83-.35l.07,0a1.75,1.75,0,0,1,.47.43l6.31,7.57a1.62,1.62,0,0,0,2.06.58L974.71,849a1.61,1.61,0,0,1,2.06.57l8.91,10.69c.6.72.65,1.63.11,2l-48.53,36.26c-.53.4-.48,1.31.11,2l6.45,7.74a2,2,0,0,1,.33.53c.35.83.05,1.57-.68,1.67h-.08l-2.7.17L910,912.61l-3.8.25a2.14,2.14,0,0,1-1.9-1.43A1.41,1.41,0,0,1,904.28,910.51Z" transform="translate(-44.93 -17.84)"/><text class="cls-59" transform="matrix(0.89, 0.03, -0.03, 1, 351.39, 267.41)">+</text><text class="cls-60" transform="matrix(0.83, 0.3, -0.3, 0.95, 261.12, 576.07)">RESTORE</text><path class="cls-61" d="M307.13,558.19l107.7,38c3.68,1.3,6.07,4.26,5.33,6.62l-12.38,39.54c-.73,2.35-4.31,3.21-8,1.91l-107.7-38c-3.68-1.3-6.07-4.26-5.33-6.62l12.37-39.54C299.87,557.75,303.45,556.89,307.13,558.19Z" transform="translate(-44.93 -17.84)"/><polygon class="cls-62" points="241.12 613.9 251.17 589.8 252.82 590.58 242.76 614.67 241.12 613.9"/><path class="cls-63" d="M547.72,149.75c-10,.25-18,8.9-18,8.9s8.28,8.24,18.3,8,18-8.9,18-8.9S557.74,149.49,547.72,149.75Z" transform="translate(-44.93 -17.84)"/><path class="cls-63" d="M598.09,109c-9.05,5.12-19.43,1.65-19.43,1.65S583,98.88,592,93.75s19.43-1.65,19.43-1.65S607.15,103.88,598.09,109Z" transform="translate(-44.93 -17.84)"/><path class="cls-64" d="M597.17,103.92c-10-1.09-18.71,6.44-18.71,6.44s7.44,9.29,17.42,10.37,18.72-6.44,18.72-6.44S607.15,105,597.17,103.92Z" transform="translate(-44.93 -17.84)"/><path class="cls-64" d="M560.59,106c.95,11.89-5.33,22.33-5.33,22.33s-7.83-8.83-8.79-20.71,5.33-22.33,5.33-22.33S559.63,94.09,560.59,106Z" transform="translate(-44.93 -17.84)"/><path class="cls-64" d="M513.58,178.86C518.81,189,517,201.7,517,201.7s-10.29-3.84-15.52-14-3.43-22.85-3.43-22.85S508.34,168.68,513.58,178.86Z" transform="translate(-44.93 -17.84)"/><path class="cls-64" d="M528.77,289.54l-.77-.61a32.36,32.36,0,0,0,4.22-15.79c0-8.26-3.42-15.9-6.72-23.28-.61-1.37-1.22-2.74-1.8-4.1a100.34,100.34,0,0,1-5.85-17.49c-5.11-22.61-.08-49.29,13.45-71.36,10.73-17.5,26.73-32.81,48.92-46.8l.43,1c-22.06,13.91-38,29.11-48.61,46.48-13.36,21.81-18.34,48.13-13.3,70.42a98.78,98.78,0,0,0,5.78,17.28c.58,1.36,1.19,2.72,1.8,4.08,3.34,7.51,6.8,15.27,6.82,23.8A33.61,33.61,0,0,1,528.77,289.54Z" transform="translate(-44.93 -17.84)"/><ellipse class="cls-64" cx="579.01" cy="83.29" rx="8.75" ry="10.42"/><path class="cls-63" d="M399.26,336c5.12.17,9.19,5.71,9.19,5.71s-4.23,5.28-9.35,5.12-9.19-5.71-9.19-5.71S394.14,335.87,399.26,336Z" transform="translate(-44.93 -17.84)"/><path class="cls-63" d="M373.51,309.91c4.63,3.28,9.94,1,9.94,1s-2.2-7.55-6.83-10.83-9.93-1.06-9.93-1.06S368.89,306.62,373.51,309.91Z" transform="translate(-44.93 -17.84)"/><path class="cls-64" d="M374,306.64c5.1-.69,9.56,4.13,9.56,4.13s-3.81,6-8.91,6.66-9.56-4.13-9.56-4.13S368.88,307.34,374,306.64Z" transform="translate(-44.93 -17.84)"/><path class="cls-64" d="M392.68,308a32.3,32.3,0,0,0,2.72,14.32A28.49,28.49,0,0,0,399.89,309a32.3,32.3,0,0,0-2.72-14.32A28.49,28.49,0,0,0,392.68,308Z" transform="translate(-44.93 -17.84)"/><path class="cls-64" d="M416.7,354.7C414,361.22,415,369.34,415,369.34a17.74,17.74,0,0,0,7.93-9c2.67-6.53,1.75-14.65,1.75-14.65A17.79,17.79,0,0,0,416.7,354.7Z" transform="translate(-44.93 -17.84)"/><path class="cls-64" d="M408.94,425.67l.39-.39a25.19,25.19,0,0,1-2.16-10.13c0-5.29,1.76-10.19,3.44-14.93.31-.87.62-1.75.92-2.63a75.89,75.89,0,0,0,3-11.21c2.61-14.5,0-31.6-6.87-45.75-5.49-11.23-13.67-21.05-25-30l-.22.63c11.27,8.91,19.39,18.66,24.84,29.8,6.83,14,9.37,30.86,6.8,45.16a76.51,76.51,0,0,1-3,11.07c-.3.88-.61,1.75-.92,2.62-1.71,4.82-3.47,9.79-3.49,15.26A25.86,25.86,0,0,0,408.94,425.67Z" transform="translate(-44.93 -17.84)"/><ellipse class="cls-64" cx="316.72" cy="287.32" rx="4.47" ry="6.68"/><path class="cls-63" d="M853.85,319.12c-6.43.19-11.54,6.49-11.54,6.49s5.31,6,11.74,5.82,11.54-6.49,11.54-6.49S860.28,318.94,853.85,319.12Z" transform="translate(-44.93 -17.84)"/><path class="cls-63" d="M886.17,289.44c-5.81,3.73-12.47,1.2-12.47,1.2s2.76-8.58,8.57-12.32,12.47-1.2,12.47-1.2S892,285.7,886.17,289.44Z" transform="translate(-44.93 -17.84)"/><path class="cls-64" d="M885.58,285.73c-6.4-.79-12,4.69-12,4.69s4.78,6.77,11.18,7.56,12-4.69,12-4.69S892,286.52,885.58,285.73Z" transform="translate(-44.93 -17.84)"/><path class="cls-64" d="M862.11,287.23a33.78,33.78,0,0,1-3.42,16.26,30.54,30.54,0,0,1-5.63-15.09,33.7,33.7,0,0,1,3.41-16.26A30.5,30.5,0,0,1,862.11,287.23Z" transform="translate(-44.93 -17.84)"/><path class="cls-64" d="M832,340.33c3.36,7.42,2.21,16.65,2.21,16.65a21.19,21.19,0,0,1-10-10.22c-3.36-7.42-2.21-16.64-2.21-16.64A21.24,21.24,0,0,1,832,340.33Z" transform="translate(-44.93 -17.84)"/><path class="cls-64" d="M841.7,421l-.49-.45a26.18,26.18,0,0,0,2.7-11.51c0-6-2.19-11.58-4.31-17-.39-1-.78-2-1.16-3a81.51,81.51,0,0,1-3.75-12.74c-3.28-16.48-.05-35.91,8.63-52,6.89-12.76,17.15-23.92,31.38-34.11l.28.71c-14.15,10.13-24.35,21.21-31.18,33.87-8.58,15.89-11.77,35.07-8.54,51.31A79.62,79.62,0,0,0,839,388.72c.37,1,.76,2,1.15,3,2.15,5.46,4.37,11.12,4.38,17.33A27.13,27.13,0,0,1,841.7,421Z" transform="translate(-44.93 -17.84)"/><path class="cls-4" d="M1155.06,234.41c0,15.25,8.14,23,24.14,23h82.08c16,0,24.14-7.76,24.14-23V45.76c0-15.24-8.14-23-24.14-23H1179.2c-16,0-24.14,7.77-24.14,23Z" transform="translate(-44.93 -17.84)"/><ellipse class="cls-5" cx="1174.92" cy="223.48" rx="9.66" ry="9.2"/><path class="cls-7" d="M1205,40a2.75,2.75,0,0,0,2.81,2.68h25a2.75,2.75,0,0,0,2.81-2.68h0a2.75,2.75,0,0,0-2.81-2.68h-25A2.74,2.74,0,0,0,1205,40Z" transform="translate(-44.93 -17.84)"/><rect class="cls-65" x="1116.76" y="34.25" width="117.69" height="171.41"/><rect class="cls-8" x="1116.81" y="34.25" width="117.64" height="9.39"/><ellipse class="cls-9" cx="1134.42" cy="38.66" rx="2.51" ry="2.39"/><ellipse class="cls-9" cx="1228.42" cy="38.66" rx="2.51" ry="2.4"/><ellipse class="cls-9" cx="1122.95" cy="38.66" rx="2.51" ry="2.4"/><rect class="cls-10" x="1116.22" y="50.2" width="118.23" height="155.45"/><g class="cls-66"><rect class="cls-15" x="1176.41" y="162.8" width="47.84" height="33.72"/></g><rect class="cls-11" x="1116.22" y="43.93" width="118.23" height="6.27"/><g class="cls-12"><rect class="cls-13" x="1137.33" y="59.79" width="76.03" height="2.93"/></g><rect class="cls-13" x="1137.33" y="59.79" width="10.1" height="2.93"/><g class="cls-66"><rect class="cls-15" x="1176.41" y="119.63" width="47.84" height="33.72"/></g><g class="cls-66"><rect class="cls-15" x="1176.41" y="75.9" width="47.84" height="33.72"/></g><g class="cls-66"><rect class="cls-15" x="1126.43" y="119.48" width="47.84" height="33.72"/></g><g class="cls-14"><rect class="cls-15" x="1126.43" y="75.9" width="47.84" height="33.72"/></g><g class="cls-66"><rect class="cls-15" x="1126.43" y="162.8" width="47.84" height="33.72"/></g><g class="cls-67"><path class="cls-68" d="M1251,98.31a6.21,6.21,0,0,0-3.15.86,18.29,18.29,0,0,1-4.47,0c-1.57-.35-2.37-1.55-2.67-1.21s-.3,3.58-.3,3.58l1.35,3.57,3.07,2.24,4.86-1.38,1.6-4Z" transform="translate(-44.93 -17.84)"/><path class="cls-69" d="M1240.4,101.54l1.35,3.57,3.07,2.24,4.86-1.37,1.6-4-.3-3.62h-.07a6.55,6.55,0,0,0-3.09.86,17.7,17.7,0,0,1-4.46,0c-1.5-.32-2.28-1.43-2.61-1.24h0l0,0C1240.4,98.31,1240.4,101.54,1240.4,101.54Z" transform="translate(-44.93 -17.84)"/><path class="cls-69" d="M1240.4,101.54l1.35,3.57,3.07,2.24,4.86-1.37,1.6-4-.3-3.62h-.07c-.27,1.14-1.43,4.74-5.1,5s-4.85-4.16-5.07-5.38a.1.1,0,0,0,0,0C1240.4,98.31,1240.4,101.54,1240.4,101.54Z" transform="translate(-44.93 -17.84)"/><path class="cls-68" d="M1251,98.31s-.79,5-5.17,5.33S1240.7,98,1240.7,98s-6.34,2.05-7.82,5.7-2.59,6.57-2.59,6.57.48.82,1,.91a37.91,37.91,0,0,1,4.16,2.54s0,7-.35,7.4-.27,2.29.92,2.2,9.36-1.89,16.36-.39c0,0,2.93,1,2.85-.64S1255,114,1255,114s4.42-1.9,4.68-1.9.92-.34.22-1.46a26.49,26.49,0,0,1-1.57-5A12.34,12.34,0,0,0,1251,98.31Z" transform="translate(-44.93 -17.84)"/><path class="cls-69" d="M1237.38,107.35s-1.32,1-1,1.68S1237.38,107.35,1237.38,107.35Z" transform="translate(-44.93 -17.84)"/><path class="cls-69" d="M1235.45,108.26a2.36,2.36,0,0,1,0,1.29" transform="translate(-44.93 -17.84)"/><path class="cls-69" d="M1234.58,110.63s-.18,1.16.35,1.29" transform="translate(-44.93 -17.84)"/><path class="cls-69" d="M1252.43,107.05s2.45,2.1,1.62,2.93" transform="translate(-44.93 -17.84)"/><path class="cls-69" d="M1254,112.13s0,2.2-.64,2.37" transform="translate(-44.93 -17.84)"/><path class="cls-69" d="M1246.92,119.5a7.79,7.79,0,0,0-2.1-1.08" transform="translate(-44.93 -17.84)"/><path class="cls-69" d="M1245.26,120.66s-1.8-1.25-2.28-1.17" transform="translate(-44.93 -17.84)"/></g><g class="cls-66"><path class="cls-68" d="M1206.22,140.69s-14.32.67-21.44.26l.15,1.85,12.6,1.63,3.73-1.13Z" transform="translate(-44.93 -17.84)"/><path class="cls-69" d="M1184.77,141l.16,1.85,12.59,1.63,3.73-1.13,5-2.61-.82,0h0c-3.11.13-14.29.56-20.44.23Z" transform="translate(-44.93 -17.84)"/><path class="cls-68" d="M1179.81,167.23c2.77,1.63,12.37.05,12.37.05l2.66-9.33,3,9.49c4.23,1.49,12.94-.67,12.94-.67l-3.39-20.53-.59-2.83-.55-2.72-5.38,1.59s-1.61,1.08-8.34.77-7.72-2.1-7.72-2.1c-.3.09-.58,1.12-.86,2.4-.42,1.86-.84,4.26-1.33,5.05C1181.74,149.73,1179.81,167.23,1179.81,167.23Z" transform="translate(-44.93 -17.84)"/><path class="cls-69" d="M1183.91,143.55a24.94,24.94,0,0,0,11.16,3.15c1.28.15,11.7-3.09,11.7-3.09l-.55-2.71-5.38,1.59s-1.61,1.08-8.34.77-7.72-2.1-7.72-2.1C1184.47,141.24,1184.19,142.27,1183.91,143.55Z" transform="translate(-44.93 -17.84)"/><path class="cls-69" d="M1184.77,141l.16,1.85,12.59,1.63,3.73-1.13,5-2.61-.82,0h0l-4.55,1.35s-1.62,1.08-8.35.77c-5.29-.23-7-1.4-7.54-1.89Z" transform="translate(-44.93 -17.84)"/><path class="cls-68" d="M1183.91,143.34a24.94,24.94,0,0,0,11.16,3.15c1.28.16,11.7-3.08,11.7-3.08l-.55-2.72-5.38,1.59s-1.61,1.08-8.34.77-7.72-2.1-7.72-2.1C1184.47,141,1184.19,142.06,1183.91,143.34Z" transform="translate(-44.93 -17.84)"/><ellipse class="cls-69" cx="1149.12" cy="127.62" rx="0.55" ry="0.54"/><ellipse class="cls-70" cx="1149.12" cy="127.42" rx="0.55" ry="0.54"/><path class="cls-69" d="M1208.06,154.91s-1,2.82-1.64,2.77S1208.06,154.91,1208.06,154.91Z" transform="translate(-44.93 -17.84)"/><path class="cls-69" d="M1208.69,157.68s-.6,1.7-1.23,2" transform="translate(-44.93 -17.84)"/><path class="cls-69" d="M1208.69,159.45a7.76,7.76,0,0,1-1.51,1.47" transform="translate(-44.93 -17.84)"/><path class="cls-69" d="M1183.21,148.78s-.88,1.31,0,1.59" transform="translate(-44.93 -17.84)"/><path class="cls-69" d="M1182.81,150.91c1-1.21.39,1.63.39,1.63S1182.55,151.21,1182.81,150.91Z" transform="translate(-44.93 -17.84)"/><path class="cls-69" d="M1182.29,152.37s1.57,2.28,1.25,2.54" transform="translate(-44.93 -17.84)"/><path class="cls-69" d="M1203,148.83a11.53,11.53,0,0,0,4-.91l-.08-.19s-3.87,1.66-6,.43a2.89,2.89,0,0,1-1.3-2.45l-.21,0a3,3,0,0,0,1.41,2.6A4.15,4.15,0,0,0,1203,148.83Z" transform="translate(-44.93 -17.84)"/><path class="cls-68" d="M1203,148.62a11.62,11.62,0,0,0,4-.9l-.08-.19s-3.87,1.65-6,.42a2.86,2.86,0,0,1-1.3-2.45l-.21,0a3.08,3.08,0,0,0,1.41,2.61A4,4,0,0,0,1203,148.62Z" transform="translate(-44.93 -17.84)"/><path class="cls-69" d="M1187.25,149a3.33,3.33,0,0,0,1.42-.3,3.6,3.6,0,0,0,1.82-2.62l-.21,0a3.44,3.44,0,0,1-1.7,2.47c-1.3.61-3.14.23-5.46-1.17l-.11.17A8.69,8.69,0,0,0,1187.25,149Z" transform="translate(-44.93 -17.84)"/><path class="cls-68" d="M1187.25,148.78a3.34,3.34,0,0,0,1.42-.31,3.58,3.58,0,0,0,1.82-2.62l-.21,0a3.43,3.43,0,0,1-1.7,2.46c-1.3.61-3.14.23-5.46-1.17l-.11.18A8.8,8.8,0,0,0,1187.25,148.78Z" transform="translate(-44.93 -17.84)"/></g><path class="cls-71" d="M1251.31,141.1s.91-.1.44,1-1.35,4.77-.92,5.53.22,2.8,2.12,3.2l-.55,2.11a48.29,48.29,0,0,0,.11,5.35,28.2,28.2,0,0,1,.19,4.85c-.08.39,0,3,.25,3.09a1,1,0,0,1-.47,1.57c-1,.22-5,.33-5.73.54a52.51,52.51,0,0,1-5.91,0s-2.19-.28-2.74-.46-.66-.61-.47-1.44a55.47,55.47,0,0,0,.84-7.57c-.19-.76-.22-8.12-.22-8.12a2.07,2.07,0,0,0,1.42-1.83c0-1.36.55-5-.59-7.32,0,0,.92-.62,1.06-.51a6,6,0,0,0,1.53-.28s.71,6.24,3.68,6.28,4.31-6.28,4.31-6.28S1249.63,140.24,1251.31,141.1Z" transform="translate(-44.93 -17.84)"/><path class="cls-20" d="M1246.9,160.93s-.62,1.47-1.64,1.69S1246.9,160.93,1246.9,160.93Z" transform="translate(-44.93 -17.84)"/><path class="cls-20" d="M1247.85,162.08s-2,1.58-1.9,1.9" transform="translate(-44.93 -17.84)"/><path class="cls-20" d="M1251.82,152.74s-1.57,1-1.57,1.8" transform="translate(-44.93 -17.84)"/><path class="cls-20" d="M1250.77,156a8.27,8.27,0,0,1,.72-1.83" transform="translate(-44.93 -17.84)"/><path class="cls-20" d="M1251.49,156.59a13.25,13.25,0,0,0-.72,1.65" transform="translate(-44.93 -17.84)"/><path class="cls-20" d="M1238.76,154s2,.61,1.86,1.36" transform="translate(-44.93 -17.84)"/><path class="cls-20" d="M1240.63,160.93s-2.67-3.05-1.87-3S1240.63,160.93,1240.63,160.93Z" transform="translate(-44.93 -17.84)"/><g class="cls-34"><path d="M1239.56,148.72c0-.63.12-1.75.13-3,0,1.43-.13,2.75-.13,3.46a2,2,0,0,1-1.42,1.83v-.47A2.07,2.07,0,0,0,1239.56,148.72Z" transform="translate(-44.93 -17.84)"/><path d="M1237.53,166.71c0,.12,0,.25-.07.37a2.18,2.18,0,0,1,.07-.84c.15-.7.79-5.19.86-7A67.13,67.13,0,0,1,1237.53,166.71Z" transform="translate(-44.93 -17.84)"/><path d="M1252.62,162.06a20.92,20.92,0,0,0-.21-3.5,19.82,19.82,0,0,1-.14-3.17,16,16,0,0,0,.14,2.7A24.64,24.64,0,0,1,1252.62,162.06Z" transform="translate(-44.93 -17.84)"/><path d="M1251.2,141.36c-1.67-.86-1.64-.28-1.64-.28s-1.31,6.32-4.3,6.28-3.7-6.28-3.7-6.28a6.05,6.05,0,0,1-1.53.28c-.15-.11-.63.24-.9.4-.05-.12-.1-.24-.16-.36s.91-.61,1.06-.5a6,6,0,0,0,1.53-.29s.71,6.25,3.69,6.28,4.3-6.28,4.3-6.28,0-.57,1.64.29c0,0,.74-.09.54.72C1251.61,141.32,1251.2,141.36,1251.2,141.36Z" transform="translate(-44.93 -17.84)"/><path d="M1252.85,166.5c-.24-.09-.31-1.69-.29-2.57,0,.89.09,2,.29,2.1s.28.47.21.85C1253,166.68,1252.94,166.53,1252.85,166.5Z" transform="translate(-44.93 -17.84)"/><path d="M1250.73,147.9a1.86,1.86,0,0,1-.11-1,1.17,1.17,0,0,0,.11.49c.44.76.22,2.8,2.12,3.2l-.12.44C1251,150.61,1251.16,148.64,1250.73,147.9Z" transform="translate(-44.93 -17.84)"/></g><path class="cls-72" d="M1240.19,184.78c.89,1,10,0,10,0l0-.1-.18-.79h-9.59l-.18.79Z" transform="translate(-44.93 -17.84)"/><path class="cls-20" d="M1240.19,184.79c.89,1.61,10,0,10,0l0-.16c-.44,0-7-.15-10,0Z" transform="translate(-44.93 -17.84)"/><path class="cls-73" d="M1250.19,184.79h0s1.63.4,4.16,7.15a73.19,73.19,0,0,1,3.42,15.45s1.43,2.37-4.65,2.53c0,0,.49,1.57-2.93,1.33a17.21,17.21,0,0,1-2.94-.24s-2.2-1.36-3.18-1.12a5.19,5.19,0,0,0-2.65,1.2c-1.06.88-4.45.52-4.49-.16a5.57,5.57,0,0,1,0-1s-5.19.32-4.21-3.38,1.8-9.75,1.8-9.75,2.65-11.84,5.67-12S1250.19,184.79,1250.19,184.79Z" transform="translate(-44.93 -17.84)"/><polygon class="cls-20" points="1208.27 192.09 1206.35 171.61 1206.18 171.63 1208.1 192.1 1208.27 192.09"/><rect class="cls-20" x="1247.13" y="189.44" width="0.16" height="21.56" transform="translate(-45.7 -12.97) rotate(-0.22)"/><path class="cls-16" d="M1242.23,189.45" transform="translate(-44.93 -17.84)"/><polygon class="cls-20" points="1197.37 171.6 1197.2 171.59 1196.39 193.23 1196.55 193.24 1197.37 171.6"/><path class="cls-20" d="M1237,209.93a101.28,101.28,0,0,1,2.44-20.85l-.16,0a102.35,102.35,0,0,0-2.45,20.89Z" transform="translate(-44.93 -17.84)"/><path class="cls-20" d="M1249.9,186s.29.16,0,.93" transform="translate(-44.93 -17.84)"/><path class="cls-20" d="M1249.08,186s.78.48,0,1.28" transform="translate(-44.93 -17.84)"/><path class="cls-20" d="M1241.82,186s-1.06,1-.82,1.28" transform="translate(-44.93 -17.84)"/><path class="cls-20" d="M1241,185.76s-.17,1.2-.78,1.52" transform="translate(-44.93 -17.84)"/><g class="cls-67"><path class="cls-68" d="M1197.65,183.83s-4-1.57-5.73.35,1.18,4.24,1.18,4.24l1.23,2.4,2.88-.31.67-3.32Z" transform="translate(-44.93 -17.84)"/><path class="cls-69" d="M1193.1,188.41l1.23,2.4,2.88-.3.67-3.32-.23-3.36-.07,0c-.5-.19-3.93-1.36-5.57.26l-.1.09C1190.19,186.07,1193.1,188.41,1193.1,188.41Z" transform="translate(-44.93 -17.84)"/><path class="cls-69" d="M1193.1,188.41l1.23,2.4,2.88-.3.67-3.32-.23-3.36-.07,0a6.36,6.36,0,0,1-2,4l0,0-.82-.07a6.91,6.91,0,0,1-2.68-3.67l-.1.1C1190.19,186.07,1193.1,188.41,1193.1,188.41Z" transform="translate(-44.93 -17.84)"/><path class="cls-68" d="M1186.11,197.56s.88,11.05.64,12.39.51,1.43.51,1.43,3.2.7,3.8.24a3.63,3.63,0,0,1,1.63-.56,8.69,8.69,0,0,0,3.43.14,8,8,0,0,1,2.82-.24s1.35.8,1.73.64.85-.1,1.93-.4,1.7-.57,1.12-2.41-.07-7.65,0-8.35a33.59,33.59,0,0,1,.85-4.43c.47-2-.82-1.61-.82-1.61-3-1.53-1.76-4.54-1.29-5.87s-.27-1.4-.64-1.4-1.8-1.21-1.8-1.21l-.58-.51-1.76-1.56a6.71,6.71,0,0,1-2.1,4.33l0,0-.81-.07c-2-1.07-2.78-4-2.78-4a5.13,5.13,0,0,1-1.36,1.27,22.8,22.8,0,0,1-2.41,1.47c-1.42.84-.38,1.67-.38,1.67,1.74,5.81-.71,6.07-.71,6.07C1185.26,194.91,1186.11,197.56,1186.11,197.56Z" transform="translate(-44.93 -17.84)"/><path class="cls-69" d="M1199.45,187.14s.51.27.51.56" transform="translate(-44.93 -17.84)"/><path class="cls-69" d="M1199.15,187.7s.67.7.56.91" transform="translate(-44.93 -17.84)"/><path class="cls-69" d="M1199.15,188.61s.51.53.3.84" transform="translate(-44.93 -17.84)"/><path class="cls-69" d="M1195.75,188.58l2.13,2a9.12,9.12,0,0,1,1.74-4.82l-1.77-1.56A6.62,6.62,0,0,1,1195.75,188.58Z" transform="translate(-44.93 -17.84)"/><path class="cls-68" d="M1195.55,188.18l2.13,2a9.18,9.18,0,0,1,1.73-4.82l-1.76-1.56A6.72,6.72,0,0,1,1195.55,188.18Z" transform="translate(-44.93 -17.84)"/><path class="cls-69" d="M1190.36,185.84c.85,1.31,2.44,4.77,2.44,4.77l1.7-2.07c-2-1.07-2.79-4-2.79-4A5.23,5.23,0,0,1,1190.36,185.84Z" transform="translate(-44.93 -17.84)"/><path class="cls-68" d="M1190.57,185.43c.85,1.32,2.44,4.78,2.44,4.78l1.69-2.07c-2-1.06-2.78-4-2.78-4A5.56,5.56,0,0,1,1190.57,185.43Z" transform="translate(-44.93 -17.84)"/><path class="cls-69" d="M1191.81,206.84a21.18,21.18,0,0,0,.57,3.21" transform="translate(-44.93 -17.84)"/><path class="cls-69" d="M1188.83,207.38a11,11,0,0,0-.24,2.67" transform="translate(-44.93 -17.84)"/><path class="cls-69" d="M1197.52,207.51s.37,2,0,2.27" transform="translate(-44.93 -17.84)"/><path class="cls-69" d="M1199.72,207.21a25.26,25.26,0,0,1,.24,2.84" transform="translate(-44.93 -17.84)"/><path class="cls-69" d="M1188.32,195.49s1,.73.88.93" transform="translate(-44.93 -17.84)"/><path class="cls-69" d="M1187.64,196s1.82,1.5.91,1.33S1187.64,196,1187.64,196Z" transform="translate(-44.93 -17.84)"/></g><path class="cls-17" d="M1169.55,126.13a4.1,4.1,0,1,0,4.1-4h0A4.05,4.05,0,0,0,1169.55,126.13Zm4.57,2.13-3-3a.27.27,0,0,1,0-.37l.37-.36a.26.26,0,0,1,.37,0h0l2.48,2.43,1.16-1.13a.27.27,0,0,1,.37,0l.38.37a.25.25,0,0,1,0,.36h0l-1.72,1.68a.26.26,0,0,1-.37,0Z" transform="translate(-44.93 -17.84)"/><path class="cls-74" d="M1163.73,85.27H1180a.84.84,0,0,1,.74.91h0v11.6a.83.83,0,0,1-.74.9h-16.3a.84.84,0,0,1-.75-.9h0V86.18a.85.85,0,0,1,.75-.91Z" transform="translate(-44.93 -17.84)"/><path class="cls-75" d="M1179.56,85.27H1163a1.11,1.11,0,0,0-1,1.18V97.38a1.1,1.1,0,0,0,1,1.17h16.57a1.1,1.1,0,0,0,1-1.17V86.45A1.11,1.11,0,0,0,1179.56,85.27Z" transform="translate(-44.93 -17.84)"/><rect class="cls-75" x="1117.03" y="69.42" width="18.63" height="3.41"/><text class="cls-12" x="-44.93" y="-17.84"/><text class="cls-76" transform="matrix(-0.87, 0, 0, 1, 1131.93, 76.74)">90-190,-</text><path class="cls-77" d="M1172,98.27c0,1.89,3.85,3.42,8.61,3.42" transform="translate(-44.93 -17.84)"/><path class="cls-13" d="M1207.92,99.59s.45-1.14-2.59-.85-11.8,1.26-15.58.4-6-1.13-5.81,0,6.54,3.69,6.54,3.69l8.19.86,6-1,3.24-1.94Z" transform="translate(-44.93 -17.84)"/><path class="cls-18" d="M1183.93,99.14c.23,1.13,6.55,3.69,6.55,3.69l8.18.86,6-1,3.24-1.93,0-1.2a.49.49,0,0,0-.17-.55c-.28-.25-.93-.44-2.42-.3-3,.28-11.79,1.26-15.58.4-3.08-.7-5.15-1-5.67-.5A.49.49,0,0,0,1183.93,99.14Z" transform="translate(-44.93 -17.84)"/><path class="cls-19" d="M1179.07,116.37a35.18,35.18,0,0,1,14.52,6.48,2.71,2.71,0,0,1,1.16-1.38,3.9,3.9,0,0,1,1.17-.5,1.17,1.17,0,0,1,1.08.47,6,6,0,0,1,1,1.42c5.76-4,14.49-6.52,14.49-6.52v-.8a4.69,4.69,0,0,0-.06-.56c0-.21-.07-.4-.12-.63-.74-3.8-3.66-12.48-3.66-12.48h-3.31l-6.42,1.35-7.22-.45-7.27-1.52-1-.2c-1.57,1.24-3.36,10-4.06,13.66-.08.47-.15.86-.21,1.14S1179.07,116.37,1179.07,116.37Z" transform="translate(-44.93 -17.84)"/><path class="cls-13" d="M1211.24,114.72c-.19-3.64-3.06-11.54-3.55-12.85h.91s3.1,9.2,3.73,12.8v0c0,.1,0,.2,0,.29s.05.4.06.56v.79s-8.73,2.55-14.48,6.52a6.12,6.12,0,0,0-1-1.42C1199.19,119.41,1207.53,116.13,1211.24,114.72Z" transform="translate(-44.93 -17.84)"/><path class="cls-13" d="M1179.16,115.84c0-.12,0-.27.08-.43s.08-.45.13-.71h0c.7-3.71,2.49-12.42,4.06-13.66l1,.2c-.58,1.55-4.27,11.67-4,13.65,6.17,1.24,12.42,5.28,14.31,6.58a2.65,2.65,0,0,0-1.15,1.38,35.24,35.24,0,0,0-14.52-6.48S1179.1,116.18,1179.16,115.84Z" transform="translate(-44.93 -17.84)"/><path class="cls-20" d="M1211,114.5c-.18-3.65-3.06-11.55-3.55-12.86h.91s3.1,9.21,3.73,12.8v0c0,.1,0,.19.05.28a4.13,4.13,0,0,1,0,.56v.8s-8.72,2.54-14.48,6.52a6.24,6.24,0,0,0-1-1.43C1199,119.19,1207.31,115.9,1211,114.5Z" transform="translate(-44.93 -17.84)"/><path class="cls-21" d="M1211.24,114.72c-.19-3.64-3.06-11.54-3.55-12.85h.91s3.1,9.2,3.73,12.8v0c0,.1,0,.2,0,.29s.05.4.06.56v.79s-8.73,2.55-14.48,6.52a6.12,6.12,0,0,0-1-1.42C1199.19,119.41,1207.53,116.13,1211.24,114.72Z" transform="translate(-44.93 -17.84)"/><path class="cls-20" d="M1179.39,115.62l.08-.44.13-.71h0c.7-3.71,2.48-12.42,4.06-13.66l.94.2c-.58,1.55-4.27,11.67-3.95,13.65,6.17,1.24,12.43,5.29,14.32,6.58a2.61,2.61,0,0,0-1.16,1.39,35.07,35.07,0,0,0-14.52-6.49S1179.33,116,1179.39,115.62Z" transform="translate(-44.93 -17.84)"/><path class="cls-21" d="M1179.16,115.84c0-.12,0-.27.08-.43s.08-.45.13-.71h0c.7-3.71,2.49-12.42,4.06-13.66l1,.2c-.58,1.55-4.27,11.67-4,13.65,6.17,1.24,12.42,5.28,14.31,6.58a2.65,2.65,0,0,0-1.15,1.38,35.24,35.24,0,0,0-14.52-6.48S1179.1,116.18,1179.16,115.84Z" transform="translate(-44.93 -17.84)"/><path class="cls-20" d="M1209.1,106.37s-5.73,3.63-7.07-1.69l-1.27.34s-.42,5.9,8.72,2.53Z" transform="translate(-44.93 -17.84)"/><path class="cls-21" d="M1209.1,105.91s-5.73,3.63-7.07-1.69l-1.27.35s-.42,5.89,8.72,2.53Z" transform="translate(-44.93 -17.84)"/><path class="cls-20" d="M1191.07,104.85s-.74,4.35-8.58,2.24l.27-.82s5.36,2.24,7.31-1.65Z" transform="translate(-44.93 -17.84)"/><path class="cls-21" d="M1191.07,104.4s-.74,4.34-8.58,2.23l.27-.82s5.36,2.24,7.31-1.65Z" transform="translate(-44.93 -17.84)"/><path class="cls-20" d="M1196.3,104.79v9.08h-1.39s-1.93-.7-1.89-4.78a27.09,27.09,0,0,1,.34-5.18Z" transform="translate(-44.93 -17.84)"/><path class="cls-21" d="M1196.52,104.57v9.07h-1.39s-1.92-.7-1.88-4.78a25.71,25.71,0,0,1,.34-5.17Z" transform="translate(-44.93 -17.84)"/><path class="cls-20" d="M1183.44,101.5c.57,1.06,5.72,2.81,6.63,3.11l.14,0,.87.2c1.66.34,5.36,1,8.15.42l1.25-.25,1-.21c3.21-.72,6.53-1.66,7.12-2.49,0,0-.16-2.7-.7-2.63s-6.58,2.63-6.58,2.63h-.09l-1,.12c-2,.22-6.09.56-8.31,0l-.3-.09-.53-.18c-2.86-1-7.14-2.85-7.14-2.85A1.92,1.92,0,0,0,1183.44,101.5Z" transform="translate(-44.93 -17.84)"/><path class="cls-20" d="M1183.93,99.14c.23,1.13,6.55,3.69,6.55,3.69l8.18.86,6-1,3.24-1.93,0-1.2a.49.49,0,0,0-.17-.55c-1.07.33-6.42,2.6-6.42,2.6h-.08l-1,.12c-2,.22-6.09.56-8.31,0l-.3-.09-.53-.19c-2.58-.92-6.33-2.5-7-2.8A.53.53,0,0,0,1183.93,99.14Z" transform="translate(-44.93 -17.84)"/><path class="cls-21" d="M1183.44,101c.57,1.06,5.72,2.81,6.63,3.11l.14,0,.87.2c1.66.34,5.36,1,8.15.42l1.25-.25,1-.21c3.21-.72,6.53-1.66,7.12-2.49,0,0-.16-2.71-.7-2.63s-6.58,2.63-6.58,2.63h-.09l-1,.12c-2,.22-6.09.56-8.31,0l-.3-.09-.53-.18c-2.86-1-7.14-2.85-7.14-2.85A1.93,1.93,0,0,0,1183.44,101Z" transform="translate(-44.93 -17.84)"/><ellipse class="cls-20" cx="1150.39" cy="86.07" rx="0.9" ry="0.91"/><ellipse class="cls-22" cx="1150.39" cy="85.84" rx="0.9" ry="0.91"/><path class="cls-20" d="M1200,102l.25,2.57,1-.21-.25-2.48C1200.85,101.9,1200.5,101.94,1200,102Z" transform="translate(-44.93 -17.84)"/><path class="cls-22" d="M1200.23,102l.24,2.57,1-.21-.25-2.48C1201.08,101.9,1200.72,101.94,1200.23,102Z" transform="translate(-44.93 -17.84)"/><path class="cls-20" d="M1190.29,104.15l.14,0,.87.2.84-2.44-.3-.1-.52-.18Z" transform="translate(-44.93 -17.84)"/><path class="cls-22" d="M1190.07,104.15l.13,0,.87.2.85-2.44-.3-.1-.53-.18Z" transform="translate(-44.93 -17.84)"/><text class="cls-78" transform="matrix(-0.98, -0.01, -0.01, 1, 1224.22, 65.51)">+</text><path class="cls-63" d="M1127.17,110.07c3.72.11,6.67,3.9,6.67,3.9s-3.06,3.6-6.78,3.49-6.67-3.9-6.67-3.9S1123.46,110,1127.17,110.07Z" transform="translate(-44.93 -17.84)"/><path class="cls-63" d="M1108.49,92.24a8.44,8.44,0,0,0,7.21.72s-1.59-5.15-5-7.39a8.42,8.42,0,0,0-7.21-.73S1105.14,90,1108.49,92.24Z" transform="translate(-44.93 -17.84)"/><path class="cls-64" d="M1108.83,90c3.71-.47,6.94,2.82,6.94,2.82s-2.76,4.07-6.46,4.54-6.94-2.82-6.94-2.82S1105.13,90.49,1108.83,90Z" transform="translate(-44.93 -17.84)"/><path class="cls-64" d="M1122.4,90.91a21,21,0,0,0,2,9.77,18.71,18.71,0,0,0,3.25-9.06,20.89,20.89,0,0,0-2-9.77A18.78,18.78,0,0,0,1122.4,90.91Z" transform="translate(-44.93 -17.84)"/><path class="cls-64" d="M1139.83,122.81c-1.94,4.45-1.27,10-1.27,10a12.47,12.47,0,0,0,5.75-6.13c2-4.46,1.28-10,1.28-10A12.46,12.46,0,0,0,1139.83,122.81Z" transform="translate(-44.93 -17.84)"/><path class="cls-64" d="M1134.2,171.24l.28-.27a16.18,16.18,0,0,1-1.56-6.9c0-3.62,1.27-7,2.49-10.19.23-.6.45-1.2.67-1.8a49.6,49.6,0,0,0,2.17-7.65c1.89-9.89,0-21.57-5-31.22-4-7.67-9.91-14.37-18.14-20.49l-.16.43c8.18,6.08,14.08,12.74,18,20.34,5,9.54,6.81,21.06,4.94,30.82a49.75,49.75,0,0,1-2.14,7.55c-.22.6-.45,1.2-.67,1.79-1.24,3.29-2.53,6.68-2.53,10.41A16.67,16.67,0,0,0,1134.2,171.24Z" transform="translate(-44.93 -17.84)"/><path class="cls-58" d="M979.28,866.81a148,148,0,0,1-26,12.06L983.45,837c.55-.75,2.07-1.06,3.41-.68l14.72,4.21C998.33,850.37,991.33,859.51,979.28,866.81Z" transform="translate(-44.93 -17.84)"/><path class="cls-58" d="M994.35,853.47c-1,1.1-2,2.15-3,3.21a51.31,51.31,0,0,1-12.78-1.54L988.93,820c.28-.94,1.62-1.59,3-1.44l15.18,1.63C1007.14,831.57,1003.41,843,994.35,853.47Z" transform="translate(-44.93 -17.84)"/><rect class="cls-27" x="806.74" y="842.08" width="16.74" height="12.71" transform="translate(-174.73 1531.59) rotate(-82.72)"/><rect class="cls-79" x="678.14" y="887.16" width="22.13" height="85.33"/><rect class="cls-80" x="680.18" y="887.16" width="18.64" height="83.81"/><path class="cls-81" d="M796.69,838.52H697a29.39,29.39,0,0,0-9.95,1.94c-10.13,3.92-16,10.09-17.69,23.76v31.59L643,895.56c-5.32,0-7.26,7.31-7.26,12.24H814.13V854.72C814.13,845.77,806.33,838.52,796.69,838.52Z" transform="translate(-44.93 -17.84)"/><path class="cls-82" d="M700.64,841.83h98.77c6.68,0,12.09,4.74,12.09,10.58V905H700.64V841.83Z" transform="translate(-44.93 -17.84)"/><path class="cls-82" d="M698.31,841.83h0c14.8,0,26.79,10.49,26.79,23.43v28.27c0,6.34-5.87,11.47-13.11,11.47H684.63c-7.24,0-13.11-5.13-13.11-11.47V865.26C671.52,852.32,683.51,841.83,698.31,841.83Z" transform="translate(-44.93 -17.84)"/><path class="cls-83" d="M698.31,841.83h0c14.8,0,26.79,10.49,26.79,23.43v28.27c0,6.34-5.87,11.47-13.11,11.47H684.63c-7.24,0-13.11-5.13-13.11-11.47V865.26C671.52,852.32,683.51,841.83,698.31,841.83Z" transform="translate(-44.93 -17.84)"/><polygon class="cls-84" points="724.74 815.59 710.91 815.59 702.61 815.59 702.61 829.97 702.61 847.68 712.65 847.68 712.65 829.97 724.74 829.97 724.74 815.59"/><polygon class="cls-85" points="722.99 815.59 711.34 815.59 704.35 815.59 704.35 828.83 704.35 845.13 711.34 845.13 711.34 828.83 722.99 828.83 722.99 815.59"/><path class="cls-83" d="M698,842.08h0a30.12,30.12,0,0,0-10.21,1.77,30.21,30.21,0,0,1,3.81-.24h0c14.8,0,26.79,10.5,26.79,23.44v37.2h6.41V865.52C724.82,852.58,712.82,842.08,698,842.08Z" transform="translate(-44.93 -17.84)"/><path class="cls-82" d="M648.22,896.85h76.89V905H638.9C638.9,900.5,643.08,896.85,648.22,896.85Z" transform="translate(-44.93 -17.84)"/><path class="cls-86" d="M648.22,896.85h76.89V905H638.9C638.9,900.5,643.08,896.85,648.22,896.85Z" transform="translate(-44.93 -17.84)"/><polygon class="cls-1" points="664.67 836.6 653.93 848.21 618.63 847.54 628.34 836.6 664.67 836.6"/><polygon class="cls-50" points="664.43 876.32 664.43 836.6 653.69 848.21 653.69 887.08 664.43 876.32"/><polygon class="cls-1" points="618.63 847.54 618.63 887.08 653.93 887.08 653.93 848.21 618.63 847.54"/><polygon class="cls-51" points="618.63 847.54 618.63 887.08 653.93 887.08 653.93 848.21 618.63 847.54"/><polygon class="cls-52" points="651.06 859.1 624.81 854.15 621.38 873.05 648.41 878.5 651.06 859.1"/><polygon class="cls-13" points="645.33 861.98 627.67 858.94 627.23 861.46 644.88 864.74 645.33 861.98"/><polygon class="cls-53" points="660.09 857.45 659.61 841.81 656.85 844.79 657.33 860.47 660.09 857.45"/><polygon class="cls-54" points="624.78 840.6 658.71 841.1 659.85 841.81 657.09 844.79 656.14 844.18 622.53 843.14 624.78 840.6"/><polygon class="cls-13" points="642.12 866.89 626.15 865.81 625.44 867.71 642.12 868.8 642.12 866.89"/><path class="cls-58" d="M366,842.71l3.6.06,29.16.5,2.57.05c.71,0,1.11.75.88,1.64a.24.24,0,0,0,0,.08,2.8,2.8,0,0,1-.27.58l-5.34,8.29a1.62,1.62,0,0,0,.06,2.14l49.13,35.44a1.62,1.62,0,0,1,.08,2.14l-7.53,11.69c-.51.79-1.37,1.12-1.92.72L387.29,870.6c-.54-.38-1.39-.06-1.9.72l-5.45,8.46a2.16,2.16,0,0,1-.41.48c-.68.59-1.49.52-1.8-.15l0-.07-1-2.52-11-28.69-1.37-3.55a2.14,2.14,0,0,1,.79-2.25A1.46,1.46,0,0,1,366,842.71Z" transform="translate(-44.93 -17.84)"/><path class="cls-58" d="M430.17,901.18A148.73,148.73,0,0,1,410.86,880l49,16.29c.88.3,1.63,1.66,1.67,3l.39,15.3C451.56,914.44,440.74,910.49,430.17,901.18Z" transform="translate(-44.93 -17.84)"/><path class="cls-58" d="M447.41,911.57c-1.34-.59-2.64-1.26-4-1.9A50.94,50.94,0,0,1,441.09,897l36.68-.65c1,0,2,1.07,2.27,2.43l3,15C472.13,917.21,460.09,917.08,447.41,911.57Z" transform="translate(-44.93 -17.84)"/><path class="cls-58" d="M334.3,433.06l-.86,3.51-6.94,28.32-.62,2.49c-.18.69-1,.92-1.79.5l-.08,0a2.72,2.72,0,0,1-.51-.4l-6.89-7a1.64,1.64,0,0,0-2.11-.42l-45.43,40.06a1.62,1.62,0,0,1-2.11-.4l-9.73-9.93c-.66-.67-.79-1.58-.28-2l45.44-40.06c.49-.44.37-1.34-.28-2l-7.05-7.19a2.2,2.2,0,0,1-.37-.51c-.42-.79-.17-1.56.55-1.72h.07l2.68-.39,30.41-4.37,3.77-.55a2.12,2.12,0,0,1,2,1.27A1.43,1.43,0,0,1,334.3,433.06Z" transform="translate(-44.93 -17.84)"/><path class="cls-58" d="M263.07,482.67a148.93,148.93,0,0,1,25-14.13l-26.73,44.17c-.49.8-2,1.22-3.35,1l-15-3C245.41,500.6,251.65,490.92,263.07,482.67Z" transform="translate(-44.93 -17.84)"/><path class="cls-58" d="M249.13,497.18c.86-1.17,1.8-2.3,2.73-3.44a50.93,50.93,0,0,1,12.86.51l-7.49,35.91c-.2,1-1.48,1.71-2.87,1.68l-15.27-.4C238.15,520,240.94,508.33,249.13,497.18Z" transform="translate(-44.93 -17.84)"/></svg>