<?xml version="1.0" encoding="utf-8"?>
<!-- Generator: Adobe Illustrator 24.1.2, SVG Export Plug-In . SVG Version: 6.00 Build 0)  -->
<svg version="1.1" id="_x38_fc77738-ee79-4216-bfe1-e1f5c470859a"
	 xmlns="http://www.w3.org/2000/svg" xmlns:xlink="http://www.w3.org/1999/xlink" x="0px" y="0px" viewBox="0 0 1365.9 1012.8"
	 style="enable-background:new 0 0 1365.9 1012.8;" xml:space="preserve">
<style type="text/css">
	.st0{fill:#DDA2A6;}
	.st1{opacity:0.37;fill:#E99A40;enable-background:new    ;}
	.st2{opacity:0.1;fill:#289A40;enable-background:new    ;}
	.st3{fill:#F3F4F5;stroke:#000000;stroke-width:0.5;stroke-miterlimit:10;}
	.st4{fill:#E4E4E4;}
	.st5{fill:none;stroke:#B8B9BA;stroke-width:0.5;stroke-miterlimit:10;}
	.st6{fill:#B8B9BA;}
	.st7{opacity:0.5;fill:#202121;enable-background:new    ;}
	.st8{fill:#FFFFFF;}
	.st9{fill:#F6F7F9;}
	.st10{opacity:0.5;fill:#F6F7F9;}
	.st11{opacity:0.5;}
	.st12{fill:#289A40;}
	.st13{opacity:0.2;}
	.st14{opacity:0.2;fill:#289A40;enable-background:new    ;}
	.st15{fill:none;stroke:#289A40;stroke-miterlimit:10;}
	.st16{fill:#3ACC6C;}
	.st17{opacity:0.7;fill:#000056;enable-background:new    ;}
	.st18{opacity:0.85;fill:#000056;}
	.st19{opacity:0.1;enable-background:new    ;}
	.st20{fill:#000056;}
	.st21{opacity:0.82;fill:#556CAC;}
	.st22{opacity:0.56;fill:#FFC835;}
	.st23{opacity:0.78;fill:#FFC835;}
	.st24{font-family:'CenturyGothic';}
	.st25{font-size:21.1375px;}
	.st26{fill:#FFC835;}
	.st27{font-size:53.0055px;}
	.st28{opacity:0.4;fill:#FFFFFF;enable-background:new    ;}
	.st29{opacity:0.7;}
	.st30{fill:url(#SVGID_1_);}
	.st31{fill:#EEEEEE;}
	.st32{fill:url(#SVGID_2_);}
	.st33{fill:#535461;}
	.st34{opacity:0.5;fill:#26B53B;enable-background:new    ;}
	.st35{opacity:0.1;}
	.st36{fill:url(#SVGID_3_);}
	.st37{fill:#26B53B;}
	.st38{fill:#E0E0E0;}
	.st39{opacity:0.15;fill:#289A40;enable-background:new    ;}
	.st40{opacity:0.28;fill:#289A40;enable-background:new    ;}
	.st41{fill:url(#SVGID_4_);}
	.st42{fill:#ECB4B6;}
	.st43{fill:#C17174;}
	.st44{opacity:0.25;fill:#FFFFFF;enable-background:new    ;}
	.st45{fill:#FF748E;}
	.st46{fill:#EACCC0;enable-background:new    ;}
	.st47{fill:#5E5A6B;}
	.st48{fill:#464353;}
	.st49{fill:#EACCC0;}
	.st50{fill:#9F9EFF;}
	.st51{fill:#B77B7F;}
	.st52{opacity:0.3;fill:#FFFFFF;enable-background:new    ;}
	.st53{fill:#DCE0ED;}
	.st54{opacity:0.38;fill:#65617D;}
	.st55{opacity:0.29;fill:#65617D;}
	.st56{opacity:0.78;fill:#FFA710;}
	.st57{font-size:43.1011px;}
	.st58{fill:#F29E03;}
	.st59{opacity:0.7;fill:#FFC835;}
	.st60{font-size:84.9139px;}
	.st61{font-size:26.1519px;}
	.st62{opacity:0.22;fill:#289A40;}
	.st63{opacity:0.66;fill:#535461;}
	.st64{opacity:0.7;fill:#26B53B;}
	.st65{opacity:0.7;fill:#3F3D56;}
	.st66{opacity:0.93;fill:#FFFFFF;}
	.st67{fill:url(#SVGID_5_);}
	.st68{opacity:0.14;}
	.st69{opacity:0.15;}
	.st70{fill:#86A3A6;}
	.st71{opacity:0.1;fill:#86A3A6;enable-background:new    ;}
	.st72{fill:#86A3A6;stroke:#289A40;stroke-miterlimit:10;}
	.st73{opacity:0.14;fill:#86A3A6;}
	.st74{opacity:0.2;fill:#86A3A6;}
	.st75{opacity:0.15;fill:#86A3A6;}
	.st76{opacity:0.72;fill:url(#SVGID_6_);}
	.st77{opacity:0.72;fill:#289A40;}
	.st78{opacity:0.72;}
	.st79{font-size:3.124px;}
	.st80{fill:none;stroke:#353535;stroke-miterlimit:10;stroke-opacity:0.73;}
	.st81{font-size:10.701px;}
	.st82{fill:#3F3D56;}
	.st83{fill:#D0CDE1;}
</style>
<polygon class="st0" points="387.1,648.4 401.4,668.8 388.1,681.6 374.4,662.5 "/>
<ellipse class="st1" cx="856.5" cy="495.5" rx="235.5" ry="25.3"/>
<ellipse class="st2" cx="1124.7" cy="860.8" rx="180.3" ry="18.9"/>
<path class="st3" d="M1043.4,453.7c0,21.2-10.4,32-30.8,32H907.7c-20.4,0-30.8-10.8-30.8-32V191.3c0-21.2,10.4-32,30.8-32h104.9
	c20.4,0,30.8,10.8,30.8,32V453.7z"/>
<ellipse class="st4" cx="960.6" cy="463.3" rx="12.3" ry="12.8"/>
<path class="st5" d="M964.6,465.2c0,1.2-0.9,2.2-2.1,2.2h-3.6c-1.2,0-2.1-1-2.1-2.2v-3.8c0-1.2,0.9-2.2,2.1-2.2h3.6
	c1.2,0,2.1,1,2.1,2.2V465.2z"/>
<path class="st6" d="M979.7,183.3c0,2.1-1.6,3.7-3.6,3.7h-31.9c-2,0-3.6-1.7-3.6-3.7l0,0c0-2.1,1.6-3.7,3.6-3.7h31.9
	C978,179.5,979.7,181.2,979.7,183.3L979.7,183.3z"/>
<rect x="884.5" y="200.1" class="st7" width="150.3" height="13.1"/>
<g>
	<ellipse class="st8" cx="1012.4" cy="206.2" rx="3.2" ry="3.3"/>
	<ellipse class="st8" cx="892.3" cy="206.2" rx="3.2" ry="3.3"/>
	<ellipse class="st8" cx="1027" cy="206.2" rx="3.2" ry="3.3"/>
</g>
<rect x="884.5" y="213.1" class="st9" width="151.6" height="214.3"/>
<rect x="885.1" y="211.2" class="st10" width="150.5" height="11.1"/>
<g class="st11">
	<rect x="911.5" y="235.6" class="st12" width="97.1" height="4.1"/>
</g>
<rect x="995.7" y="235.6" class="st12" width="12.9" height="4.1"/>
<g class="st13">
	<rect x="961.4" y="258" class="st14" width="61.1" height="46.9"/>
</g>
<path class="st15" d="M932,391.1"/>
<path class="st16" d="M1024.9,303c0,3.1-2.3,5.6-5.2,5.6c-2.9,0-5.2-2.5-5.2-5.6c0-3.1,2.3-5.6,5.2-5.6c0,0,0,0,0,0
	C1022.5,297.5,1024.9,300,1024.9,303z M1019,306l3.9-4.2c0.1-0.1,0.1-0.4,0-0.5l-0.5-0.5c-0.1-0.1-0.3-0.1-0.5,0c0,0,0,0,0,0
	l-3.2,3.4l-1.5-1.6c-0.1-0.1-0.3-0.1-0.5,0l-0.5,0.5c-0.1,0.1-0.1,0.4,0,0.5c0,0,0,0,0,0l2.2,2.3
	C1018.7,306.2,1018.9,306.2,1019,306C1019,306,1019,306,1019,306L1019,306z"/>
<g class="st11">
</g>
<path class="st12" d="M975.9,266.1c0,0-0.6-1.6,3.3-1.2c3.9,0.4,15.1,1.8,19.9,0.6s7.7-1.6,7.4,0c-0.3,1.6-8.4,5.1-8.4,5.1
	l-10.5,1.2l-7.7-1.3l-4.1-2.7L975.9,266.1z"/>
<path class="st17" d="M1006.5,265.5c-0.3,1.6-8.4,5.1-8.4,5.1l-10.5,1.2l-7.7-1.3l-4.1-2.7l0-1.7c-0.1-0.3,0-0.6,0.2-0.8
	c0.4-0.3,1.2-0.6,3.1-0.4c3.9,0.4,15.1,1.8,19.9,0.6c3.9-1,6.6-1.4,7.3-0.7C1006.5,265,1006.6,265.3,1006.5,265.5z"/>
<path class="st18" d="M1012.7,289.5c-6.7,1.4-13.1,4.5-18.6,9c-0.3-0.8-0.8-1.5-1.5-1.9c-0.5-0.3-1-0.5-1.5-0.7
	c-0.5-0.1-0.9,0.2-1.4,0.7c-0.5,0.6-0.9,1.3-1.2,2c-7.4-5.5-18.5-9.1-18.5-9.1v-1.1c0-0.2,0-0.5,0.1-0.8s0.1-0.6,0.1-0.9
	c0.9-5.3,4.7-17.4,4.7-17.4h1.2h3.1l8.2,1.9l9.2-0.6l9.3-2.1l1.2-0.3c2,1.7,4.3,13.8,5.2,19c0.1,0.7,0.2,1.2,0.3,1.6
	C1012.7,289.2,1012.7,289.5,1012.7,289.5z"/>
<path class="st12" d="M971.6,287.2c0.2-5.1,3.9-16.1,4.5-17.9H975c0,0-4,12.8-4.8,17.8c0,0,0,0,0,0c0,0.1,0,0.3-0.1,0.4
	c0,0.3-0.1,0.6-0.1,0.8v1.1c0,0,11.2,3.5,18.5,9.1c0.3-0.7,0.7-1.4,1.2-2C987,293.7,976.4,289.1,971.6,287.2z"/>
<path class="st12" d="M1012.6,288.7c0-0.2-0.1-0.4-0.1-0.6c0-0.3-0.1-0.6-0.2-1l0,0c-0.9-5.2-3.2-17.3-5.2-19l-1.2,0.3
	c0.7,2.2,5.4,16.2,5,19c-7.9,1.7-15.9,7.4-18.3,9.2c0.7,0.4,1.2,1.1,1.5,1.9c5.5-4.5,11.8-7.6,18.6-9
	C1012.7,289.5,1012.7,289.2,1012.6,288.7z"/>
<path class="st19" d="M971.9,286.9c0.2-5.1,3.9-16.1,4.5-17.9h-1.2c0,0-4,12.8-4.8,17.8c0,0,0,0,0,0c0,0.1,0,0.3-0.1,0.4
	c0,0.3-0.1,0.6-0.1,0.8v1.1c0,0,11.1,3.5,18.5,9.1c0.3-0.7,0.7-1.4,1.2-2C987.3,293.4,976.6,288.8,971.9,286.9z"/>
<path class="st20" d="M971.6,287.2c0.2-5.1,3.9-16.1,4.5-17.9H975c0,0-4,12.8-4.8,17.8c0,0,0,0,0,0c0,0.1,0,0.3-0.1,0.4
	c0,0.3-0.1,0.6-0.1,0.8v1.1c0,0,11.2,3.5,18.5,9.1c0.3-0.7,0.7-1.4,1.2-2C987,293.7,976.4,289.1,971.6,287.2z"/>
<path class="st19" d="M1012.3,288.4l-0.1-0.6c-0.1-0.3-0.1-0.6-0.2-1l0,0c-0.9-5.2-3.2-17.3-5.2-19l-1.2,0.3c0.7,2.2,5.4,16.2,5,19
	c-7.9,1.7-15.9,7.4-18.3,9.1c0.7,0.4,1.2,1.1,1.5,1.9c5.5-4.5,11.8-7.6,18.5-9C1012.4,289.2,1012.4,288.9,1012.3,288.4z"/>
<path class="st20" d="M1012.6,288.7c0-0.2-0.1-0.4-0.1-0.6c0-0.3-0.1-0.6-0.2-1l0,0c-0.9-5.2-3.2-17.3-5.2-19l-1.2,0.3
	c0.7,2.2,5.4,16.2,5,19c-7.9,1.7-15.9,7.4-18.3,9.2c0.7,0.4,1.2,1.1,1.5,1.9c5.5-4.5,11.8-7.6,18.6-9
	C1012.7,289.5,1012.7,289.2,1012.6,288.7z"/>
<path class="st19" d="M974.4,275.6c0,0,7.3,5.1,9-2.3l1.6,0.5c0,0,0.5,8.2-11.1,3.5L974.4,275.6z"/>
<path class="st20" d="M974.4,274.9c0,0,7.3,5.1,9-2.3l1.6,0.5c0,0,0.5,8.2-11.1,3.5L974.4,274.9z"/>
<path class="st19" d="M997.4,273.4c0,0,0.9,6,11,3.1l-0.4-1.1c0,0-6.8,3.1-9.3-2.3L997.4,273.4z"/>
<path class="st20" d="M997.4,272.8c0,0,0.9,6,11,3.1l-0.4-1.1c0,0-6.8,3.1-9.3-2.3L997.4,272.8z"/>
<path class="st19" d="M990.7,273.4V286h1.8c0,0,2.5-1,2.4-6.6s-0.4-7.2-0.4-7.2L990.7,273.4z"/>
<path class="st20" d="M990.4,273.1v12.6h1.8c0,0,2.5-1,2.4-6.6s-0.4-7.2-0.4-7.2L990.4,273.1z"/>
<path class="st19" d="M1007.1,268.8c-0.7,1.5-7.3,3.9-8.5,4.3l-0.2,0.1c0,0-0.4,0.1-1.1,0.3c-2.1,0.5-6.8,1.4-10.4,0.6
	c-0.5-0.1-1.1-0.2-1.6-0.3l-1.3-0.3c-4.1-1-8.3-2.3-9.1-3.5c0,0,0.2-3.8,0.9-3.7c0.7,0.1,8.4,3.7,8.4,3.7l0.1,0
	c0.2,0,0.6,0.1,1.3,0.2c2.5,0.3,7.8,0.8,10.6-0.1c0.1,0,0.3-0.1,0.4-0.1c0.2-0.1,0.4-0.2,0.7-0.3c3.7-1.4,9.1-4,9.1-4
	S1007.9,267.2,1007.1,268.8z"/>
<path class="st19" d="M1006.5,265.5c-0.3,1.6-8.4,5.1-8.4,5.1l-10.5,1.2l-7.7-1.3l-4.1-2.7l0-1.7c-0.1-0.3,0-0.6,0.2-0.8
	c1.4,0.5,8.2,3.6,8.2,3.6l0.1,0c0.2,0,0.6,0.1,1.3,0.2c2.5,0.3,7.8,0.8,10.6-0.1c0.1,0,0.3-0.1,0.4-0.1c0.2-0.1,0.4-0.2,0.7-0.3
	c3.3-1.3,8.1-3.5,9-3.9C1006.5,265,1006.6,265.3,1006.5,265.5z"/>
<path class="st20" d="M1007.1,268.1c-0.7,1.5-7.3,3.9-8.5,4.3l-0.2,0.1c0,0-0.4,0.1-1.1,0.3c-2.1,0.5-6.8,1.4-10.4,0.6
	c-0.5-0.1-1.1-0.2-1.6-0.3l-1.3-0.3c-4.1-1-8.3-2.3-9.1-3.5c0,0,0.2-3.8,0.9-3.7c0.7,0.1,8.4,3.7,8.4,3.7l0.1,0
	c0.2,0,0.6,0.1,1.3,0.2c2.5,0.3,7.8,0.8,10.6-0.1c0.1,0,0.3-0.1,0.4-0.1c0.2-0.1,0.4-0.2,0.7-0.3c3.7-1.4,9.1-4,9.1-4
	S1007.9,266.5,1007.1,268.1z"/>
<ellipse class="st19" cx="992" cy="272.1" rx="1.2" ry="1.3"/>
<ellipse class="st21" cx="992" cy="271.8" rx="1.2" ry="1.3"/>
<path class="st19" d="M986,269.5l-0.3,3.6l-1.3-0.3l0.3-3.4C984.9,269.3,985.3,269.4,986,269.5z"/>
<path class="st21" d="M985.7,269.5l-0.3,3.6l-1.3-0.3l0.3-3.4C984.6,269.3,985.1,269.4,985.7,269.5z"/>
<path class="st19" d="M998.4,272.5l-0.2,0.1c0,0-0.4,0.1-1.1,0.3l-1.1-3.4c0.1,0,0.3-0.1,0.4-0.1c0.2-0.1,0.4-0.2,0.7-0.3
	L998.4,272.5z"/>
<path class="st21" d="M998.7,272.5l-0.2,0.1c0,0-0.4,0.1-1.1,0.3l-1.1-3.4c0.1,0,0.3-0.1,0.4-0.1c0.2-0.1,0.4-0.2,0.7-0.3
	L998.7,272.5z"/>
<path class="st22" d="M919,317l84.6,5c2.9,0.2,5.1,2.9,5,6.2l-2.6,54.6c-0.2,3.3-2.6,5.7-5.5,5.6l-84.6-5c-2.9-0.2-5.1-2.9-5-6.2
	l2.6-54.6C913.6,319.3,916.1,316.8,919,317z"/>
<polygon class="st23" points="913.4,332.6 1008,337.4 1007.5,349.5 912.9,344.7 "/>
<text transform="matrix(0.8888 3.385679e-02 -2.865868e-02 0.9996 940.1992 369.8745)" class="st11 st24 st25">180,-</text>
<text transform="matrix(0.8564 3.332604e-02 -2.816726e-02 0.9996 903.62 308.9766)" class="st26 st24 st27">+</text>
<rect x="1102.1" y="639.3" class="st28" width="56.7" height="13.2"/>
<rect x="1052.4" y="634.2" class="st28" width="56.7" height="13.2"/>
<rect x="1052.4" y="660.1" class="st28" width="56.7" height="13.2"/>
<rect x="1052.4" y="686" class="st28" width="56.7" height="13.2"/>
<rect x="1052.4" y="711.9" class="st28" width="56.7" height="13.2"/>
<g class="st29">
	
		<linearGradient id="SVGID_1_" gradientUnits="userSpaceOnUse" x1="1134.5518" y1="390.8858" x2="1134.5518" y2="533.5059" gradientTransform="matrix(1 0 0 -1 0 1244.5753)">
		<stop  offset="0" style="stop-color:#808080;stop-opacity:0.25"/>
		<stop  offset="0.54" style="stop-color:#808080;stop-opacity:0.12"/>
		<stop  offset="1" style="stop-color:#808080;stop-opacity:0.1"/>
	</linearGradient>
	<rect x="1009.5" y="711.1" class="st30" width="250.1" height="142.6"/>
</g>
<rect x="1013.8" y="712.7" class="st31" width="243.2" height="139.4"/>
<g class="st29">
	
		<linearGradient id="SVGID_2_" gradientUnits="userSpaceOnUse" x1="1134.9629" y1="392.4872" x2="1134.9629" y2="539.9119" gradientTransform="matrix(1 0 0 -1 0 1244.5753)">
		<stop  offset="0" style="stop-color:#808080;stop-opacity:0.25"/>
		<stop  offset="0.54" style="stop-color:#808080;stop-opacity:0.12"/>
		<stop  offset="1" style="stop-color:#808080;stop-opacity:0.1"/>
	</linearGradient>
	<polygon class="st32" points="1226.2,852.1 1043.7,852.1 1043.7,706 1135.8,704.7 1226.2,706 	"/>
</g>
<polygon class="st8" points="1224.2,852.1 1046.6,852.1 1046.6,706 1135.4,664.7 1224.2,706 "/>
<rect x="1113" y="803" class="st33" width="44.8" height="49"/>
<rect x="1094.2" y="727.9" class="st34" width="82.3" height="33.6"/>
<rect x="1089.3" y="758.5" class="st33" width="92.1" height="5.9"/>
<g class="st35">
	<rect x="1094.2" y="727.9" width="82.3" height="13.3"/>
</g>
<g class="st29">
	
		<linearGradient id="SVGID_3_" gradientUnits="userSpaceOnUse" x1="1137.1617" y1="526.2117" x2="1137.1617" y2="587.2434" gradientTransform="matrix(1 0 0 -1 0 1244.5753)">
		<stop  offset="0" style="stop-color:#808080;stop-opacity:0.25"/>
		<stop  offset="0.54" style="stop-color:#808080;stop-opacity:0.12"/>
		<stop  offset="1" style="stop-color:#808080;stop-opacity:0.1"/>
	</linearGradient>
	<polygon class="st36" points="1236.1,718.4 1135.6,667.5 1038.4,718.3 1030.7,712.1 1135.5,657.3 1243.6,712 	"/>
</g>
<polygon class="st37" points="1236.1,718.9 1135.6,668 1038.4,718.9 1030.7,712.6 1135.5,657.9 1243.6,712.6 "/>
<ellipse class="st38" cx="1151.3" cy="827.6" rx="3.3" ry="2.1"/>
<path class="st39" d="M144,223.6c2.9-7.1,6.6-13.8,11.1-19.8c4.2-5.5,9.2-10.3,15.1-13.4c4.9-2.6,10.2-3.9,15.5-3.8
	c4.4,10,7.6,19.8,8.6,27c1.1,8-0.3,12.4-0.4,18.9c0,6.5,2,16.7,7.5,27.9c5.1,10.3,11.4,17.7,16.3,22c3.8,3.4,8.3,7,12.3,14.9
	c2,3.9,3.1,7.5,3.8,10.7c0,0.3-0.1,0.6-0.1,0.9c-0.3,1.5-0.9,3-2.2,3.9c-1.5,1.1-3.5,1.2-5.5,0.8c-1.2-0.2-2.3-0.6-3.4-1
	c-3.7-2.4-7.4-5-11.1-7.6c-6.3-4.5-12.6-9.1-18.6-13.9c-5.9-4.8-11.7-9.8-17.4-14.8c-11.2-9.9-22.4-19.8-34.6-28.7
	c-1.1-0.8-2.3-1.6-3.5-2.5C138.9,237.8,141.1,230.5,144,223.6z"/>
<path class="st39" d="M232.8,171.5c-8-6.8-9-17.7-6.7-27.9s7.5-20.4,10.8-30.6c2.7-8.6,4.1-17.2,4.1-25.7c0-12.1-3.7-24.8-15.9-30.4
	c-13.6-6.3-35.8-0.5-45.8,11.9c-5.1,6.3-7,13.5-10.8,20.3c-3.7,6.7-10.5,13.7-19.3,15.2c-8.1,1.4-15-2.5-19.6-7
	c-3.6-3.5-7.5-7.9-13.8-7c-6.1,0.9-10.2,6.3-12.3,11c-6.9,15.5-4.6,32.2,6.1,43.6c3.8,4.1,8.6,7.6,11.8,12
	c8.3,11.8,3.7,27.9,3.2,42.4c-0.4,12.4,2.3,24.2,7.9,34.9c3.4,6.4,8,12.5,15.5,15.8c5.4,2.4,12,3.1,18.5,3.8
	c6.9,0.7,13.9,1.3,20.8,1.8c4.2,0.3,8.5,0.6,12.8-0.1c7.9-1.2,15.3-5.4,21.4-10.1c14.6-11.3,23.9-26.9,24.7-41.6
	c0.9-14.8-6.6-28.5-20-36.7"/>
<path class="st12" d="M302.9,531.2c0,0-1.3-3.2,7.4-2.4c8.7,0.8,33.5,3.6,44.3,1.1c10.8-2.4,17.2-3.2,16.5,0
	c-0.6,3.2-18.6,10.4-18.6,10.4l-23.3,2.4l-17.2-2.7l-9.2-5.5L302.9,531.2z"/>
<path class="st17" d="M371.1,530c-0.6,3.2-18.6,10.4-18.6,10.4l-23.3,2.4l-17.2-2.7l-9.2-5.5l0.1-3.4c-0.2-0.6,0-1.2,0.5-1.6
	c0.8-0.7,2.6-1.2,6.9-0.9c8.7,0.8,33.5,3.6,44.3,1.1c8.8-2,14.6-2.8,16.1-1.4C371.1,528.9,371.2,529.5,371.1,530z"/>
<path class="st18" d="M384.9,578.6c-15,2.9-29.1,9.1-41.3,18.3c-0.6-1.6-1.8-3-3.3-3.9c-1-0.6-2.2-1.1-3.3-1.4
	c-1.1-0.3-2.1,0.4-3.1,1.3c-1.1,1.2-2,2.6-2.7,4c-16.4-11.2-41.2-18.4-41.2-18.4v-2.2c0-0.4,0.1-1,0.2-1.6s0.2-1.1,0.3-1.8
	c2.1-10.7,10.4-35.2,10.4-35.2h2.6h6.8l18.3,3.8l20.5-1.3l20.7-4.3l2.7-0.6c4.5,3.5,9.5,28.1,11.5,38.5c0.3,1.3,0.4,2.4,0.6,3.2
	C384.8,578,384.9,578.6,384.9,578.6z"/>
<path class="st12" d="M293.4,573.9c0.5-10.3,8.7-32.6,10.1-36.3h-2.6c0,0-8.8,26-10.6,36.1c0,0,0,0.1,0,0.1c0,0.3-0.1,0.5-0.1,0.8
	c-0.1,0.6-0.1,1.1-0.2,1.6v2.2c0,0,24.8,7.2,41.2,18.4c0.7-1.5,1.6-2.8,2.7-4C327.7,587.1,304,577.9,293.4,573.9z"/>
<path class="st12" d="M384.6,577.1c-0.1-0.4-0.1-0.8-0.2-1.2c-0.1-0.6-0.2-1.3-0.4-2l0,0c-2-10.5-7.1-35-11.5-38.5l-2.7,0.6
	c1.6,4.4,12.1,32.9,11.2,38.5c-17.5,3.5-35.3,14.9-40.7,18.6c1.5,0.9,2.7,2.3,3.3,3.9c12.2-9.1,26.3-15.4,41.3-18.3
	C384.9,578.6,384.8,578,384.6,577.1z"/>
<path class="st19" d="M294.1,573.3c0.5-10.3,8.7-32.6,10.1-36.2h-2.6c0,0-8.8,26-10.6,36.1c0,0,0,0.1,0,0.1
	c-0.1,0.3-0.1,0.5-0.1,0.8c-0.1,0.6-0.1,1.1-0.2,1.6v2.2c0,0,24.8,7.2,41.2,18.4c0.7-1.5,1.6-2.8,2.7-4
	C328.3,586.5,304.6,577.2,294.1,573.3z"/>
<path class="st20" d="M293.4,573.9c0.5-10.3,8.7-32.6,10.1-36.3h-2.6c0,0-8.8,26-10.6,36.1c0,0,0,0.1,0,0.1c0,0.3-0.1,0.5-0.1,0.8
	c-0.1,0.6-0.1,1.1-0.2,1.6v2.2c0,0,24.8,7.2,41.2,18.4c0.7-1.5,1.6-2.8,2.7-4C327.7,587.1,304,577.9,293.4,573.9z"/>
<path class="st19" d="M384,576.4l-0.2-1.2c-0.1-0.6-0.2-1.2-0.4-2l0,0c-2-10.5-7.1-35-11.5-38.5l-2.7,0.6
	c1.6,4.4,12.1,32.9,11.2,38.5c-17.5,3.5-35.3,14.9-40.7,18.5c1.5,0.9,2.7,2.3,3.3,3.9c12.2-9.2,26.3-15.4,41.3-18.3
	C384.3,577.9,384.2,577.4,384,576.4z"/>
<path class="st20" d="M384.6,577.1c-0.1-0.4-0.1-0.8-0.2-1.2c-0.1-0.6-0.2-1.3-0.4-2l0,0c-2-10.5-7.1-35-11.5-38.5l-2.7,0.6
	c1.6,4.4,12.1,32.9,11.2,38.5c-17.5,3.5-35.3,14.9-40.7,18.6c1.5,0.9,2.7,2.3,3.3,3.9c12.2-9.1,26.3-15.4,41.3-18.3
	C384.9,578.6,384.8,578,384.6,577.1z"/>
<path class="st19" d="M299.5,550.4c0,0,16.3,10.2,20.1-4.8l3.6,1c0,0,1.2,16.6-24.8,7.1L299.5,550.4z"/>
<path class="st20" d="M299.5,549.1c0,0,16.3,10.2,20.1-4.8l3.6,1c0,0,1.2,16.6-24.8,7.1L299.5,549.1z"/>
<path class="st19" d="M350.8,546.1c0,0,2.1,12.3,24.4,6.3l-0.8-2.3c0,0-15.2,6.3-20.8-4.7L350.8,546.1z"/>
<path class="st20" d="M350.8,544.8c0,0,2.1,12.3,24.4,6.3l-0.8-2.3c0,0-15.2,6.3-20.8-4.7L350.8,544.8z"/>
<path class="st19" d="M335.9,545.9v25.6h4c0,0,5.5-2,5.3-13.5c-0.1-11.5-1-14.6-1-14.6L335.9,545.9z"/>
<path class="st20" d="M335.3,545.3v25.6h4c0,0,5.5-2,5.3-13.5c-0.1-11.5-1-14.6-1-14.6L335.3,545.3z"/>
<path class="st19" d="M372.5,536.6c-1.6,3-16.3,7.9-18.9,8.8l-0.4,0.1c0,0-0.9,0.2-2.5,0.6c-4.7,1-15.2,2.8-23.2,1.2
	c-1.2-0.2-2.3-0.5-3.6-0.7l-2.8-0.6c-9.1-2-18.6-4.7-20.2-7c0,0,0.5-7.6,2-7.4c1.5,0.2,18.7,7.4,18.7,7.4l0.2,0
	c0.4,0.1,1.4,0.2,2.9,0.3c5.6,0.6,17.3,1.6,23.6-0.1c0.3-0.1,0.6-0.2,0.9-0.3c0.5-0.2,1-0.3,1.5-0.5c8.1-2.9,20.3-8,20.3-8
	S374.3,533.3,372.5,536.6z"/>
<path class="st19" d="M371.1,530c-0.6,3.2-18.6,10.4-18.6,10.4l-23.3,2.4l-17.2-2.7l-9.2-5.5l0.1-3.4c-0.2-0.6,0-1.2,0.5-1.6
	c3.1,0.9,18.3,7.3,18.3,7.3l0.2,0c0.4,0.1,1.4,0.2,2.9,0.3c5.6,0.6,17.3,1.6,23.6-0.1c0.3-0.1,0.6-0.2,0.9-0.3
	c0.5-0.2,1-0.3,1.5-0.5c7.3-2.6,18-7.1,20-7.9C371.1,529,371.2,529.5,371.1,530z"/>
<path class="st20" d="M372.5,535.3c-1.6,3-16.3,7.9-18.9,8.8l-0.4,0.1c0,0-0.9,0.2-2.5,0.6c-4.7,1-15.2,2.8-23.2,1.2
	c-1.2-0.2-2.3-0.5-3.6-0.7l-2.8-0.6c-9.1-2-18.6-4.7-20.2-7c0,0,0.5-7.6,2-7.4c1.5,0.2,18.7,7.4,18.7,7.4l0.2,0
	c0.4,0.1,1.4,0.2,2.9,0.3c5.6,0.6,17.3,1.6,23.6-0.1c0.3-0.1,0.6-0.2,0.9-0.3c0.5-0.2,1-0.3,1.5-0.5c8.1-2.9,20.3-8,20.3-8
	S374.3,532,372.5,535.3z"/>
<circle class="st19" cx="338.7" cy="543.4" r="2.6"/>
<circle class="st21" cx="338.7" cy="542.8" r="2.6"/>
<path class="st19" d="M325.4,538l-0.7,7.2l-2.8-0.6l0.7-7C323,537.8,324,537.9,325.4,538z"/>
<path class="st21" d="M324.8,538l-0.7,7.2l-2.8-0.6l0.7-7C322.3,537.8,323.3,537.9,324.8,538z"/>
<path class="st19" d="M353,544.1l-0.4,0.1c0,0-0.9,0.2-2.5,0.6l-2.4-6.9c0.3-0.1,0.6-0.2,0.9-0.3c0.5-0.2,1-0.3,1.5-0.5L353,544.1z"
	/>
<path class="st21" d="M353.6,544.1l-0.4,0.1c0,0-0.9,0.2-2.5,0.6l-2.4-6.9c0.3-0.1,0.6-0.2,0.9-0.3c0.5-0.2,1-0.3,1.5-0.5
	L353.6,544.1z"/>
<ellipse class="st40" cx="247.2" cy="716.8" rx="127.1" ry="24.8"/>
<ellipse class="st2" cx="615.5" cy="939.9" rx="178" ry="18.4"/>
<linearGradient id="SVGID_4_" gradientUnits="userSpaceOnUse" x1="341.122" y1="452.8525" x2="341.122" y2="882.4847" gradientTransform="matrix(1 0 0 -1 -92.22 1186.3452)">
	<stop  offset="0" style="stop-color:#808080;stop-opacity:0.25"/>
	<stop  offset="0.54" style="stop-color:#808080;stop-opacity:0.12"/>
	<stop  offset="1" style="stop-color:#808080;stop-opacity:0.1"/>
</linearGradient>
<path class="st41" d="M346.1,392.9L346.1,392.9l0-0.1l0,0l-0.5-0.3l0.1,0.1c-0.8-0.4-1.7-0.2-2.2,0.5l-0.2,0.3l0,0l-11.4,16.4
	l-2,2.9c-6-1.8-15.7,5.8-20.7,10.2c-0.3,0.3-0.6,0.5-0.9,0.8c-0.4-0.9-0.6-1.4-0.6-1.4c-0.2,2.7-9.7,6.7-11.9,8.2
	c-1,0.6-2.1,1-3.3,1.1c0.3-10.2-7.6-20.9-7.6-20.9L265.7,386c-0.7-4.4,0-9,2-13c0.2-0.3,0.3-0.6,0.5-0.9h0.1
	c-0.7,2.1-1.1,4.2-1.2,6.4c0,1.7,1.6,9.7,3.7,9.4c0.4,0,0.9-0.2,1.1-0.5c1.7-2,1.9-5.4,1.8-8.6c0,0.9-0.1,1.9-0.3,2.8
	c0.1-2.6-0.2-5.4-0.2-7.4c0-0.8,0-1.6,0.1-2.3h0.2c0,0.3,0,0.6,0,0.9c0-0.3,0-0.6,0-0.9h0.2c4.3-0.8,8.4-2.7,11.7-5.4
	c1.7-0.1,3.3-0.8,4.4-2.1c0.4,1.4,0.1,2.9-0.8,4c2.6-0.1,4.8-2.1,5.7-4.5c0.9-2.4,1.1-5,0.7-7.5c-0.4-2.5-0.6-5.1-0.6-7.6
	c0.2-1.4,0.3-2.8,0.2-4.1c0-0.4-0.1-0.8-0.2-1.3h0.1c0.5,0,1-0.2,1.3-0.5c1.1-0.8,1.4-2.4,1.7-3.7c0.7-2.8,1.1-5.8,1-8.7
	c-0.1,0.9-0.2,1.8-0.3,2.7c0.2-3.4-0.2-6.6-2.5-9.1c-1.5-1.7-3.7-2.7-5.7-3.6c-0.7-0.3-1.4-0.7-1.9-1.3c-0.4-0.7-0.6-1.5-0.6-2.3
	c-0.7-4.9-5.4-8.4-10-10.3c-5.9-2.6-13.1-3.7-18.8-0.6c-2.8,1.5-5,3.8-7.5,5.7c-3.2,2.4-6.8,4.1-10.2,6.2c-3.4,2.1-6.6,4.8-8.2,8.4
	c-2.5,5.6-0.6,12-0.3,18.1c0.5,9.6-3.5,19.7-11.3,25.3c-0.9,0.6-1.8,1.3-2.5,2.1c-0.7,0.9-0.8,2.1-0.2,3.1c0.4,0.5,1,0.8,1.5,1.3
	c0.9,1,0.7,2.6,0.4,3.8c-1.1,4.2-3.4,8.1-6.6,11.1c0.1,1,1.4,1.4,2.4,1.5c2.7,0.4,5.3,0.6,8,0.6h1.2c-0.1,0.3-0.3,0.6-0.4,1
	c-1.5,3.8-3.3,9.7-2.7,13.3c0.9,5.7,3.9,31.6,2.5,36.2c-1.5,4.5,2.4,37.5,2.4,37.5s0.5,2.5,1.4,6.3c-2.3,5.4-5,11.5-6.3,13.9
	c-2.7,4.9-1.3,29.7,7.8,40.7c0,0,3.7,5.4,2.8,7.3c-0.9,1.9,0.2,5.4,0.2,5.4l1.5,32.1c0,3.3-0.3,6.6-0.7,9.8
	c-3.9,4.8-9.9,11.9-12.8,13c-4.4,1.8-37.1,41.5-37.1,41.5s0.3,0.5,0.8,1.3l-0.9,1.1l-6.3,7.3l-0.5,0.6c-1.2-0.2-9-1.6-15.3-2.1h-0.6
	V659c-2.2-0.2-4.4-0.2-6.6,0.2c-0.4,0.1-0.8,0.3-1.1,0.6c-2.1,2.6-3.3,43.5-3.3,43.5s2.3,20.5,9.4,21.6c0.4,0.1,0.7,0.2,1.1,0.2h0.3
	c5.1-0.4,7.4-3.3,8.4-5.3c0.3-0.6,0.5-1.2,0.7-1.9c0,0-0.8-3.6,1.4-8.7c2.2-5,6.3-13.9,6.3-13.9s7.5-7.9,6.2-11.7
	c0.2-0.3,0.4-0.6,0.7-1c2.8-4,8.5-11.9,13.1-17.2c0.3-0.4,0.6-0.7,0.9-1c1.7,0.7,3.4,1.2,5.2,1.5c0,0,7-2.8,9.7-8.9
	c1.1-2.6,5.5-7.3,10.1-11.7l-0.1,1.2l-0.2,39.1c1.5,1,3.1,1.9,4.8,2.6v0.9c0,5.6-0.3,11.1-1,16.7l-0.1,0.9c-0.6-0.4-1.1-0.6-1.4-0.2
	c-1.4,1.5-2.3,10.8-2.4,15.1c0,0.1,0,0.3,0,0.4c-0.2,4.3-2.7,10.5,4.7,10.8c5.5,0.2,29.2,0.6,41.9,0.8c6.8,0.1,13.5-2.2,18.7-6.6
	c4-3.5,6.5-7.6,1-10.6c-0.3-0.2-0.7-0.4-1.1-0.5l-12.2-1.9l-20.8-10.6c0,0-0.1-6.4-2.6-5.4c-0.7,0.2-1.5,0.4-2.1,0.8
	c-0.1-0.2-0.3-0.5-0.4-0.7c-1.7-3.4-2.6-7.1-2.6-10.8c0-0.3,0-0.7,0-1c0.6-0.6,1.2-1.1,1.7-1.8c0,0-0.2-14.6,1.5-17.3
	c1.6-2.8,6.7-30.6,6.7-30.6s0.2-5.2,3.4-8.3c3.3-3.1,2.1-12,2.1-12s4.6-2.4,6.1-10.4c1.5-7.9,6.2-25.3,6.2-25.3s9.8-25.6,9.2-41.8
	c-0.6-16.2,0.9-24.6,0.9-24.6l2-37.7v-0.6c0.8,0.6,1.4,1.1,1.4,1.1s0-0.1,0-0.4c0.3,0.3,0.5,0.4,0.5,0.4s1-17.1,0.7-23.9
	c5.7-1.9,14.5-5.1,15-6.8c0.7-2.4,10.6-10.1,10.6-10.1c-0.2,0-0.4-0.1-0.6-0.2c0.3-0.1,0.6-0.3,0.9-0.5c6.4-3.4,18.4-13.5,16.4-19.7
	l13.1-18.8C347.2,395.7,347.1,394,346.1,392.9z"/>
<path class="st42" d="M315.6,438.3c-1,0.6-2,1-3.1,1.2c-4.1,0.1-7.5-11-7.5-11s1.2-1.2,3-2.8c5.5-4.9,17-13.9,22.4-8.8
	C336.4,422.5,322.7,434.5,315.6,438.3z"/>
<path class="st42" d="M253.4,702.4l-15.1,16.3c0,0-14,0.2-11.2-7.5c0.5-1.7,0.9-3.4,1.2-5.1c0.7-5.5,1-11,1-16.5
	c0-3.6-0.1-6.2-0.1-6.2s22-9.6,19.7,0.4c-0.3,1.3-0.4,2.5-0.4,3.8c0,3.7,0.9,7.4,2.5,10.7C251.6,699.8,252.4,701.2,253.4,702.4z"/>
<path class="st19" d="M253.4,702.4l-15.1,16.3c0,0-14,0.2-11.2-7.5c0.5-1.7,0.9-3.4,1.2-5.1c2,1.5,4.9,6.1,4.9,6.1s9.6,2.8,12.3-5.6
	c1.5-4.7,3.8-7,5.6-8.2C251.6,699.8,252.5,701.2,253.4,702.4z"/>
<path class="st43" d="M288.4,727c-5.1,4.4-11.7,6.7-18.4,6.6c-12.5-0.2-35.7-0.5-41.1-0.8c-7.2-0.3-4.8-6.5-4.6-10.7
	c0-0.1,0-0.3,0-0.4c0.1-4.3,0.9-13.5,2.4-14.9c1.4-1.4,6.4,6.4,6.4,6.4s9.6,2.8,12.3-5.6s8-9.2,8-9.2c2.4-1.1,2.6,5.3,2.6,5.3
	l20.4,10.5l12,1.9c0.4,0.2,0.7,0.4,1.1,0.5C294.8,719.5,292.4,723.6,288.4,727z"/>
<circle class="st44" cx="250.8" cy="709.9" r="0.9"/>
<circle class="st44" cx="259" cy="714" r="0.9"/>
<circle class="st44" cx="263.3" cy="715.9" r="0.9"/>
<circle class="st44" cx="272.1" cy="719.3" r="0.9"/>
<circle class="st44" cx="267.6" cy="717.9" r="0.9"/>
<path class="st43" d="M288.4,727c-5.1,4.4-11.7,6.7-18.4,6.6c-12.5-0.2-35.7-0.5-41.1-0.8c-7.2-0.3-4.8-6.5-4.6-10.7l45.4,2.8
	c0,0,18.6-2.8,19.7-8.4C294.8,719.5,292.4,723.6,288.4,727z"/>
<path class="st44" d="M288.4,727c-5.1,4.4-11.7,6.7-18.4,6.6c-12.5-0.2-35.7-0.5-41.1-0.8c-7.2-0.3-4.8-6.5-4.6-10.7l45.4,2.8
	c0,0,18.6-2.8,19.7-8.4C294.8,719.5,292.4,723.6,288.4,727z"/>
<path class="st42" d="M204,661.5c-1.7,1.4-3.2,2.9-4.5,4.6c-4.5,5.2-10.1,13.1-12.8,17c-1.1,1.5-1.7,2.5-1.7,2.5l-6-0.9
	c0,0-6.5-10-6.4-10.2c0.1-0.2,5.1-10.9,5.1-10.9l2-2.3l6.2-7.2l2.8-3.3C188.5,650.8,209.4,657.6,204,661.5z"/>
<path class="st19" d="M186.6,683.1c-1.1,1.5-1.7,2.5-1.7,2.5l-6-0.9c0,0-6.5-10-6.4-10.2c0.1-0.2,5.1-10.9,5.1-10.9l2-2.3l0.6,0.1
	h1.5c-5.4,5.6,0.4,18,0.4,18S184.6,679.6,186.6,683.1z"/>
<path class="st43" d="M179.8,695.7c0,0-4,8.7-6.2,13.6c-2.2,5-1.4,8.6-1.4,8.6c-0.2,0.6-0.4,1.3-0.7,1.9c-1.6,3.1-4.7,5.1-8.2,5.2
	H163c-7.3-0.2-9.6-21.4-9.6-21.4s1.1-40.4,3.2-43.1c0.3-0.3,0.7-0.5,1.1-0.6c2.1-0.4,4.3-0.4,6.4-0.2c6.6,0.5,15.1,2.1,15.1,2.1h1.5
	c-5.4,5.6,0.4,18,0.4,18s2.6,0.2,4.6,3.8C187.7,687.3,179.8,695.7,179.8,695.7z"/>
<circle class="st44" cx="171" cy="683.7" r="0.9"/>
<circle class="st44" cx="170.6" cy="690.7" r="0.9"/>
<path class="st43" d="M171,719.6c-1.6,3.1-4.7,5.1-8.2,5.2h-0.4c-7.3-0.2-9.7-21.4-9.7-21.4s1.1-40.4,3.2-43.1
	c0.3-0.3,0.7-0.5,1.1-0.6c2.1-0.4,4.3-0.4,6.4-0.2c-0.1,7.3-0.5,30.3,0,32.5C163.9,694.4,168.1,713.5,171,719.6z"/>
<path class="st44" d="M171,719.6c-1.6,3.1-4.7,5.1-8.2,5.2h-0.4c-7.3-0.2-9.7-21.4-9.7-21.4s1.1-40.4,3.2-43.1
	c0.3-0.3,0.7-0.5,1.1-0.6c2.1-0.4,4.3-0.4,6.4-0.2c-0.1,7.3-0.5,30.3,0,32.5C163.9,694.4,168.1,713.5,171,719.6z"/>
<path class="st43" d="M162.4,724.8c-7.3-0.2-9.7-21.4-9.7-21.4s1.1-40.4,3.2-43.1c0.3-0.3,0.7-0.5,1.1-0.6c1.5,2.3,2.9,7.3,1.7,18.5
	c-2.3,21.1,0.5,22.4,0.5,22.4S162.6,718.6,162.4,724.8z"/>
<path class="st19" d="M162.4,724.8c-7.3-0.2-9.7-21.4-9.7-21.4s1.1-40.4,3.2-43.1c0.3-0.3,0.7-0.5,1.1-0.6c1.5,2.3,2.9,7.3,1.7,18.5
	c-2.3,21.1,0.5,22.4,0.5,22.4S162.6,718.6,162.4,724.8z"/>
<path class="st19" d="M315.6,438.3c-1,0.6-2,1-3.1,1.2c-4.1,0.1-7.5-11-7.5-11s1.2-1.2,3-2.8C309.3,428.8,313,436.8,315.6,438.3z"/>
<path class="st45" d="M289.3,434.4c0,0,3.4,0.2,5.5-1.2c2.2-1.4,11.4-5.4,11.7-8.1c0,0,5.5,13.5,8.7,14c0,0-9.6,7.6-10.4,10
	s-19.5,8.3-19.5,8.3L289.3,434.4z"/>
<path class="st46" d="M289.3,434.4c0,0,3.4,0.2,5.5-1.2c2.2-1.4,11.4-5.4,11.7-8.1c0,0,5.5,13.5,8.7,14c0,0-9.6,7.6-10.4,10
	s-19.5,8.3-19.5,8.3L289.3,434.4z"/>
<path class="st19" d="M204,661.5c-1.7,1.4-3.2,2.9-4.5,4.6c-7.3-3-11.9-9.3-13.7-12l2.8-3.3C188.5,650.8,209.4,657.6,204,661.5z"/>
<path class="st47" d="M238.3,593.2c0,0-11.8,15.7-16.1,17.5c-4.3,1.8-36.4,41.1-36.4,41.1s6.9,12.7,19.6,14.8c0,0,6.9-2.7,9.5-8.8
	s22.8-23.3,22.8-23.3L238.3,593.2z"/>
<path class="st19" d="M238.3,593.2c0,0-11.8,15.7-16.1,17.5c-4.3,1.8-36.4,41.1-36.4,41.1s6.9,12.7,19.6,14.8c0,0,6.9-2.7,9.5-8.8
	s22.8-23.3,22.8-23.3L238.3,593.2z"/>
<path class="st19" d="M202.6,645.9c3.6,0.4,7.2,0.4,10.7,0C219.7,645.3,214.9,649.2,202.6,645.9z"/>
<path class="st19" d="M199.7,650c0,0,8.4,4.8,11.7,2.4C214.7,650,208.3,654.7,199.7,650z"/>
<path class="st19" d="M248.9,683.8c-0.3,1.3-0.4,2.5-0.4,3.8c-6.5,5.9-14.3,4.1-19.2,1.9c0-3.6-0.1-6.2-0.1-6.2
	S251.2,673.8,248.9,683.8z"/>
<path class="st47" d="M287.9,474.4l-0.2,4.4l-2,37.3c0,0-1.6,8.4-0.9,24.4s-9,41.5-9,41.5s-4.7,17.2-6.1,25s-5.9,10.3-5.9,10.3
	s1.1,8.8-2.1,11.9c-3.2,3.1-3.4,8.2-3.4,8.2s-5,27.6-6.6,30.3c-1.6,2.7-1.5,17.2-1.5,17.2c-10.4,12.4-25.7,1.1-25.7,1.1l0.2-38.7
	c0,0,4.3-35.6,7.5-40.6s3.2-18.6,3.2-18.6l-1.4-31.8c0,0-1.1-3.4-0.2-5.3s-2.7-7.2-2.7-7.2c-9-10.9-10.3-35.5-7.7-40.3
	c2.6-4.8,10.4-24.1,10.4-24.1l10.7-6.3l19.4,0.6L287.9,474.4z"/>
<path class="st19" d="M242.3,663.6c0,0,2.5,8.8,4.6,9.8S242.3,663.6,242.3,663.6z"/>
<path class="st19" d="M245.7,634.3c0,0,6.6,5.2,9.4,5.2C257.9,639.5,245.7,634.3,245.7,634.3z"/>
<path class="st42" d="M285.3,417v10.6l-7-3l-7-3l-15.2-14.9c0,0-12-7.8-18.4-14.9c-3.7-4.1-5.5-7.9-2.3-9.9c1.6-1,3-2.3,4.2-3.7
	c3.2-3.8,6-7.9,8.4-12.4c0.1-0.2,0.2-0.4,0.3-0.5c3.1-5.7,5.2-10.6,5.2-10.6s8.8,2.8,14.5,6.8c0.5,0.3,0.9,0.6,1.3,1
	c3.2,2.6,4.7,5.6,1.8,8.6c-0.7,0.8-1.4,1.6-2.1,2.5l0,0c-0.5,0.6-0.9,1.3-1.3,2c-0.2,0.3-0.3,0.6-0.5,0.9c-1.9,4-2.6,8.5-1.9,12.9
	L285.3,417z"/>
<path class="st48" d="M284.1,341.4c0.4,0.6,0.9,1.2,1.2,1.8c0.6,1.4,0.8,3,0.5,4.5c-0.2,2.4,0,4.8,0.5,7.2c0.5,2.1,1.4,4.2,1.5,6.3
	c0.1,3.1-1.5,5.9-3,8.5c1.7-0.1,3.3-0.8,4.4-2.1c0.4,1.4,0.1,2.9-0.8,4c2.5-0.1,4.7-2.1,5.6-4.4c0.9-2.4,1.1-5,0.7-7.5
	c-0.4-2.5-0.5-5-0.5-7.5c0.2-1.4,0.2-2.7,0.2-4.1c-0.2-2.7-1.9-5.1-3.5-7.3l-3.3-4.5c-0.2-0.4-0.6-0.7-0.9-0.9
	C283.6,334.2,283.2,339.9,284.1,341.4z"/>
<path class="st19" d="M271.2,371c-0.7,0.8-1.4,1.6-2.1,2.5l0,0c-0.5,0.6-0.9,1.3-1.3,2c-0.2,0.3-0.3,0.6-0.5,0.9
	c-7.5-0.4-14.4-4.2-18.9-10.2c-0.1-0.1-0.2-0.3-0.3-0.4c0.1-0.2,0.2-0.4,0.3-0.5c3.1-5.7,5.2-10.6,5.2-10.6s8.8,2.8,14.5,6.8
	c0.5,0.3,0.9,0.6,1.3,1C272.5,365,274.1,368,271.2,371z"/>
<path class="st42" d="M294,350.3c0,12.2-8.7,22.7-20.7,24.9c-1.5,0.3-3,0.4-4.6,0.4h-0.1c-0.3,0-0.6,0-0.8,0
	c-13.9-0.5-24.8-12.2-24.3-26.2c0.5-13.9,12.2-24.8,26.2-24.3C283.2,325.5,294,336.7,294,350.3L294,350.3z"/>
<path class="st19" d="M272,412.8c0,0,12.7,7.2,9.5,1.1l-16.6-24.6l0,0l18.9,24.2c0,0,12,16.5,5.5,27.9c0,0-0.9,9.5,0.2,11.7
	c1.1,2.2-0.3,26.2-0.3,26.2s-4.5-4.2-6.9-3.4c-2.4,0.8-19.4,2.2-19.4,2.2L272,412.8z"/>
<path class="st19" d="M287.9,474.4l-0.2,4.4c-1.5-1.1-3.7-2.3-5.1-1.9c-2.4,0.8-19.4,2.3-19.4,2.3l0.8-5.5L287.9,474.4z"/>
<path class="st49" d="M272.5,412.8c0,0,12.7,7.2,9.5,1.1l-16.6-24.6l0,0l18.9,24.2c0,0,12,16.5,5.5,27.9c0,0-0.9,9.5,0.2,11.7
	s-0.3,26.2-0.3,26.2s-4.5-4.2-6.9-3.4c-2.4,0.8-19.4,2.3-19.4,2.3L272.5,412.8z"/>
<path class="st19" d="M279.3,425.1c-0.7,7.7-3.9,16.9-3.9,16.9s-2.2,22.8-5.2,29.6c-2.9,6.8-1.6,16.1-3.2,33.2
	c-0.6,6.2-2.6,10.4-5.3,13.3c-4.4,4.7-10.7,5.7-15.7,5.4l-1.2-0.1c-8-0.8-15.7-39.5-15.7-39.5s-3.7-32.9-2.2-37.4
	c1.4-4.5-1.4-30.2-2.4-35.8c-0.6-3.6,1.2-9.4,2.6-13.2c0.8-2.2,1.5-3.7,1.5-3.7s2.7-8.7,7.2-13.2c1.3-1.3,3-2,4.8-2
	c2.1,0.1,4.2,0.7,5.9,1.9c0.1,0,0.1,0.1,0.2,0.1c0,0,29.2,29.9,31.9,36.8C279.5,419.3,279.6,422.1,279.3,425.1z"/>
<path class="st49" d="M278.4,424.6c-0.7,7.7-3.9,16.9-3.9,16.9s-2.2,22.8-5.1,29.5c-2.9,6.7-1.6,16.1-3.2,33.2
	c-0.6,6.2-2.6,10.4-5.3,13.3c-4.4,4.7-10.7,5.7-15.7,5.4l-1.2-0.1c-8-0.8-15.7-39.5-15.7-39.5s-3.7-32.9-2.2-37.4
	c1.4-4.5-1.4-30.2-2.4-35.8c-0.6-3.6,1.2-9.4,2.6-13.2c0.8-2.2,1.5-3.7,1.5-3.7s2.7-8.7,7.2-13.2c1.2-1.3,3-2,4.8-2
	c2.1,0.1,4.2,0.7,5.9,1.9l0.2,0.1c0,0,29.2,29.9,31.9,36.8C278.6,418.9,278.7,421.6,278.4,424.6z"/>
<path class="st19" d="M245.6,542.1c0,0-6.6,5.9-8.9,5.6C234.4,547.5,245.6,542.1,245.6,542.1z"/>
<path class="st19" d="M247.4,547.8c0,0-7,3.2-9.1,3.7C236.2,552,244.7,546.9,247.4,547.8z"/>
<path class="st19" d="M274.4,459.2c0,0,10.4,0.1,11.9,3.4C287.9,465.8,277.7,457.8,274.4,459.2z"/>
<path class="st19" d="M272.9,464.8c0,0,7.9,1.7,10.4,3.6C285.7,470.4,272.9,464.8,272.9,464.8z"/>
<path class="st19" d="M259.6,445.2c0,0-0.9,32.6-4.5,36.8S259.6,445.2,259.6,445.2z"/>
<path class="st19" d="M313.2,519.3c0,0,10.2,27.7,22.3,21.9c12.1-5.8-10.3-32.5-10.3-32.5L313.2,519.3z"/>
<path class="st42" d="M311.6,518.6c0,0,9,28.1,21.4,22.8c12.3-5.3-8.9-32.9-8.9-32.9L311.6,518.6z"/>
<path class="st19" d="M293.8,347.5c-0.4-0.6-0.7-1.1-0.9-1.8c-1.8-3.7-6.3-1.9-9.7-0.1l-1.8,2.3c-0.8,1-1.5,2-2,3.1
	c-0.3,0.9-0.6,1.9-0.9,2.8c-0.5,1.6-1.1,3.2-1.7,4.8c-2,5.3-3.2,10.9-3.5,16.5c-1.5,0.3-3,0.4-4.6,0.4h-0.1v-0.1
	c0.2-0.6,0.3-1.3,0.4-1.9l0,0c0.7-3.6,0.8-7.4,0.3-11c0-0.1,0-0.2,0-0.2c-0.1-0.8-0.3-1.6-0.3-2.5c-0.3,0.6-0.6,1.1-0.9,1.7
	c-2,3.7-4.1,7.5-7.9,9.1c-1.5,0.6-3.2,1-4.8,1.1c-2,0.1-4.1,0.4-6,1c-0.7,0.2-1.3,0.5-1.8,1.1c-0.5,0.8-0.8,1.7-0.9,2.6
	c-0.2,1.2-0.5,2.5-0.9,3.7c-1.7,4.4-4.4,8.4-7.9,11.7l-0.9,0.8c-1.5,1.5-3.3,2.8-5.2,3.6c-1.8,0.6-3.6,0.9-5.5,0.8
	c0.8-2.2,1.5-3.7,1.5-3.7s2.7-8.7,7.2-13.2c1.2-1.3,3-2,4.8-2c3.4-4,6.3-8.3,8.7-12.9c-8.3-11.2-5.9-27.1,5.4-35.3
	c11.2-8.3,27.1-5.9,35.3,5.4C291.7,338.9,293.4,343.1,293.8,347.5L293.8,347.5z"/>
<path class="st48" d="M295.5,327.8c-1.5-1.7-3.6-2.6-5.6-3.6c-0.7-0.3-1.3-0.7-1.8-1.3c-0.3-0.7-0.5-1.5-0.6-2.3
	c-0.7-4.9-5.3-8.3-9.8-10.3c-5.8-2.6-12.8-3.7-18.4-0.6c-2.7,1.5-4.9,3.8-7.3,5.7c-3.1,2.4-6.7,4-10,6.1c-3.3,2.1-6.5,4.7-8.1,8.3
	c-2.4,5.5-0.6,11.9-0.3,17.9c0.5,9.5-3.4,19.4-11.1,25.1c-0.9,0.6-1.7,1.3-2.4,2.1c-0.7,0.9-0.8,2.1-0.2,3c0.4,0.5,1,0.8,1.4,1.3
	c0.9,1,0.7,2.5,0.4,3.8c-1.1,4.2-3.3,8-6.4,11c0.1,1,1.3,1.4,2.3,1.5c2.6,0.4,5.2,0.6,7.9,0.6c4.2,0.3,8.2-1.3,11-4.4
	c4.7-4.4,8.6-9.9,9.7-16.2c0.1-0.9,0.4-1.9,0.9-2.6c0.5-0.5,1.1-0.9,1.8-1.1c3.5-1.2,7.5-0.6,10.8-2.1c4.4-1.9,6.6-6.6,8.8-10.8
	c0.1,0.8,0.2,1.6,0.4,2.5c0.7,4.4,0.4,8.9-0.7,13.2c-0.6,2.4-1.5,4.9-1.5,7.4c0,1.9,1.9,11.7,4.4,8.7c2.5-2.9,1.6-9.4,1.6-13
	c0-6.8,1.2-13.5,3.7-19.9c0.6-1.6,1.3-3.1,1.7-4.8c0.2-1,0.5-1.9,0.8-2.8c0.5-1.1,1.2-2.2,2-3.1l1.8-2.3c3.3-1.8,7.9-3.6,9.7,0.1
	c0.7,1.4,1,3,2.8,1.6c1-0.8,1.4-2.4,1.6-3.6C298,337.6,299,331.6,295.5,327.8z"/>
<path class="st19" d="M260,406.6c-9.2-14.6-32-5.6-28.7,11.4c0,0.1,0,0.2,0.1,0.3c2.3,11.4,17.8,34.9,17.8,34.9s9.8,16.1,14.5,20.6
	c4.7,4.5,18,17.6,19.4,20.1c1.5,2.5,11,9.8,13.1,9.5s6.1,4.7,7,5.4s9.5,12.7,9.5,12.7s15.1-10,14-12.7s-12-12.7-12-12.7
	s-5.7-3.4-8.3-7.2c-2.7-3.8-5.9-4.4-7.1-7.4s-3.7-3.4-4.7-5.2c-1-1.8-5.1-6-5.1-6s-3.9-0.6-4.9-3.3c-1-2.7-8.1-5.3-8-7.8
	c0.1-2.4-2.2-7.1-2.2-7.1s-10.2-20.8-12.3-26.8c-2.2-6-1.5-18-1.5-18S260.3,407.1,260,406.6z"/>
<path class="st19" d="M313.9,494.7c-1.1,6.3-5.9,10.6-10.2,13.1c-1.7-1.5-3.9-3.3-5.2-3.1c-2.1,0.4-12-6.3-13.6-8.8
	s-15.6-14.7-20.5-19c-4.9-4.3-15.6-19.8-15.6-19.8s-16.7-22.6-19.7-33.9c-0.1-0.1-0.1-0.2-0.1-0.3c-4.3-16.8,18-27,28-13
	c0.3,0.4,0.4,0.7,0.4,0.7s0.1,12,2.5,17.9c2.5,5.9,13.8,26.1,13.8,26.1s2.5,4.5,2.6,6.9s7.3,4.6,8.4,7.3c1.2,2.7,5,3,5,3
	s4.3,3.9,5.4,5.7c1.1,1.8,3.6,2,5,5c1.4,2.9,4.7,3.3,7.5,7C309.6,491.6,311.6,493.3,313.9,494.7z"/>
<path class="st49" d="M257.9,407.2c-9.4-14.5-32.1-5.2-28.5,11.7l0.1,0.3c2.5,11.4,18.2,34.7,18.2,34.7s10,15.9,14.8,20.4
	s18.2,17.4,19.7,19.9c1.5,2.5,11.1,9.6,13.2,9.3c2.1-0.3,6.1,4.6,7.1,5.3c1,0.7,9.7,12.6,9.7,12.6s15-10.2,13.8-12.9
	c-1.2-2.6-12.2-12.6-12.2-12.6s-5.7-3.3-8.4-7.1s-6-4.3-7.2-7.3c-1.2-3-3.7-3.4-4.8-5.2c-1.1-1.8-5.2-5.9-5.2-5.9s-3.9-0.5-4.9-3.2
	c-1.1-2.7-8.2-5.2-8.1-7.7c0-2.4-2.3-7-2.3-7s-10.4-20.7-12.7-26.6c-2.2-6-1.8-18-1.8-18S258.2,407.7,257.9,407.2z"/>
<path class="st19" d="M230.8,460.1c0.5-0.5,9.6-10.6,12.5-7C246.2,456.8,230.8,460.1,230.8,460.1z"/>
<path class="st19" d="M231.7,467.9c0.4-0.4,9.1-0.7,11.3-5.6S231.7,467.9,231.7,467.9z"/>
<g class="st35">
	<path d="M221.6,379.2c0.2,0.3,0.4,0.6,0.5,0.9c0.4-1.1,0.2-2.3-0.5-3.3c-0.4-0.5-1.1-0.8-1.5-1.3c0,0,0-0.1-0.1-0.1
		c-0.4,0.8-0.4,1.8,0.1,2.5C220.6,378.4,221.2,378.7,221.6,379.2z"/>
	<path d="M233.9,348c0-0.9,0-1.9,0-2.7c-0.2-3.3-0.8-6.6-0.9-9.9c-0.2,4,0.7,8.2,0.9,12.3C233.9,347.8,233.9,347.9,233.9,348z"/>
	<path d="M271.4,388.2c-2.2,2.6-4-4.9-4.4-7.9c-0.1,0.5-0.1,1-0.1,1.6c0.1,1.9,1.9,11.7,4.4,8.7c1.7-2,1.9-5.4,1.8-8.5
		C273,384.5,272.7,386.7,271.4,388.2z"/>
	<path d="M269.1,361.3c0.2,1.3,0.3,2.5,0.3,3.8c0.1-2.1,0-4.2-0.3-6.2c-0.1-0.8-0.3-1.6-0.4-2.5c-2.3,4.3-4.5,8.9-8.8,10.8
		c-3.4,1.5-7.4,0.9-10.8,2.1c-0.7,0.2-1.3,0.5-1.8,1.1c-0.5,0.8-0.8,1.7-0.9,2.6c-1.1,6.3-5,11.8-9.7,16.2c-2.8,3.1-6.8,4.8-11,4.4
		c-2.6,0-5.2-0.2-7.8-0.6c-0.4-0.1-0.8-0.2-1.2-0.3c-0.4,0.4-0.7,0.8-1.1,1.2c0.1,1,1.3,1.4,2.3,1.5c2.6,0.4,5.2,0.6,7.8,0.6
		c4.2,0.3,8.2-1.3,11-4.4c4.7-4.4,8.6-9.9,9.7-16.2c0.1-0.9,0.4-1.9,0.9-2.6c0.5-0.5,1.1-0.9,1.8-1.1c3.5-1.2,7.5-0.6,10.8-2.1
		c4.4-1.9,6.6-6.6,8.8-10.8C268.8,359.6,269,360.4,269.1,361.3z"/>
	<path d="M297.2,340.3c-0.3,1.2-0.6,2.8-1.7,3.6c-1.8,1.4-2.1-0.2-2.8-1.6c-1.8-3.7-6.3-1.9-9.7-0.1l-1.8,2.3c-0.8,1-1.5,2-2,3.1
		c-0.3,0.9-0.6,1.9-0.8,2.8c-0.5,1.6-1.1,3.2-1.8,4.8c-2.4,6.4-3.7,13.1-3.7,19.9c0,0.3,0,0.6,0,1c0.2-6.3,1.4-12.6,3.7-18.5
		c0.6-1.6,1.3-3.1,1.8-4.8c0.2-1,0.5-1.9,0.8-2.8c0.5-1.1,1.2-2.2,2-3.1l1.8-2.3c3.3-1.8,7.9-3.6,9.7,0.1c0.7,1.4,1,3,2.8,1.6
		c1-0.8,1.4-2.4,1.7-3.6c0.7-2.8,1-5.7,0.9-8.6C298,336.2,297.7,338.3,297.2,340.3z"/>
</g>
<path class="st48" d="M319.1,431.5l0.5,0.3c-0.9-0.6-1.2-1.8-0.6-2.8c0,0,0,0,0-0.1l22.3-32.3c0.6-0.9,1.8-1.1,2.7-0.5c0,0,0,0,0,0
	l-0.5-0.3c1.4,1,1.8,3,0.8,4.4l-20.9,30.4C322.5,432.1,320.5,432.5,319.1,431.5z"/>
<path class="st50" d="M343.9,395.9l0.4,0.3l0,0l-24.6,35.7l0,0l-0.4-0.3c-0.7-0.5-0.9-1.5-0.4-2.3l22.7-33
	C342.1,395.6,343.1,395.4,343.9,395.9L343.9,395.9z"/>
<path class="st48" d="M341.1,400.8L341.1,400.8c0.1,0.1,0.2,0.2,0.1,0.3l-1.8,2.6c0,0.1-0.1,0.1-0.2,0l-0.1,0c-0.1,0-0.1-0.1,0-0.2
	l1.8-2.6C340.9,400.7,341,400.7,341.1,400.8z"/>
<rect x="1059.9" y="641.2" class="st28" width="84.6" height="19.3"/>
<rect x="993.9" y="668.1" class="st28" width="38.7" height="14.7"/>
<rect x="993.9" y="696.8" class="st28" width="38.7" height="14.7"/>
<rect x="993.9" y="725.5" class="st28" width="38.7" height="14.7"/>
<polygon class="st0" points="1281.1,821.4 1269.9,831.7 1233.1,831.1 1243.2,821.4 "/>
<polygon class="st51" points="1280.8,856.7 1280.8,821.4 1269.6,831.7 1269.6,866.3 "/>
<polygon class="st0" points="1233.1,831.1 1233.1,866.3 1269.9,866.3 1269.9,831.7 "/>
<polygon class="st52" points="1233.1,831.1 1233.1,866.3 1269.9,866.3 1269.9,831.7 "/>
<polygon class="st53" points="1266.9,841.4 1239.5,837 1235.9,853.8 1264.1,858.7 "/>
<polygon class="st12" points="1260.9,844 1242.5,841.3 1242,843.5 1260.5,846.4 "/>
<polygon class="st12" points="1259.2,849.3 1242.6,848.3 1241.8,850 1259.2,851 "/>
<polygon class="st54" points="1276.3,839.9 1275.8,826 1272.9,828.7 1273.4,842.6 "/>
<polygon class="st55" points="1239.5,824.9 1274.9,825.4 1276.1,826 1273.2,828.7 1272.2,828.1 1237.1,827.2 "/>
<polygon class="st0" points="368.1,656.9 363.1,680.2 340.3,680.7 344.8,658.8 "/>
<polygon class="st51" points="401.5,708.7 401.5,668.8 387.3,680.5 387.3,719.5 "/>
<polygon class="st0" points="340.7,679.8 340.7,719.5 387.3,719.5 387.3,680.5 "/>
<polygon class="st52" points="340.7,679.8 340.7,719.5 387.3,719.5 387.3,680.5 "/>
<polygon class="st53" points="383.5,691.4 348.9,686.4 344.3,705.4 380,710.8 "/>
<polygon class="st12" points="376.7,695.8 353.4,692.8 352.8,695.3 376.1,698.6 "/>
<polygon class="st12" points="370.3,701.2 357,699.6 356.4,702.4 370.3,704 "/>
<path class="st26" d="M681,351.9l169.1,10.2c5.8,0.3,10.2,6,9.9,12.6L854.9,486c-0.3,6.6-5.2,11.7-11,11.4l-169.1-10.2
	c-5.8-0.3-10.2-6-9.9-12.6l5.1-111.3C670.3,356.6,675.2,351.5,681,351.9z"/>
<polygon class="st56" points="669.7,383.7 859,393.5 858.1,418.3 668.8,408.5 "/>
<g class="st11">
</g>
<text transform="matrix(0.8717 3.385732e-02 -2.810932e-02 0.9996 723.4218 459.7932)" class="st11 st24 st57">180,-</text>
<path class="st58" d="M1121.7,533.9l0.4,1.7l3.4,14.1l0.3,1.2c0.1,0.3,0.5,0.5,0.8,0.2c0,0,0,0,0,0c0.1-0.1,0.2-0.1,0.2-0.2l3.2-3.5
	c0.3-0.3,0.8-0.4,1-0.2l21.7,19.8c0.2,0.2,0.7,0.1,1-0.2l4.6-5c0.3-0.3,0.4-0.8,0.1-1l-21.7-19.8c-0.2-0.2-0.2-0.7,0.1-1l3.3-3.6
	c0.1-0.1,0.1-0.2,0.2-0.3c0.2-0.4,0.1-0.8-0.3-0.9c0,0,0,0,0,0l-1.3-0.2l-14.4-2.1l-1.8-0.3c-0.4,0-0.8,0.2-0.9,0.6
	C1121.7,533.6,1121.7,533.7,1121.7,533.9z"/>
<text transform="matrix(0.8874 3.444783e-02 -2.809190e-02 0.9996 628.2999 351.6823)" class="st59 st24 st60">+</text>
<text transform="matrix(0.8324 0.2959 -0.3005 0.9538 1205.4539 645.6441)" class="st11 st24 st61">RESTORE</text>
<path class="st62" d="M1206.6,609.9l107.7,38c3.7,1.3,6.1,4.3,5.3,6.6l-12.4,39.5c-0.7,2.4-4.3,3.2-8,1.9l-107.7-38
	c-3.7-1.3-6.1-4.3-5.3-6.6l12.4-39.5C1199.3,609.5,1202.9,608.6,1206.6,609.9z"/>
<polygon class="st63" points="1185.5,683.4 1195.6,659.3 1197.2,660.1 1187.2,684.2 "/>
<path class="st64" d="M779.7,216.2c-10,0.3-18,8.9-18,8.9s8.3,8.2,18.3,8c10-0.3,18-8.9,18-8.9S789.7,216,779.7,216.2z"/>
<path class="st64" d="M830.1,175.5c-9.1,5.1-19.4,1.6-19.4,1.6s4.3-11.8,13.3-16.9c9.1-5.1,19.4-1.6,19.4-1.6
	S839.2,170.4,830.1,175.5z"/>
<path class="st65" d="M829.2,170.4c-10-1.1-18.7,6.4-18.7,6.4s7.4,9.3,17.4,10.4s18.7-6.4,18.7-6.4S839.2,171.5,829.2,170.4z"/>
<path class="st65" d="M792.6,172.5c1,11.9-5.3,22.3-5.3,22.3s-7.8-8.8-8.8-20.7c-1-11.9,5.3-22.3,5.3-22.3S791.6,160.6,792.6,172.5z
	"/>
<path class="st65" d="M745.6,245.3c5.2,10.2,3.4,22.8,3.4,22.8s-10.3-3.8-15.5-14s-3.4-22.8-3.4-22.8S740.4,235.2,745.6,245.3z"/>
<path class="st65" d="M760.8,356l-0.8-0.6c2.7-4.6,4.2-10.1,4.2-15.8c0-8.3-3.4-15.9-6.7-23.3c-0.6-1.4-1.2-2.7-1.8-4.1
	c-2.5-5.6-4.4-11.4-5.8-17.5c-5.1-22.6-0.1-49.3,13.5-71.4c10.7-17.5,26.7-32.8,48.9-46.8l0.4,1c-22.1,13.9-38,29.1-48.6,46.5
	c-13.4,21.8-18.3,48.1-13.3,70.4c1.4,6,3.3,11.8,5.8,17.3c0.6,1.4,1.2,2.7,1.8,4.1c3.3,7.5,6.8,15.3,6.8,23.8
	C765.1,345.5,763.6,351.2,760.8,356z"/>
<ellipse class="st65" cx="856" cy="167.6" rx="8.7" ry="10.4"/>
<path class="st64" d="M631.3,402.5c5.1,0.2,9.2,5.7,9.2,5.7s-4.2,5.3-9.3,5.1s-9.2-5.7-9.2-5.7S626.2,402.4,631.3,402.5z"/>
<path class="st64" d="M605.5,376.4c4.6,3.3,9.9,1.1,9.9,1.1s-2.2-7.6-6.8-10.8c-4.6-3.3-9.9-1.1-9.9-1.1S600.9,373.1,605.5,376.4z"
	/>
<path class="st65" d="M606,373.1c5.1-0.7,9.6,4.1,9.6,4.1s-3.8,6-8.9,6.7c-5.1,0.7-9.6-4.1-9.6-4.1S600.9,373.8,606,373.1z"/>
<path class="st65" d="M624.7,374.4c-0.5,7.6,2.7,14.3,2.7,14.3s4-5.7,4.5-13.3c0.5-7.6-2.7-14.3-2.7-14.3S625.2,366.8,624.7,374.4z"
	/>
<path class="st65" d="M648.7,421.2c-2.7,6.5-1.8,14.6-1.8,14.6s5.3-2.5,7.9-9c2.7-6.5,1.8-14.6,1.8-14.6S651.4,414.7,648.7,421.2z"
	/>
<path class="st65" d="M641,492.2l0.4-0.4c-1.4-3-2.1-6.5-2.2-10.1c0-5.3,1.8-10.2,3.4-14.9c0.3-0.9,0.6-1.8,0.9-2.6
	c1.3-3.6,2.3-7.3,3-11.2c2.6-14.5,0-31.6-6.9-45.8c-5.5-11.2-13.7-21-25-30l-0.2,0.6c11.3,8.9,19.4,18.7,24.8,29.8
	c6.8,14,9.4,30.9,6.8,45.2c-0.7,3.8-1.7,7.5-3,11.1c-0.3,0.9-0.6,1.7-0.9,2.6c-1.7,4.8-3.5,9.8-3.5,15.3
	C638.7,485.4,639.5,489.1,641,492.2z"/>
<ellipse class="st65" cx="593.7" cy="371.6" rx="4.5" ry="6.7"/>
<rect x="721.8" y="911.6" class="st66" width="26.5" height="1.5"/>
<rect x="646.5" y="911.6" class="st66" width="26.5" height="1.5"/>
<rect x="571.1" y="911.6" class="st66" width="26.5" height="1.5"/>
<path class="st64" d="M1085.9,385.6c-6.4,0.2-11.5,6.5-11.5,6.5s5.3,6,11.7,5.8c6.4-0.2,11.5-6.5,11.5-6.5
	S1092.3,385.4,1085.9,385.6z"/>
<path class="st64" d="M1118.2,355.9c-5.8,3.7-12.5,1.2-12.5,1.2s2.8-8.6,8.6-12.3c5.8-3.7,12.5-1.2,12.5-1.2
	S1124,352.2,1118.2,355.9z"/>
<path class="st65" d="M1117.6,352.2c-6.4-0.8-12,4.7-12,4.7s4.8,6.8,11.2,7.6c6.4,0.8,12-4.7,12-4.7S1124,353,1117.6,352.2z"/>
<path class="st65" d="M1094.1,353.7c0.6,8.7-3.4,16.3-3.4,16.3s-5-6.4-5.6-15.1c-0.6-8.7,3.4-16.3,3.4-16.3
	S1093.5,345.1,1094.1,353.7z"/>
<path class="st65" d="M1064,406.8c3.4,7.4,2.2,16.6,2.2,16.6s-6.6-2.8-10-10.2c-3.4-7.4-2.2-16.6-2.2-16.6S1060.6,399.4,1064,406.8z
	"/>
<path class="st65" d="M1073.7,487.5l-0.5-0.4c1.7-3.4,2.7-7.4,2.7-11.5c0-6-2.2-11.6-4.3-17c-0.4-1-0.8-2-1.2-3
	c-1.6-4.1-2.8-8.3-3.8-12.7c-3.3-16.5-0.1-35.9,8.6-52c6.9-12.8,17.2-23.9,31.4-34.1l0.3,0.7c-14.1,10.1-24.3,21.2-31.2,33.9
	c-8.6,15.9-11.8,35.1-8.5,51.3c0.9,4.4,2.1,8.6,3.7,12.6c0.4,1,0.8,2,1.2,3c2.1,5.5,4.4,11.1,4.4,17.3
	C1076.5,479.8,1075.5,484,1073.7,487.5z"/>
<ellipse class="st65" cx="1134.8" cy="350.2" rx="5.6" ry="7.6"/>
<path class="st3" d="M226.1,244.2c0,13.4-7.1,20.2-21.2,20.2h-72.1c-14,0-21.2-6.8-21.2-20.2V78.7c0-13.4,7.1-20.2,21.2-20.2h72.1
	c14,0,21.2,6.8,21.2,20.2V244.2z"/>
<ellipse class="st4" cx="169.2" cy="250.3" rx="8.5" ry="8.1"/>
<path class="st6" d="M182.3,73.7c0,1.3-1.1,2.4-2.5,2.4h-21.9c-1.4,0-2.5-1.1-2.5-2.4l0,0c0-1.3,1.1-2.4,2.5-2.4h21.9
	C181.2,71.3,182.3,72.4,182.3,73.7L182.3,73.7z"/>
<linearGradient id="SVGID_5_" gradientUnits="userSpaceOnUse" x1="-100.7906" y1="393.6877" x2="-100.7906" y2="433.8803" gradientTransform="matrix(3.7418 0 0 3.7418 545.7474 -1388.8485)">
	<stop  offset="0" style="stop-color:#6B809C"/>
	<stop  offset="0.703" style="stop-color:#5068B0"/>
	<stop  offset="1" style="stop-color:#5068B0"/>
</linearGradient>
<rect x="117" y="84.3" class="st67" width="103.3" height="150.4"/>
<rect x="117" y="84.3" class="st7" width="103.3" height="8.2"/>
<g>
	<ellipse class="st8" cx="204.8" cy="88.1" rx="2.2" ry="2.1"/>
	<ellipse class="st8" cx="122.2" cy="88.1" rx="2.2" ry="2.1"/>
	<ellipse class="st8" cx="214.8" cy="88.1" rx="2.2" ry="2.1"/>
</g>
<rect x="117" y="98.3" class="st9" width="103.8" height="136.4"/>
<g class="st68">
	<rect x="125.9" y="197" class="st14" width="42" height="29.6"/>
</g>
<rect x="117" y="92.7" class="st10" width="103.8" height="5.5"/>
<g class="st11">
	<rect x="135.5" y="106.7" class="st12" width="66.7" height="2.6"/>
</g>
<rect x="193.3" y="106.7" class="st12" width="8.9" height="2.6"/>
<g class="st68">
	<rect x="125.9" y="159.2" class="st14" width="42" height="29.6"/>
</g>
<g class="st68">
	<rect x="125.9" y="120.8" class="st14" width="42" height="29.6"/>
</g>
<g class="st68">
	<rect x="169.8" y="159" class="st14" width="42" height="29.6"/>
</g>
<g class="st13">
	<rect x="169.8" y="120.8" class="st14" width="42" height="29.6"/>
</g>
<g class="st68">
	<rect x="169.8" y="197" class="st14" width="42" height="29.6"/>
</g>
<g class="st69">
	<path class="st70" d="M141.9,124.8c1,0,1.9,0.3,2.8,0.8c0,0,2.5,0.3,3.9,0c1.4-0.3,2.1-1.4,2.3-1.1c0.3,0.3,0.3,3.1,0.3,3.1
		l-1.2,3.1l-2.7,2l-4.3-1.2l-1.4-3.5L141.9,124.8z"/>
	<path class="st71" d="M151.2,127.6l-1.2,3.1l-2.7,2l-4.3-1.2l-1.4-3.6l0.3-3.2h0.1c1,0,1.9,0.3,2.7,0.8c0,0,2.5,0.3,3.9,0
		c1.3-0.3,2-1.3,2.3-1.1l0,0c0,0,0,0,0,0C151.2,124.8,151.2,127.6,151.2,127.6z"/>
	<path class="st71" d="M151.2,127.6l-1.2,3.1l-2.7,2l-4.3-1.2l-1.4-3.6l0.3-3.2h0.1c0.2,1,1.2,4.2,4.5,4.4c3.3,0.2,4.3-3.7,4.5-4.7
		c0,0,0,0,0,0C151.2,124.8,151.2,127.6,151.2,127.6z"/>
	<path class="st70" d="M141.9,124.8c0,0,0.7,4.4,4.5,4.7c3.8,0.3,4.5-5,4.5-5s5.6,1.8,6.9,5c1.3,3.2,2.3,5.8,2.3,5.8
		s-0.4,0.7-0.9,0.8c-0.5,0.1-3.6,2.2-3.6,2.2s0,6.1,0.3,6.5c0.3,0.4,0.2,2-0.8,1.9c-1-0.1-8.2-1.7-14.4-0.3c0,0-2.6,0.9-2.5-0.6
		c0.1-1.5,0.2-7.3,0.2-7.3s-3.9-1.7-4.1-1.7c-0.2,0-0.8-0.3-0.2-1.3c0.6-1,1.4-4.3,1.4-4.3S137,126.4,141.9,124.8z"/>
	<path class="st71" d="M153.8,132.7c0,0,1.2,0.8,0.9,1.5S153.8,132.7,153.8,132.7z"/>
	<path class="st71" d="M155.5,133.5c-0.1,0.4-0.1,0.8,0,1.1"/>
	<path class="st71" d="M156.3,135.6c0,0,0.2,1-0.3,1.1"/>
	<path class="st71" d="M140.6,132.5c0,0-2.2,1.8-1.4,2.6"/>
	<path class="st71" d="M139.3,136.9c0,0,0,1.9,0.6,2.1"/>
	<path class="st71" d="M145.5,143.4c0,0,1.5-1,1.8-0.9"/>
	<path class="st71" d="M146.9,144.4c0,0,1.6-1.1,2-1"/>
</g>
<g class="st68">
	<path class="st70" d="M181.2,162c0,0,12.6,0.6,18.8,0.2l-0.1,1.6l-11.1,1.4l-3.3-1L181.2,162z"/>
	<path class="st71" d="M200,162.2l-0.1,1.6l-11.1,1.4l-3.3-1l-4.4-2.3c0,0,0.3,0,0.7,0l0,0c2.7,0.1,12.5,0.5,17.9,0.2L200,162.2z"/>
	<path class="st70" d="M204.4,185.3c-2.4,1.4-10.9,0-10.9,0l-2.3-8.2l-2.6,8.3c-3.7,1.3-11.4-0.6-11.4-0.6l3-18l0.5-2.5l0.5-2.4
		l4.7,1.4c0,0,1.4,0.9,7.3,0.7c5.9-0.3,6.8-1.8,6.8-1.8c0.3,0.1,0.5,1,0.8,2.1c0.4,1.6,0.7,3.7,1.2,4.4
		C202.7,169.9,204.4,185.3,204.4,185.3z"/>
	<path class="st71" d="M200.8,164.5c-5.3,2.8-9.8,2.8-9.8,2.8c-1.1,0.1-10.3-2.7-10.3-2.7l0.5-2.4l4.7,1.4c0,0,1.4,0.9,7.3,0.7
		c5.9-0.3,6.8-1.8,6.8-1.8C200.3,162.5,200.5,163.4,200.8,164.5z"/>
	<path class="st71" d="M200,162.2l-0.1,1.6l-11.1,1.4l-3.3-1l-4.4-2.3c0,0,0.3,0,0.7,0l0,0l4,1.2c0,0,1.4,0.9,7.3,0.7
		c4.6-0.2,6.2-1.2,6.6-1.7L200,162.2z"/>
	<path class="st70" d="M200.8,164.3c-5.3,2.8-9.8,2.8-9.8,2.8c-1.1,0.1-10.3-2.7-10.3-2.7l0.5-2.4l4.7,1.4c0,0,1.4,0.9,7.3,0.7
		c5.9-0.3,6.8-1.8,6.8-1.8C200.3,162.3,200.5,163.2,200.8,164.3z"/>
	<ellipse class="st71" cx="191.9" cy="166.2" rx="0.5" ry="0.5"/>
	<ellipse class="st72" cx="191.9" cy="166" rx="0.5" ry="0.5"/>
	<path class="st71" d="M179.6,174.5c0,0,0.8,2.5,1.4,2.4C181.6,176.9,179.6,174.5,179.6,174.5z"/>
	<path class="st71" d="M179,176.9c0,0,0.5,1.5,1.1,1.7"/>
	<path class="st71" d="M179,178.5c0,0,0.8,1,1.3,1.3"/>
	<path class="st71" d="M201.4,169.1c0,0,0.8,1.1,0,1.4"/>
	<path class="st71" d="M201.7,171c-0.9-1.1-0.3,1.4-0.3,1.4S202,171.2,201.7,171z"/>
	<path class="st71" d="M202.2,172.2c0,0-1.4,2-1.1,2.2"/>
	<path class="st71" d="M184,169.1c-1.7,0-3.4-0.7-3.5-0.8l0.1-0.2c0,0,3.4,1.5,5.2,0.4c0.7-0.4,1.1-1.1,1.1-2.1l0.2,0
		c-0.1,1.1-0.5,1.8-1.2,2.3C185.3,169,184.7,169.2,184,169.1z"/>
	<path class="st70" d="M184,169c-1.7,0-3.4-0.7-3.5-0.8l0.1-0.2c0,0,3.4,1.4,5.2,0.4c0.7-0.4,1.1-1.1,1.1-2.1l0.2,0
		c-0.1,1.1-0.5,1.8-1.2,2.3C185.3,168.8,184.7,169,184,169z"/>
	<path class="st71" d="M197.8,169.3c-0.4,0-0.9-0.1-1.2-0.3c-1.4-0.6-1.6-2.2-1.6-2.3l0.2,0c0,0,0.2,1.6,1.5,2.2
		c1.1,0.5,2.8,0.2,4.8-1l0.1,0.2C200.1,168.8,198.9,169.3,197.8,169.3z"/>
	<path class="st70" d="M197.8,169.1c-0.4,0-0.9-0.1-1.2-0.3c-1.4-0.6-1.6-2.2-1.6-2.3l0.2,0c0,0,0.2,1.6,1.5,2.2
		c1.1,0.5,2.8,0.2,4.8-1l0.1,0.2C200.1,168.7,198.9,169.1,197.8,169.1z"/>
</g>
<path class="st73" d="M141.6,162.4c0,0-0.8-0.1-0.4,0.9c0.4,1,1.2,4.2,0.8,4.9s-0.2,2.5-1.9,2.8l0.5,1.9c0,0,0.1,4.1-0.1,4.7
	c-0.2,0.6-0.2,3.9-0.2,4.3c0.1,0.3,0,2.6-0.2,2.7c-0.3,0.1-0.4,1.2,0.4,1.4c0.8,0.2,4.4,0.3,5,0.5c0.6,0.2,5.2,0,5.2,0
	s1.9-0.3,2.4-0.4s0.6-0.5,0.4-1.3c-0.2-0.7-0.9-6-0.7-6.6c0.2-0.7,0.2-7.1,0.2-7.1s-1.2-0.4-1.2-1.6c0-1.2-0.5-4.4,0.5-6.4
	c0,0-0.8-0.5-0.9-0.4c-0.1,0.1-1.3-0.2-1.3-0.2s-0.6,5.5-3.2,5.5s-3.8-5.5-3.8-5.5S143.1,161.6,141.6,162.4z"/>
<path class="st19" d="M145.5,179.8c0,0,0.5,1.3,1.4,1.5C147.8,181.4,145.5,179.8,145.5,179.8z"/>
<path class="st19" d="M144.6,180.8c0,0,1.7,1.4,1.7,1.7"/>
<path class="st19" d="M141.1,172.6c0,0,1.4,0.9,1.4,1.6"/>
<path class="st19" d="M142.1,175.4c0,0-0.4-1.3-0.6-1.6"/>
<path class="st19" d="M141.4,175.9c0,0,0.6,1.1,0.6,1.4"/>
<path class="st19" d="M152.6,173.6c0,0-1.8,0.5-1.6,1.2"/>
<path class="st19" d="M151,179.8c0,0,2.3-2.7,1.6-2.6C151.9,177.2,151,179.8,151,179.8z"/>
<g class="st35">
	<path d="M151.9,169c0-0.6-0.1-1.5-0.1-2.6c0,1.3,0.1,2.4,0.1,3c0,1.2,1.2,1.6,1.2,1.6c0-0.3,0-0.4,0-0.4S151.9,170.2,151.9,169z"/>
	<path d="M153.7,184.8c0,0.1,0,0.2,0.1,0.3c0-0.2,0-0.5-0.1-0.7c-0.1-0.6-0.7-4.6-0.8-6.1C152.9,179.4,153.6,184.1,153.7,184.8z"/>
	<path d="M140.4,180.7c0-1.1,0.1-2.7,0.2-3.1c0.1-0.3,0.1-1.6,0.1-2.8c0,1,0,2.1-0.1,2.4C140.5,177.7,140.4,179.6,140.4,180.7z"/>
	<path d="M141.7,162.6c1.5-0.8,1.4-0.3,1.4-0.3s1.2,5.5,3.8,5.5c2.6,0,3.2-5.5,3.2-5.5s1.2,0.3,1.3,0.2c0.1-0.1,0.6,0.2,0.8,0.4
		c0-0.1,0.1-0.2,0.1-0.3c0,0-0.8-0.5-0.9-0.4s-1.3-0.2-1.3-0.2s-0.6,5.5-3.2,5.5s-3.8-5.5-3.8-5.5s0-0.5-1.4,0.3
		c0,0-0.7-0.1-0.5,0.6C141.3,162.5,141.7,162.6,141.7,162.6z"/>
	<path d="M140.3,184.6c0.2-0.1,0.3-1.5,0.3-2.3c0,0.8-0.1,1.8-0.3,1.8c-0.2,0.1-0.2,0.4-0.2,0.7
		C140.1,184.8,140.2,184.7,140.3,184.6z"/>
	<path d="M142.1,168.3c0.1-0.3,0.1-0.6,0.1-0.8c0,0.1,0,0.3-0.1,0.4c-0.4,0.7-0.2,2.5-1.9,2.8l0.1,0.4
		C141.9,170.7,141.7,169,142.1,168.3z"/>
</g>
<path class="st74" d="M151.4,200.7c-0.8,0.9-8.8,0-8.8,0l0-0.1l0.2-0.7h8.4L151.4,200.7L151.4,200.7z"/>
<path class="st19" d="M151.4,200.7c-0.8,1.4-8.8,0-8.8,0l0-0.1c0.4,0,6.2-0.1,8.7,0L151.4,200.7z"/>
<path class="st75" d="M142.6,200.7L142.6,200.7c0,0-1.4,0.4-3.7,6.3s-3,13.6-3,13.6s-1.2,2.1,4.1,2.2c0,0-0.4,1.4,2.6,1.2
	c3-0.2,2.6-0.2,2.6-0.2s1.9-1.2,2.8-1c0.9,0.2,1.4,0.3,2.3,1.1c0.9,0.8,3.9,0.5,3.9-0.1c0-0.3,0-0.6,0-0.9c0,0,4.5,0.3,3.7-3
	c-0.9-3.2-1.6-8.6-1.6-8.6s-2.3-10.4-5-10.5C148.7,200.5,142.6,200.7,142.6,200.7z"/>
<polygon class="st19" points="139.9,222.7 141.6,204.8 141.8,204.8 140.1,222.8 "/>
<rect x="135.7" y="214.1" transform="matrix(3.904546e-03 -1 1 3.904546e-03 -69.5918 358.5784)" class="st19" width="18.9" height="0.1"/>
<path class="st15" d="M149.6,204.8"/>
<polygon class="st19" points="149.5,204.8 149.7,204.8 150.4,223.7 150.2,223.8 "/>
<path class="st19" d="M154.2,222.7c-0.2-10.8-2.1-18.2-2.1-18.3l0.1,0c0,0.1,1.9,7.5,2.2,18.3L154.2,222.7z"/>
<path class="st19" d="M142.8,201.7c0,0-0.2,0.1,0,0.8"/>
<path class="st19" d="M143.6,201.7c0,0-0.7,0.4,0,1.1"/>
<path class="st19" d="M149.9,201.7c0,0,0.9,0.9,0.7,1.1"/>
<path class="st19" d="M150.7,201.5c0,0,0.1,1.1,0.7,1.3"/>
<g class="st69">
	<path class="st70" d="M188.7,199.8c0,0,3.5-1.4,5,0.3c1.5,1.7-1,3.7-1,3.7l-1.1,2.1l-2.5-0.3l-0.6-2.9L188.7,199.8z"/>
	<path class="st71" d="M192.7,203.9l-1.1,2.1l-2.5-0.3l-0.6-2.9l0.2-2.9l0.1,0c0.4-0.2,3.5-1.2,4.9,0.2c0,0,0.1,0.1,0.1,0.1
		C195.3,201.8,192.7,203.9,192.7,203.9z"/>
	<path class="st71" d="M192.7,203.9l-1.1,2.1l-2.5-0.3l-0.6-2.9l0.2-2.9l0.1,0c0.4,2.3,1.6,3.3,1.8,3.5l0,0l0.7-0.1
		c1.4-0.8,2.1-2.5,2.4-3.2c0,0,0.1,0.1,0.1,0.1C195.3,201.8,192.7,203.9,192.7,203.9z"/>
	<path class="st70" d="M198.8,211.9c0,0-0.8,9.7-0.6,10.9s-0.4,1.3-0.4,1.3s-2.8,0.6-3.3,0.2s-1.4-0.5-1.4-0.5s-2.1,0.5-3,0.1
		c-0.9-0.4-2.5-0.2-2.5-0.2s-1.2,0.7-1.5,0.6s-0.7-0.1-1.7-0.4c-1-0.3-1.5-0.5-1-2.1s0.1-6.7,0-7.3s-0.3-2.1-0.7-3.9
		c-0.4-1.8,0.7-1.4,0.7-1.4c2.7-1.3,1.6-4,1.1-5.2c-0.4-1.2,0.2-1.2,0.6-1.2c0.3,0,1.6-1.1,1.6-1.1l0.5-0.4l1.5-1.4
		c0.4,2.6,1.6,3.6,1.8,3.8l0,0l0.7-0.1c1.7-0.9,2.4-3.5,2.4-3.5c0.2,0.3,0.7,0.7,1.2,1.1c0.7,0.5,1.4,0.9,2.1,1.3
		c1.2,0.7,0.3,1.5,0.3,1.5c-1.5,5.1,0.6,5.3,0.6,5.3C199.6,209.6,198.8,211.9,198.8,211.9z"/>
	<path class="st71" d="M187.1,202.7c0,0-0.4,0.2-0.4,0.5"/>
	<path class="st71" d="M187.4,203.2c0,0-0.6,0.6-0.5,0.8"/>
	<path class="st71" d="M187.4,204c0,0-0.4,0.5-0.3,0.7"/>
	<path class="st71" d="M190.4,204l-1.9,1.8c-0.1-2-1-3.6-1.5-4.2l1.5-1.4C188.9,202.8,190.2,203.9,190.4,204z"/>
	<path class="st70" d="M190.5,203.7l-1.9,1.8c-0.1-2-1-3.6-1.5-4.2l1.5-1.4C189.1,202.4,190.3,203.5,190.5,203.7z"/>
	<path class="st71" d="M195.1,201.6c-0.7,1.2-2.1,4.2-2.1,4.2l-1.5-1.8c1.7-0.9,2.4-3.5,2.4-3.5
		C194.1,200.8,194.6,201.2,195.1,201.6z"/>
	<path class="st70" d="M194.9,201.3c-0.7,1.2-2.1,4.2-2.1,4.2l-1.5-1.8c1.7-0.9,2.4-3.5,2.4-3.5
		C193.9,200.5,194.4,200.9,194.9,201.3z"/>
	<path class="st71" d="M193.8,220c0,0-0.3,2.7-0.5,2.8"/>
	<path class="st71" d="M196.4,220.5c0,0,0.4,1.9,0.2,2.3"/>
	<path class="st71" d="M188.8,220.6c0,0-0.3,1.8,0,2"/>
	<path class="st71" d="M186.9,220.4c0,0-0.3,2.1-0.2,2.5"/>
	<path class="st71" d="M196.9,210.1c0,0-0.8,0.6-0.8,0.8"/>
	<path class="st71" d="M197.5,210.5c0,0-1.6,1.3-0.8,1.2C197.5,211.5,197.5,210.5,197.5,210.5z"/>
</g>
<path class="st16" d="M213.4,149.2c0,2-1.6,3.5-3.6,3.5s-3.6-1.6-3.6-3.5s1.6-3.5,3.6-3.5c0,0,0,0,0,0
	C211.8,145.7,213.4,147.3,213.4,149.2z M209.4,151.1l2.7-2.6c0.1-0.1,0.1-0.2,0-0.3l-0.3-0.3c-0.1-0.1-0.2-0.1-0.3,0c0,0,0,0,0,0
	l-2.2,2.1l-1-1c-0.1-0.1-0.2-0.1-0.3,0l-0.3,0.3c-0.1,0.1-0.1,0.2,0,0.3c0,0,0,0,0,0l1.5,1.5C209.1,151.2,209.3,151.2,209.4,151.1
	C209.4,151.1,209.4,151.1,209.4,151.1L209.4,151.1z"/>
<linearGradient id="SVGID_6_" gradientUnits="userSpaceOnUse" x1="269.3255" y1="1084.6914" x2="269.3255" y2="1096.4558" gradientTransform="matrix(1 0 0 -1 -58 1209.8253)">
	<stop  offset="0" style="stop-color:#808080;stop-opacity:0.25"/>
	<stop  offset="0.54" style="stop-color:#808080;stop-opacity:0.12"/>
	<stop  offset="1" style="stop-color:#808080;stop-opacity:0.1"/>
</linearGradient>
<path class="st76" d="M218.5,113.4h-14.3c-0.4,0-0.7,0.4-0.7,0.8l0,0v10.2c0,0.4,0.3,0.8,0.7,0.8l0,0h14.3c0.4,0,0.7-0.4,0.7-0.8
	l0,0v-10.2C219.1,113.7,218.8,113.4,218.5,113.4L218.5,113.4z"/>
<path class="st77" d="M204.6,113.4h14.5c0.5,0,0.9,0.5,0.9,1v9.6c0,0.6-0.4,1-0.9,1h-14.5c-0.5,0-0.9-0.5-0.9-1v-9.6
	C203.7,113.8,204.1,113.4,204.6,113.4z"/>
<rect x="203.7" y="115.1" class="st77" width="16.3" height="3"/>
<g class="st11">
</g>
<text transform="matrix(0.8709 0 0 1 206.9555 121.5328)" class="st78"><tspan x="0" y="0" class="st11 st24 st79">90-190,-</tspan></text>
<path class="st80" d="M211.2,124.8c0,1.7-3.4,3-7.6,3"/>
<path class="st12" d="M179.7,125.9c0,0-0.4-1,2.3-0.7c2.7,0.2,10.4,1.1,13.7,0.4s5.3-1,5.1,0c-0.2,1-5.7,3.2-5.7,3.2l-7.2,0.7
	l-5.3-0.8l-2.8-1.7L179.7,125.9z"/>
<path class="st17" d="M200.7,125.5c-0.2,1-5.7,3.2-5.7,3.2l-7.2,0.7l-5.3-0.8l-2.8-1.7l0-1c-0.1-0.2,0-0.4,0.2-0.5
	c0.2-0.2,0.8-0.4,2.1-0.3c2.7,0.2,10.4,1.1,13.7,0.4c2.7-0.6,4.5-0.9,5-0.4C200.7,125.2,200.8,125.4,200.7,125.5z"/>
<path class="st18" d="M205,140.7c-4.6,0.9-9,2.8-12.7,5.7c-0.2-0.5-0.5-0.9-1-1.2c-0.3-0.2-0.7-0.3-1-0.4c-0.3-0.1-0.7,0.1-0.9,0.4
	c-0.3,0.4-0.6,0.8-0.8,1.3c-5.1-3.5-12.7-5.7-12.7-5.7v-0.7c0-0.1,0-0.3,0-0.5s0.1-0.4,0.1-0.6c0.7-3.3,3.2-10.9,3.2-10.9h0.8h2.1
	l5.6,1.2l6.3-0.4l6.4-1.3l0.8-0.2c1.4,1.1,2.9,8.7,3.6,12c0.1,0.4,0.1,0.8,0.2,1C205,140.5,205,140.7,205,140.7z"/>
<path class="st12" d="M176.8,139.2c0.2-3.2,2.7-10.1,3.1-11.3h-0.8c0,0-2.7,8.1-3.3,11.2c0,0,0,0,0,0c0,0.1,0,0.2,0,0.2
	c0,0.2,0,0.4,0,0.5v0.7c0,0,7.7,2.2,12.7,5.7c0.2-0.5,0.5-0.9,0.8-1.3C187.3,143.3,180,140.4,176.8,139.2z"/>
<path class="st12" d="M204.9,140.2c0-0.1,0-0.2-0.1-0.4c0-0.2-0.1-0.4-0.1-0.6l0,0c-0.6-3.3-2.2-10.9-3.6-12l-0.8,0.2
	c0.5,1.4,3.7,10.2,3.5,12c-5.4,1.1-10.9,4.6-12.6,5.8c0.5,0.3,0.8,0.7,1,1.2c3.8-2.8,8.1-4.8,12.7-5.7
	C205,140.7,205,140.5,204.9,140.2z"/>
<path class="st19" d="M177,139c0.2-3.2,2.7-10.1,3.1-11.3h-0.8c0,0-2.7,8.1-3.3,11.2c0,0,0,0,0,0c0,0.1,0,0.2,0,0.2
	c0,0.2,0,0.4,0,0.5v0.7c0,0,7.7,2.2,12.7,5.7c0.2-0.5,0.5-0.9,0.8-1.3C187.5,143.1,180.2,140.2,177,139z"/>
<path class="st20" d="M176.8,139.2c0.2-3.2,2.7-10.1,3.1-11.3h-0.8c0,0-2.7,8.1-3.3,11.2c0,0,0,0,0,0c0,0.1,0,0.2,0,0.2
	c0,0.2,0,0.4,0,0.5v0.7c0,0,7.7,2.2,12.7,5.7c0.2-0.5,0.5-0.9,0.8-1.3C187.3,143.3,180,140.4,176.8,139.2z"/>
<path class="st19" d="M204.7,140l-0.1-0.4c0-0.2-0.1-0.4-0.1-0.6l0,0c-0.6-3.3-2.2-10.9-3.6-12l-0.8,0.2c0.5,1.4,3.7,10.2,3.5,12
	c-5.4,1.1-10.9,4.6-12.6,5.8c0.5,0.3,0.8,0.7,1,1.2c3.8-2.8,8.1-4.8,12.7-5.7C204.8,140.5,204.8,140.3,204.7,140z"/>
<path class="st20" d="M204.9,140.2c0-0.1,0-0.2-0.1-0.4c0-0.2-0.1-0.4-0.1-0.6l0,0c-0.6-3.3-2.2-10.9-3.6-12l-0.8,0.2
	c0.5,1.4,3.7,10.2,3.5,12c-5.4,1.1-10.9,4.6-12.6,5.8c0.5,0.3,0.8,0.7,1,1.2c3.8-2.8,8.1-4.8,12.7-5.7
	C205,140.7,205,140.5,204.9,140.2z"/>
<path class="st19" d="M178.7,131.9c0,0,5,3.2,6.2-1.5l1.1,0.3c0,0,0.4,5.2-7.7,2.2L178.7,131.9z"/>
<path class="st20" d="M178.7,131.5c0,0,5,3.2,6.2-1.5l1.1,0.3c0,0,0.4,5.2-7.7,2.2L178.7,131.5z"/>
<path class="st19" d="M194.5,130.5c0,0,0.7,3.8,7.5,2l-0.2-0.7c0,0-4.7,2-6.4-1.4L194.5,130.5z"/>
<path class="st20" d="M194.5,130.1c0,0,0.7,3.8,7.5,2l-0.2-0.7c0,0-4.7,2-6.4-1.4L194.5,130.1z"/>
<path class="st19" d="M189.9,130.5v8h1.2c0,0,1.7-0.6,1.7-4.2s-0.3-4.5-0.3-4.5L189.9,130.5z"/>
<path class="st20" d="M189.7,130.3v8h1.2c0,0,1.7-0.6,1.7-4.2s-0.3-4.5-0.3-4.5L189.7,130.3z"/>
<path class="st19" d="M201.2,127.6c-0.5,0.9-5,2.5-5.8,2.7l-0.1,0c0,0-0.3,0.1-0.8,0.2c-1.5,0.3-4.7,0.9-7.2,0.4
	c-0.4-0.1-0.7-0.1-1.1-0.2l-0.9-0.2c-2.8-0.6-5.7-1.5-6.2-2.2c0,0,0.1-2.4,0.6-2.3s5.8,2.3,5.8,2.3l0.1,0c0.1,0,0.4,0.1,0.9,0.1
	c1.7,0.2,5.3,0.5,7.3,0c0.1,0,0.2-0.1,0.3-0.1c0.1-0.1,0.3-0.1,0.5-0.2c2.5-0.9,6.3-2.5,6.3-2.5S201.7,126.6,201.2,127.6z"/>
<path class="st19" d="M200.7,125.5c-0.2,1-5.7,3.2-5.7,3.2l-7.2,0.7l-5.3-0.8l-2.8-1.7l0-1c-0.1-0.2,0-0.4,0.2-0.5
	c0.9,0.3,5.6,2.3,5.6,2.3l0.1,0c0.1,0,0.4,0.1,0.9,0.1c1.7,0.2,5.3,0.5,7.3,0c0.1,0,0.2-0.1,0.3-0.1c0.1,0,0.3-0.1,0.5-0.2
	c2.3-0.8,5.6-2.2,6.2-2.5C200.7,125.2,200.8,125.4,200.7,125.5z"/>
<path class="st20" d="M201.2,127.2c-0.5,0.9-5,2.5-5.8,2.7l-0.1,0c0,0-0.3,0.1-0.8,0.2c-1.5,0.3-4.7,0.9-7.2,0.4
	c-0.4-0.1-0.7-0.1-1.1-0.2l-0.9-0.2c-2.8-0.6-5.7-1.5-6.2-2.2c0,0,0.1-2.4,0.6-2.3s5.8,2.3,5.8,2.3l0.1,0c0.1,0,0.4,0.1,0.9,0.1
	c1.7,0.2,5.3,0.5,7.3,0c0.1,0,0.2-0.1,0.3-0.1c0.1,0,0.3-0.1,0.5-0.2c2.5-0.9,6.3-2.5,6.3-2.5S201.7,126.2,201.2,127.2z"/>
<ellipse class="st19" cx="190.7" cy="129.7" rx="0.8" ry="0.8"/>
<ellipse class="st21" cx="190.7" cy="129.5" rx="0.8" ry="0.8"/>
<path class="st19" d="M186.6,128l-0.2,2.3l-0.9-0.2l0.2-2.2C185.9,128,186.2,128,186.6,128z"/>
<path class="st21" d="M186.4,128l-0.2,2.3l-0.9-0.2l0.2-2.2C185.7,128,186,128,186.4,128z"/>
<path class="st19" d="M195.2,129.9l-0.1,0c0,0-0.3,0.1-0.8,0.2l-0.7-2.1c0.1,0,0.2-0.1,0.3-0.1c0.1,0,0.3-0.1,0.5-0.2L195.2,129.9z"
	/>
<path class="st21" d="M195.4,129.9l-0.1,0c0,0-0.3,0.1-0.8,0.2l-0.7-2.1c0.1,0,0.2-0.1,0.3-0.1c0.1,0,0.3-0.1,0.5-0.2L195.4,129.9z"
	/>
<text transform="matrix(0.9834 -1.172351e-02 1.447806e-02 0.9999 125.9122 111.6381)" class="st26 st24 st81">+</text>
<path class="st64" d="M250.6,135.1c-3.3,0.1-5.9,3.4-5.9,3.4s2.7,3.2,6,3.1s5.9-3.4,5.9-3.4S253.8,135,250.6,135.1z"/>
<path class="st64" d="M267,119.5c-2.9,2-6.3,0.6-6.3,0.6s1.4-4.5,4.3-6.5c2.9-2,6.3-0.6,6.3-0.6S269.9,117.5,267,119.5z"/>
<path class="st65" d="M266.7,117.5c-3.2-0.4-6.1,2.5-6.1,2.5s2.4,3.6,5.7,4c3.2,0.4,6.1-2.5,6.1-2.5S269.9,117.9,266.7,117.5z"/>
<path class="st65" d="M254.8,118.3c0.3,4.6-1.7,8.6-1.7,8.6s-2.5-3.4-2.9-8c-0.3-4.6,1.7-8.6,1.7-8.6S254.4,113.8,254.8,118.3z"/>
<path class="st65" d="M239.5,146.3c1.7,3.9,1.1,8.8,1.1,8.8s-3.3-1.5-5.1-5.4c-1.7-3.9-1.1-8.8-1.1-8.8S237.8,142.4,239.5,146.3z"/>
<path class="st65" d="M244.4,188.8l-0.2-0.2c0.9-1.8,1.4-3.9,1.4-6.1c0-3.2-1.1-6.1-2.2-8.9c-0.2-0.5-0.4-1.1-0.6-1.6
	c-0.8-2.1-1.4-4.4-1.9-6.7c-1.7-8.7,0-18.9,4.4-27.4c3.5-6.7,8.7-12.6,15.9-18l0.1,0.4c-7.2,5.3-12.4,11.2-15.8,17.8
	c-4.4,8.4-6,18.5-4.3,27c0.5,2.3,1.1,4.5,1.9,6.6c0.2,0.5,0.4,1,0.6,1.6c1.1,2.9,2.2,5.9,2.2,9.1
	C245.8,184.8,245.3,186.9,244.4,188.8z"/>
<path class="st58" d="M1155.6,558.3c-3.6-2.7-7.7-4.9-11.9-6.9l12.8,21.9c0.2,0.4,0.9,0.6,1.6,0.5l7.1-1.6
	C1164.1,567.2,1161.1,562.4,1155.6,558.3z"/>
<path class="st58" d="M1162.3,565.5c-0.4-0.6-0.9-1.1-1.3-1.7c-2-0.2-4.1,0-6.1,0.3l3.7,17.9c0.1,0.5,0.7,0.8,1.4,0.8l7.2-0.3
	C1167.6,576.9,1166.2,571,1162.3,565.5z"/>
<rect x="299" y="801.1" transform="matrix(0.1268 -0.9919 0.9919 0.1268 -532.5529 1010.0277)" class="st28" width="16.7" height="12.7"/>
<path class="st58" d="M389.5,830.1l-0.8-1.6l-6.8-12.8l-0.6-1.1c-0.2-0.3-0.6-0.3-0.9,0c0,0,0,0,0,0c-0.1,0.1-0.1,0.2-0.2,0.3
	l-2.3,4.2c-0.2,0.4-0.6,0.6-0.9,0.5l-25.9-13.9c-0.3-0.2-0.7,0-0.9,0.4l-3.2,6c-0.2,0.4-0.2,0.9,0.1,1l25.9,13.9
	c0.3,0.2,0.3,0.6,0.1,1l-2.3,4.3c0,0.1-0.1,0.2-0.1,0.3c-0.1,0.4,0.1,0.8,0.5,0.8c0,0,0,0,0,0l1.3-0.1l14.5-1.6l1.8-0.2
	c0.4,0,0.7-0.4,0.8-0.9C389.6,830.4,389.6,830.3,389.5,830.1z"/>
<path class="st58" d="M350.6,814.8c4.2,1.7,8.7,2.9,13.2,3.8L346,800.5c-0.3-0.3-1.1-0.4-1.7-0.1l-6.5,3.3
	C340.3,808.2,344.4,812.2,350.6,814.8z"/>
<path class="st58" d="M342.4,809.4c0.5,0.5,1.1,0.9,1.7,1.3c2-0.3,3.9-1,5.8-1.8l-8-16.4c-0.2-0.4-0.9-0.6-1.5-0.5l-6.9,2
	C334.5,799.7,337.3,805,342.4,809.4z"/>
<rect x="873" y="909.2" transform="matrix(0.6215 -0.7834 0.7834 0.6215 -386.0274 1036.2393)" class="st28" width="12.7" height="16.7"/>
<path class="st58" d="M930.4,866.5l-1.8-0.1l-14.5-0.8l-1.3-0.1c-0.4,0-0.6,0.3-0.5,0.7c0,0,0,0,0,0c0,0.1,0.1,0.2,0.1,0.3l2.4,4.1
	c0.2,0.4,0.2,0.8-0.1,1l-25.2,15c-0.3,0.2-0.3,0.6-0.1,1l3.5,5.8c0.2,0.4,0.7,0.6,0.9,0.4l25.2-15c0.3-0.2,0.7,0,0.9,0.4l2.5,4.2
	c0.1,0.1,0.1,0.2,0.2,0.2c0.3,0.3,0.7,0.3,0.9,0c0,0,0,0,0,0l0.5-1.2l6.2-13.2l0.8-1.6c0.1-0.3,0-0.8-0.3-1.1
	C930.7,866.6,930.6,866.6,930.4,866.5z"/>
<path class="st58" d="M897.2,891.9c3.6-2.7,7-5.9,10.1-9.4l-24.7,5.9c-0.4,0.1-0.9,0.7-0.9,1.4l-0.6,7.2
	C886.2,897.4,891.7,895.9,897.2,891.9z"/>
<path class="st58" d="M888.4,896.2c0.7-0.2,1.3-0.5,2-0.8c0.8-1.9,1.2-3.9,1.5-5.9l-18.2-1.7c-0.5,0-1,0.4-1.2,1.1l-1.8,7
	C875.9,897.9,881.9,898.3,888.4,896.2z"/>
<rect x="648.2" y="746.5" class="st82" width="7.3" height="53.3"/>
<rect x="727.2" y="853.9" class="st82" width="63.6" height="25.5"/>
<rect x="471.2" y="876.4" class="st82" width="313.8" height="28.5"/>
<polygon class="st83" points="733.4,890.7 658.1,890.7 658.1,793.4 714.4,793.4 733.4,842.5 "/>
<rect x="669.8" y="799.4" class="st8" width="32.2" height="33.1"/>
<polygon class="st8" points="726.1,832.8 705.6,832.8 705.6,799.8 714.4,799.8 "/>
<rect x="671.2" y="851.2" class="st82" width="7.3" height="14.3"/>
<path class="st82" d="M711.8,820.8h0.4c3.8,0,6.9,3.2,6.9,7.1v0l0,0c0,3.9-3.1,7.1-6.9,7.1l0,0h-0.4l0,0V820.8L711.8,820.8z"/>
<path class="st82" d="M439.8,876.4h0.4c3.8,0,6.9,3.2,6.9,7.1l0,0l0,0c0,3.9-3.1,7.1-6.9,7.1l0,0h-0.4l0,0V876.4L439.8,876.4z"/>
<path class="st83" d="M762.7,876.3c11.1,0,21.2,5.5,28.1,14.4h14.3l-13.9-39.8l-64.7-13.1l1.8,52.9h6.2
	C741.5,881.8,751.5,876.3,762.7,876.3z"/>
<ellipse class="st82" cx="763.4" cy="900.1" rx="31.8" ry="32.7"/>
<ellipse class="st83" cx="763.4" cy="900.1" rx="16.7" ry="17.2"/>
<ellipse class="st82" cx="476" cy="903.8" rx="27.8" ry="28.5"/>
<ellipse class="st83" cx="476" cy="903.8" rx="14.6" ry="15"/>
<rect x="644.9" y="779.9" class="st82" width="15.4" height="113.8"/>
<rect x="439.4" y="873" class="st82" width="220.9" height="6.8"/>
<rect x="708.9" y="834.3" class="st82" width="7.3" height="3"/>
<path class="st82" d="M796,864.9l-0.3,0.1c-3.6,1.4-7.6-0.5-9-4.2l0,0l0,0c-1.4-3.7,0.5-7.8,4-9.2l0,0l0.3-0.1l0,0L796,864.9
	L796,864.9z"/>
<polygon class="st0" points="601.2,847.4 593.3,854.9 567.4,854.5 574.5,847.4 "/>
<polygon class="st51" points="601.1,873 601.1,847.4 593.2,854.9 593.2,879.9 "/>
<polygon class="st0" points="567.4,854.5 567.4,879.9 593.3,879.9 593.3,854.9 "/>
<polygon class="st52" points="567.4,854.5 567.4,879.9 593.3,879.9 593.3,854.9 "/>
<polygon class="st53" points="591.2,861.9 571.9,858.7 569.4,870.9 589.3,874.4 "/>
<polygon class="st12" points="587,863.8 574,861.8 573.7,863.4 586.7,865.5 "/>
<polygon class="st54" points="597.9,860.8 597.5,850.8 595.5,852.7 595.8,862.8 "/>
<polygon class="st55" points="571.9,850 596.9,850.3 597.7,850.8 595.7,852.7 595,852.3 570.3,851.6 "/>
<polygon class="st12" points="584.7,866.9 572.9,866.2 572.4,867.5 584.7,868.2 "/>
<polygon class="st0" points="556.4,847.5 548.5,855 522.6,854.5 529.7,847.5 "/>
<polygon class="st51" points="556.2,873.1 556.2,847.5 548.3,855 548.3,880 "/>
<polygon class="st0" points="522.6,854.5 522.6,880 548.5,880 548.5,855 "/>
<polygon class="st52" points="522.6,854.5 522.6,880 548.5,880 548.5,855 "/>
<polygon class="st53" points="546.4,862 527.1,858.8 524.6,871 544.5,874.5 "/>
<polygon class="st12" points="542.2,863.8 529.2,861.9 528.9,863.5 541.9,865.6 "/>
<polygon class="st54" points="553,860.9 552.7,850.8 550.7,852.8 551,862.9 "/>
<polygon class="st55" points="527.1,850.1 552,850.4 552.9,850.8 550.8,852.8 550.1,852.4 525.4,851.7 "/>
<polygon class="st12" points="539.8,867 528.1,866.3 527.6,867.5 539.8,868.2 "/>
<polygon class="st0" points="579.5,821.5 571.6,829 545.7,828.6 552.8,821.5 "/>
<polygon class="st51" points="579.3,847.1 579.3,821.5 571.4,829 571.4,854.1 "/>
<polygon class="st0" points="545.7,828.6 545.7,854.1 571.6,854.1 571.6,829 "/>
<polygon class="st52" points="545.7,828.6 545.7,854.1 571.6,854.1 571.6,829 "/>
<polygon class="st53" points="569.5,836 550.2,832.9 547.7,845 567.5,848.5 "/>
<polygon class="st12" points="565.3,837.9 552.3,835.9 552,837.6 564.9,839.7 "/>
<polygon class="st54" points="576.1,835 575.8,824.9 573.7,826.8 574.1,836.9 "/>
<polygon class="st55" points="550.2,824.1 575.1,824.5 575.9,824.9 573.9,826.8 573.2,826.4 548.5,825.8 "/>
<polygon class="st12" points="562.9,841.1 551.2,840.4 550.7,841.6 562.9,842.3 "/>
</svg>
