<?xml version="1.0" encoding="UTF-8"?>
<svg xmlns="http://www.w3.org/2000/svg" xmlns:xlink="http://www.w3.org/1999/xlink" width="919px" height="227px" viewBox="0 0 919 227">
  <!-- Generator: Sketch 51.3 (57544) - http://www.bohemiancoding.com/sketch -->
  <title>Helthjem_RGB_gul&amp;sort</title>
  <desc>Created with Sketch.</desc>
  <defs>
    <polygon id="path-1" points="0.171 0.712 120.143 0.712 120.143 177.94 0.171 177.94"></polygon>
    <polygon id="path-3" points="0.581782803 0.945 161.66 0.945 161.66 218.260724 0.581782803 218.260724"></polygon>
  </defs>
  <g id="Page-1" stroke="none" stroke-width="1" fill="none" fill-rule="evenodd">
    <g id="Helthjem_RGB_gul&amp;sort">
      <path d="M243.658,49.712 L259.678,49.712 L259.678,112.903 L260.034,112.903 C262.05,108.394 265.552,104.746 270.536,101.956 C275.52,99.169 281.274,97.773 287.802,97.773 C291.835,97.773 295.723,98.396 299.461,99.642 C303.199,100.888 306.461,102.818 309.251,105.427 C312.038,108.039 314.263,111.39 315.926,115.484 C317.586,119.578 318.418,124.415 318.418,129.991 L318.418,184.281 L302.398,184.281 L302.398,134.441 C302.398,130.525 301.864,127.173 300.796,124.383 C299.728,121.597 298.304,119.341 296.524,117.62 C294.744,115.901 292.697,114.655 290.383,113.881 C288.069,113.112 285.666,112.725 283.174,112.725 C279.85,112.725 276.766,113.258 273.918,114.327 C271.07,115.395 268.578,117.085 266.442,119.4 C264.306,121.713 262.643,124.651 261.458,128.21 C260.27,131.771 259.678,135.984 259.678,140.849 L259.678,184.281 L243.658,184.281 L243.658,49.712" id="Fill-1" fill="#3F4240"></path>
      <path d="M405.281,135.153 C405.162,131.592 404.598,128.331 403.591,125.363 C402.581,122.398 401.068,119.817 399.052,117.62 C397.032,115.425 394.513,113.704 391.486,112.458 C388.461,111.211 384.929,110.588 380.896,110.588 C376.98,110.588 373.389,111.332 370.127,112.814 C366.861,114.299 364.103,116.226 361.85,118.599 C359.594,120.974 357.845,123.614 356.599,126.52 C355.353,129.429 354.73,132.305 354.73,135.153 L405.281,135.153 Z M354.73,147.969 C354.73,151.648 355.53,155 357.132,158.026 C358.734,161.052 360.84,163.632 363.452,165.769 C366.06,167.905 369.086,169.568 372.529,170.752 C375.97,171.94 379.53,172.533 383.21,172.533 C388.193,172.533 392.524,171.375 396.203,169.062 C399.88,166.748 403.263,163.694 406.35,159.895 L418.454,169.151 C409.554,180.663 397.094,186.417 381.073,186.417 C374.427,186.417 368.404,185.288 363.006,183.035 C357.606,180.782 353.039,177.667 349.3,173.69 C345.563,169.715 342.684,165.029 340.668,159.627 C338.649,154.229 337.642,148.386 337.642,142.095 C337.642,135.806 338.737,129.963 340.935,124.562 C343.129,119.164 346.155,114.477 350.013,110.5 C353.867,106.525 358.467,103.411 363.808,101.155 C369.148,98.902 374.96,97.773 381.252,97.773 C388.728,97.773 395.047,99.08 400.208,101.689 C405.37,104.3 409.612,107.713 412.936,111.923 C416.256,116.137 418.66,120.885 420.145,126.164 C421.628,131.446 422.37,136.816 422.37,142.273 L422.37,147.969 L354.73,147.969 Z" id="Fill-2" fill="#3F4240"></path>
      <polygon id="Fill-3" fill="#3F4240" points="442.839 184.281 458.86 184.281 458.86 49.712 442.839 49.712"></polygon>
      <path d="M529.524,113.792 L506.561,113.792 L506.561,152.063 C506.561,154.438 506.62,156.78 506.74,159.094 C506.856,161.408 507.301,163.486 508.075,165.324 C508.845,167.165 510.033,168.647 511.634,169.774 C513.237,170.903 515.579,171.464 518.666,171.464 C520.562,171.464 522.52,171.287 524.54,170.931 C526.556,170.575 528.394,169.924 530.057,168.973 L530.057,183.569 C528.158,184.637 525.697,185.376 522.671,185.793 C519.644,186.209 517.3,186.417 515.639,186.417 C509.468,186.417 504.693,185.554 501.31,183.835 C497.928,182.117 495.436,179.892 493.835,177.161 C492.233,174.432 491.282,171.375 490.987,167.994 C490.689,164.612 490.542,161.202 490.542,157.758 L490.542,113.792 L472.03,113.792 L472.03,99.909 L490.542,99.909 L490.542,76.235 L506.561,76.235 L506.561,99.909 L529.524,99.909 L529.524,113.792" id="Fill-4" fill="#3F4240"></path>
      <g id="Group-8" transform="translate(550.000000, 49.000000)">
        <mask id="mask-2" fill="white">
          <use xlink:href="#path-1"></use>
        </mask>
        <g id="Clip-6"></g>
        <path d="M0.171,0.712 L16.191,0.712 L16.191,63.903 L16.547,63.903 C18.563,59.394 22.065,55.746 27.049,52.956 C32.033,50.169 37.788,48.773 44.315,48.773 C48.348,48.773 52.236,49.396 55.974,50.642 C59.712,51.888 62.974,53.818 65.764,56.427 C68.55,59.039 70.776,62.39 72.439,66.484 C74.099,70.578 74.931,75.415 74.931,80.991 L74.931,135.281 L58.911,135.281 L58.911,85.441 C58.911,81.525 58.377,78.173 57.309,75.383 C56.241,72.597 54.817,70.341 53.037,68.62 C51.257,66.901 49.21,65.655 46.896,64.881 C44.582,64.112 42.179,63.725 39.687,63.725 C36.364,63.725 33.279,64.258 30.431,65.327 C27.583,66.395 25.091,68.085 22.955,70.4 C20.819,72.713 19.156,75.651 17.971,79.21 C16.784,82.771 16.191,86.984 16.191,91.849 L16.191,135.281 L0.171,135.281 L0.171,0.712" id="Fill-5" fill="#F2B133" mask="url(#mask-2)"></path>
        <path d="M96.647,20.649 C96.647,17.445 97.803,14.686 100.118,12.372 C102.432,10.058 105.191,8.901 108.395,8.901 C111.599,8.901 114.358,10.058 116.672,12.372 C118.986,14.686 120.143,17.445 120.143,20.649 C120.143,23.853 118.986,26.612 116.672,28.925 C114.358,31.24 111.599,32.397 108.395,32.397 C105.191,32.397 102.432,31.24 100.118,28.925 C97.803,26.612 96.647,23.853 96.647,20.649 Z M116.405,50.909 L116.405,147.384 C116.405,149.521 116.255,152.338 115.96,155.839 C115.662,159.338 114.714,162.72 113.112,165.986 C111.509,169.249 108.957,172.066 105.458,174.441 C101.957,176.813 97.003,178 90.594,178 C88.815,178 87.062,177.881 85.343,177.645 C83.625,177.406 81.934,176.991 80.271,176.399 L82.05,161.625 C83.002,161.981 84.07,162.306 85.255,162.604 C86.442,162.899 87.569,163.048 88.636,163.048 C93.026,163.048 96.083,161.653 97.803,158.866 C99.523,156.076 100.384,152.013 100.384,146.672 L100.384,50.909 L116.405,50.909 Z" id="Fill-7" fill="#F2B133" mask="url(#mask-2)"></path>
      </g>
      <path d="M754.512,135.153 C754.393,131.592 753.829,128.331 752.822,125.363 C751.812,122.398 750.299,119.817 748.283,117.62 C746.263,115.425 743.744,113.704 740.717,112.458 C737.692,111.211 734.16,110.588 730.127,110.588 C726.211,110.588 722.62,111.332 719.358,112.814 C716.092,114.299 713.334,116.226 711.081,118.599 C708.825,120.974 707.076,123.614 705.83,126.52 C704.584,129.429 703.961,132.305 703.961,135.153 L754.512,135.153 Z M703.961,147.969 C703.961,151.648 704.761,155 706.364,158.026 C707.965,161.052 710.071,163.632 712.682,165.769 C715.292,167.905 718.317,169.568 721.76,170.752 C725.201,171.94 728.761,172.533 732.441,172.533 C737.424,172.533 741.755,171.375 745.434,169.062 C749.111,166.748 752.494,163.694 755.581,159.895 L767.684,169.151 C758.785,180.663 746.325,186.417 730.304,186.417 C723.658,186.417 717.636,185.288 712.238,183.035 C706.837,180.782 702.269,177.667 698.532,173.69 C694.794,169.715 691.915,165.029 689.899,159.627 C687.88,154.229 686.873,148.386 686.873,142.095 C686.873,135.806 687.968,129.963 690.166,124.562 C692.36,119.164 695.386,114.477 699.244,110.5 C703.098,106.525 707.699,103.411 713.039,101.155 C718.379,98.902 724.191,97.773 730.483,97.773 C737.959,97.773 744.278,99.08 749.439,101.689 C754.601,104.3 758.843,107.713 762.167,111.923 C765.487,116.137 767.89,120.885 769.376,126.164 C770.858,131.446 771.6,136.816 771.6,142.273 L771.6,147.969 L703.961,147.969 Z" id="Fill-9" fill="#F2B133"></path>
      <path d="M790.824,99.909 L805.776,99.909 L805.776,113.081 L806.132,113.081 C806.488,111.896 807.406,110.411 808.891,108.63 C810.374,106.851 812.273,105.16 814.588,103.558 C816.901,101.956 819.63,100.593 822.775,99.463 C825.919,98.337 829.389,97.773 833.188,97.773 C839.477,97.773 844.758,99.08 849.03,101.689 C853.302,104.3 856.801,108.216 859.532,113.437 C862.26,108.216 866.119,104.3 871.102,101.689 C876.087,99.08 881.129,97.773 886.232,97.773 C892.757,97.773 898.097,98.84 902.253,100.977 C906.405,103.113 909.668,105.933 912.043,109.432 C914.415,112.933 916.047,116.908 916.937,121.358 C917.828,125.808 918.272,130.408 918.272,135.153 L918.272,184.281 L902.253,184.281 L902.253,137.289 C902.253,134.084 902.044,131 901.63,128.033 C901.213,125.068 900.353,122.457 899.048,120.201 C897.741,117.948 895.903,116.137 893.53,114.772 C891.155,113.409 888.012,112.725 884.096,112.725 C876.381,112.725 870.863,115.1 867.543,119.845 C864.218,124.592 862.558,130.703 862.558,138.179 L862.558,184.281 L846.539,184.281 L846.539,140.137 C846.539,136.104 846.33,132.424 845.916,129.101 C845.498,125.78 844.67,122.901 843.423,120.467 C842.177,118.037 840.397,116.137 838.084,114.772 C835.769,113.409 832.654,112.725 828.738,112.725 C825.89,112.725 823.131,113.29 820.462,114.416 C817.792,115.545 815.447,117.236 813.43,119.489 C811.411,121.745 809.809,124.623 808.625,128.122 C807.437,131.624 806.844,135.748 806.844,140.493 L806.844,184.281 L790.824,184.281 L790.824,99.909" id="Fill-10" fill="#F2B133"></path>
      <path d="M91.193,97.1 L5.379,62.923 C2.865,61.922 0,63.738 0,66.572 L0,128.139 C0,129.75 0.983,131.197 2.481,131.791 L88.295,165.768 C90.848,166.779 93.667,164.908 93.667,162.117 L93.667,100.749 C93.667,99.141 92.687,97.696 91.193,97.1" id="Fill-11" fill="#F2B133"></path>
      <path d="M91.191,173.173 L41.951,153.588 C39.231,152.545 36.573,154.583 36.573,157.237 L36.573,195.149 C36.573,196.774 37.575,198.232 39.093,198.814 L88.334,217.706 C90.888,218.685 93.667,216.817 93.667,214.04 L93.667,176.821 C93.667,175.213 92.686,173.767 91.191,173.173" id="Fill-12" fill="#F2B133"></path>
      <path d="M27.825,148.086 L5.38,139.141 C2.75,138.091 0,140.061 0,142.789 L0,180.699 C0,182.305 0.98,183.75 2.473,184.345 L24.918,193.291 C27.427,194.283 30.298,192.484 30.298,189.643 L30.298,151.733 C30.298,150.126 29.318,148.681 27.825,148.086" id="Fill-13" fill="#F2B133"></path>
      <g id="Group-17" transform="translate(5.000000, 0.000000)">
        <mask id="mask-4" fill="white">
          <use xlink:href="#path-3"></use>
        </mask>
        <g id="Clip-15"></g>
        <path d="M155.879,66.234 L97.011,97.799 C95.736,98.484 94.941,99.814 94.941,101.26 L94.941,214.338 C94.941,217.372 98.18,219.158 100.722,217.799 L159.589,186.234 C160.864,185.548 161.66,184.219 161.66,182.773 L161.66,69.695 C161.66,66.728 158.486,64.834 155.879,66.234" id="Fill-14" fill="#3F4240" mask="url(#mask-4)"></path>
        <path d="M132.477,31.49 L47.833,1.227 C46.206,0.576 44.343,1.078 43.269,2.463 L1.411,51.636 C-0.056,53.356 0.384,56.616 3.047,57.687 L88.861,92.21 C90.662,92.934 92.52,92.162 93.447,90.95 L134.221,37.547 C135.919,35.328 134.767,32.305 132.477,31.49" id="Fill-16" fill="#3F4240" mask="url(#mask-4)"></path>
      </g>
    </g>
  </g>
</svg>
